<svg xmlns="http://www.w3.org/2000/svg" width="1164" height="1164" viewBox="0 0 1164 1164" version="1.1" xmlns:bx="https://boxy-svg.com">
  <path d="M 534.53 256.847 C 505.565 262.26 464.943 265.744 436.768 278.617 C 377.346 305.768 335.406 334.972 293.1 385.702 C 289.116 390.479 259.239 426.07 255.414 435.434 C 241.092 470.503 229.597 506.677 217.845 542.69 C 216.273 547.506 216.118 552.677 215.512 557.707 C 208.924 612.414 203.962 676.133 220.485 727.744 C 234.387 771.166 259.501 810.76 286.292 847.652 C 351.971 938.094 459.917 991.859 571.437 990.249 C 599.655 989.84 628.227 991.289 656.012 986.349 C 703.16 977.961 743.666 957.241 784.946 935.481 C 802.504 926.226 823.406 921.558 837.612 907.695 C 880.743 865.603 923.473 821.464 954.637 769.881 C 1011.02 676.545 982.02 542.477 935.441 450.906 C 920.541 421.615 899.064 396.155 880.114 369.306 C 871.631 357.288 836.502 325.437 834.444 323.814 C 828.423 319.067 820.96 316.495 814.03 313.214 C 796.788 305.05 779.368 297.262 761.946 289.49 C 697.317 260.659 605.939 258.906 534.53 256.847" stroke="none" fill="#fbfbeb" fill-rule="evenodd" style="">
    <bx:title>white</bx:title>
  </path>
  <path d="M 271.506 253.52 C 220.99 265.879 150.42 325.091 138.992 364.705 C 128.449 401.248 126.945 441.031 135.169 465.825 C 142.629 488.315 168.739 523.506 191.379 541.584 C 196.631 545.778 201.597 550.46 202.416 551.991 C 209.301 564.855 216.079 560.769 217.845 542.69 C 220.879 511.638 249.696 446.373 270.677 413.331 C 291.659 380.289 315.961 354.8 334.438 340.609 C 354.435 325.25 370.533 312.693 379.537 308.923 C 389.37 304.806 390.201 303.734 387.479 298.679 C 381.805 288.145 368.893 278.527 350.082 270.825 C 345.281 268.859 338.567 265.857 335.163 264.155 C 317.173 255.16 286.054 249.961 271.506 253.52 M 880.44 276.256 C 861.717 281.22 839.825 292.415 823.297 305.479 C 812.978 313.635 812.763 312.728 826.756 320.113 C 839.732 326.962 851.97 341.587 865.874 358.073 C 870.23 363.236 904.543 407.426 920.912 434.91 C 936.704 461.428 944.278 470.541 953.106 495.67 C 964.858 529.122 968.44 535.854 970.585 546.501 C 974.309 564.981 974.889 565.564 984.694 560.683 C 1007.7 549.219 1035.96 501.641 1042.72 462.963 C 1057.84 376.554 1040.52 331.287 975.483 287.182 C 958.111 275.401 906.179 269.431 880.44 276.256 M 435.068 463.723 C 384.937 470.909 333.599 506.281 300.493 556.447 C 209.219 694.757 336.186 803.122 463.926 695.936 C 574.833 602.873 555.398 446.479 435.068 463.723 M 766.895 466.415 C 675.246 481.844 659.353 616.665 739.534 698.521 C 818.74 779.381 926.697 740.782 926.715 631.597 C 926.729 537.603 845.112 453.248 766.895 466.415 M 600.839 685.238 C 597.192 685.691 587.246 686.138 578.736 686.23 C 529.395 686.767 530.196 727.331 580.27 763.791 C 584.014 766.516 584.014 766.516 582.677 789.818 C 580.838 821.866 583.401 828.865 596.971 828.865 C 609.586 828.865 614.632 816.894 614.663 786.898 C 614.684 766.503 614.674 766.522 626.125 762.567 C 638.499 758.295 646.578 753.136 651.681 746.248 C 680.347 707.561 656.038 678.39 600.839 685.238" stroke="none" fill="#1c1c24" fill-rule="evenodd" style="">
    <bx:title>black</bx:title>
  </path>
</svg>