<svg xmlns="http://www.w3.org/2000/svg" width="1164" height="1164" viewBox="0 0 1164 1164" version="1.1" xmlns:bx="https://boxy-svg.com">
  <path d="M 583.387 171.405 C 431.15 177.814 298.047 260.272 227.263 392.026 C 214.447 415.882 203.381 439.518 201.528 446.443 C 181.502 521.251 181.993 598.855 185.837 651.527 C 191.223 725.362 208.818 733.882 239.178 782.007 C 401.078 1038.66 785.379 1032.37 943.623 769.607 C 972.851 721.076 988.262 708.049 998.845 637.624 C 1009.94 563.761 1002.84 566.24 997.688 509.078 C 991.284 438.002 970.125 404.096 960.611 384.897 C 890.898 244.211 741.321 164.758 583.387 171.405" stroke="none" fill="#704933" fill-rule="evenodd" style="">
    <bx:title>body</bx:title>
  </path>
  <path d="M 116.287 368.706 C 100.421 372.63 82.158 382.436 67.977 394.643 C 62.828 399.075 54.719 405.769 49.956 409.519 C 17.324 435.205 -2.598 490.161 4.233 535.645 C 8.401 563.392 25.112 593.492 47.644 613.832 C 52.616 618.32 59.042 624.686 61.923 627.978 C 66.547 633.261 73.87 639.742 88.619 651.61 C 100.557 661.215 149.778 666.595 175.748 661.132 C 180.103 660.217 191.23 663.55 190.564 657.942 C 179.582 565.399 193.243 471.439 212.261 425.531 C 219.034 409.186 220.697 415.726 206.9 402.328 C 184.868 380.934 144.695 361.677 116.287 368.706 M 1033.58 395.102 C 1012.43 397.605 966.145 394.772 971.422 421.659 C 982.427 477.731 998.352 537.89 995.496 651.979 C 994.959 673.411 1042.57 659.519 1077.99 649.233 C 1147.96 628.908 1178.8 527.967 1139.09 449.208 C 1116.81 405.002 1085.52 388.958 1033.58 395.102 M 455.784 416.548 C 441.041 419.952 417.589 429.899 406.142 437.601 C 352.36 473.796 326.379 502.856 315.531 538.953 C 299.06 593.755 297.9 618.729 309.875 660.622 C 330.188 731.69 351.949 766.105 392.673 791.572 C 399.854 796.063 409.711 802.232 414.579 805.281 C 433.212 816.955 472.503 830.469 495.501 833.113 C 532.478 837.365 590.738 838.936 622.318 836.533 C 634.858 835.579 655.891 834.261 669.057 833.603 C 698.406 832.137 714.468 829.563 734.325 823.141 C 763.211 813.799 762.991 813.946 801.669 778.285 C 811.166 769.527 819.59 761.983 820.387 761.521 C 822.973 760.02 839.439 739.682 843.051 733.526 C 851.645 718.884 861.482 687.573 863.369 668.853 C 863.916 663.428 864.852 655.562 865.449 651.373 C 870.942 612.832 869.716 584.417 861.639 563.149 C 860.067 559.007 856.316 548.762 853.307 540.383 C 845.012 517.291 842.37 511.642 834.143 499.405 C 768.744 402.134 648.9 395.413 604.223 486.51 C 599.157 496.837 599.157 496.837 594.163 486.891 C 584.126 466.906 558.913 441.096 540.128 431.577 C 520.156 421.457 471.822 412.843 455.784 416.548" stroke="none" fill="#dbb383" fill-rule="evenodd" style="">
    <bx:title>face</bx:title>
  </path>
  <path d="M 722.92 537.366 C 705.95 543.82 695.866 583.45 708.325 598.005 C 722.063 614.055 758 607.535 768.136 586.966 C 783.579 555.627 746.363 528.453 722.92 537.366 M 440.322 546.343 C 416.51 558.381 405.589 591.823 429.913 603.934 C 433.605 605.772 443.534 613.719 451.863 615.179 C 463.156 617.158 483.133 602.723 488.759 589.786 C 502.21 558.843 468.758 531.968 440.322 546.343 M 568.95 612.91 C 538.192 619.081 543.47 650.798 575.575 652.713 C 585.603 653.312 585.603 653.312 585.981 671.384 C 586.468 694.591 589.11 699.794 600.41 699.794 C 610.37 699.794 613.019 693.312 613.019 668.938 C 613.019 649.982 613.019 649.982 628.524 649.578 C 649.625 649.028 656.77 644.334 655.129 632.101 C 653.189 617.643 644.185 613.352 615.196 613.072 C 602.927 612.954 588.726 612.622 583.639 612.337 C 578.553 612.051 571.942 612.309 568.95 612.91" stroke="none" fill="#191920" fill-rule="evenodd" style="">
    <bx:title>black</bx:title>
  </path>
</svg>