<svg xmlns="http://www.w3.org/2000/svg" width="1164" height="1164" viewBox="0 0 1164 1164" version="1.1" xmlns:bx="https://boxy-svg.com">
  <path d="M 556.008 203.75 C 491.208 207.889 439.933 221.069 385.726 247.514 C 362.399 258.895 363.71 257.729 366.689 264.454 C 372.086 276.633 346.561 300.149 307.473 276.982 C 270.31 254.954 214.711 250.778 186.463 258.242 C 157.817 265.808 158.052 315.606 187.052 363.198 C 206.099 394.457 209.659 408.74 201.605 438.574 C 198.502 450.063 203.151 462.509 191.983 462.591 C 184.631 462.644 183.668 464.418 175.325 493.3 C 169.685 512.823 160.555 561.741 162.551 561.741 C 162.758 561.741 161.307 575.978 161.028 575.978 C 158.732 575.978 161.533 635.678 166.307 656.19 C 174.341 690.712 172.721 638.98 180.098 702.338 C 181.221 711.978 204.203 770.329 229.297 805.16 C 388.283 1025.85 739.064 1018.91 899.706 791.901 C 924.369 757.046 952.038 683.293 952.477 683.293 C 954.92 683.293 968.962 616.915 967.046 614.426 C 966.865 614.191 967.118 627.383 966.571 589.868 C 965.921 545.336 968.011 530.823 960.413 497.133 C 957.299 483.322 957.285 483.196 958.431 480.433 C 959.098 478.826 956.419 459.806 953.271 459.806 C 926.442 459.806 934.398 458.432 953.177 420.578 C 957.273 412.32 958.046 395.643 959.65 388.806 C 960.994 383.084 965.376 359.05 966.7 354.233 C 972.207 334.187 954.703 280.981 944.379 274.65 C 928.054 264.634 883.906 265.243 851.349 279.698 C 822.253 292.617 789.832 277.548 793.161 266.348 C 793.589 264.906 793.422 263.884 792.757 263.884 C 792.131 263.884 786.777 261.083 780.857 257.66 C 747.415 238.321 707.523 222.965 666.609 213.681 C 633.954 206.27 572.58 200.343 579.552 205.274 C 597.137 217.709 570.244 203.393 570.244 203.097 C 570.244 202.803 570.122 202.632 569.97 202.719" stroke="none" fill="#db8010" fill-rule="evenodd" style="">
    <bx:title>head</bx:title>
  </path>
  <path d="M 731.218 628.671 C 729.111 629.224 717.284 629.818 704.937 629.994 C 678.811 630.363 665.523 630.239 659.964 630.083 C 616.744 628.885 535.324 639.524 504.867 637.585 C 495.646 636.999 483.555 628.796 441.027 637.444 C 374.438 650.982 331.995 706.306 328.563 784.039 C 327.416 810.007 337.876 837.595 353.202 849.022 C 356.562 851.526 362.297 856.347 365.948 859.731 C 421.275 911.044 541.917 907.336 579.453 853.171 C 582.51 848.761 582.51 848.761 588.696 855.454 C 595.167 862.454 617.18 879.493 623.856 882.67 C 648.104 894.205 714.766 895.371 743.811 884.768 C 746.823 883.668 754.907 880.751 761.775 878.285 C 805.259 862.674 822.784 846.024 835.931 807.834 C 844.125 784.029 844.196 727.927 836.051 712.042 C 833.967 707.976 831.416 702.067 830.386 698.911 C 825.929 685.268 806 658.247 794.3 649.985 C 769.621 632.556 746.383 624.704 731.218 628.671" stroke="none" fill="#fbfbeb" fill-rule="evenodd" style="">
    <bx:title>muzzle</bx:title>
  </path>
  <path d="M 204.493 200.034 C 162.451 204.52 133.457 228.161 123.927 265.73 C 116.29 295.836 127.911 369.531 145.897 405.051 C 149.125 411.427 152.826 419.356 154.121 422.669 C 166.894 455.339 185.751 469.783 202.89 460.022 C 225.481 447.156 224.271 402.604 200.261 363.198 C 171.261 315.606 171.026 279.017 199.672 271.449 C 227.919 263.987 261.505 271.464 298.668 293.492 C 337.755 316.66 348.368 318.681 360.663 305.299 C 369.203 296.002 372.085 276.631 366.725 264.536 C 365.417 261.582 364.585 258.927 364.877 258.634 C 368.337 255.174 335.033 229.568 312.023 217.999 C 282.274 203.041 240.978 196.142 204.493 200.034 M 563.674 206.385 C 541.782 217.262 541.072 220.494 540.74 310.597 C 540.484 380.104 540.12 374.127 545.809 393.65 C 549.559 406.514 555.728 411.707 567.268 411.713 C 593.664 411.728 599.366 389.237 599.193 285.785 C 599.103 232.542 596.613 218.286 585.985 210.181 C 583.253 208.098 580.072 205.532 578.916 204.477 C 575.965 201.787 571.908 202.293 563.674 206.385 M 879.052 222.711 C 840.878 229.323 796.883 252.181 792.815 267.515 C 789.958 278.292 791.667 282.921 802.676 294.211 C 818.315 310.25 831.341 311.202 860.155 298.41 C 892.711 283.955 923.651 281.144 939.976 291.16 C 950.299 297.492 956.798 333.087 951.29 353.132 C 949.966 357.95 947.785 366.573 946.441 372.295 C 944.837 379.133 941.864 387.004 937.767 395.263 C 919.032 433.026 928.642 478.516 955.355 478.516 C 957.355 478.516 958.992 478.984 958.992 479.555 C 958.992 482.643 972.727 474.804 976.853 469.362 C 980.534 464.506 987.715 448.108 992.311 434.064 C 994.461 427.496 999.631 411.773 1003.79 399.125 C 1014.49 366.633 1017.34 337.193 1011.89 315.352 C 1010.61 310.232 1008.98 302.102 1008.27 297.284 C 1005.81 280.682 1000 267.647 991.651 259.944 C 989.045 257.546 986.829 255.217 986.721 254.768 C 981.002 230.801 926.326 214.523 879.052 222.711 M 668.163 226.618 C 650.65 233.703 650.592 311.183 668.094 319.656 C 693.521 331.964 712.512 282.401 698.781 239.571 C 695.307 228.736 679.479 222.04 668.163 226.618 M 450.334 228.284 C 449.732 228.486 447.93 228.939 446.329 229.289 C 441.876 230.266 430.407 240.38 429.101 244.48 C 422.47 265.313 423.789 306.812 431.622 323.693 C 439.823 341.371 461.308 340.25 468.17 321.787 C 470.759 314.823 474.973 281.769 474.972 268.451 C 474.97 241.795 463.906 223.758 450.334 228.284 M 212.017 545.822 C 211.738 546.101 207.006 547.057 201.501 547.948 C 195.998 548.839 189.874 550.405 187.894 551.427 C 185.915 552.451 181.349 553.976 177.748 554.817 C 165.402 557.696 158.498 564.195 159.969 571.556 C 161.581 579.614 176.272 599.385 183.537 603.274 C 189.235 606.323 258.161 604.124 264.426 600.692 C 287.035 588.307 283.372 560.794 258.151 553.573 C 256.646 553.142 250.844 551.107 245.259 549.053 C 235.762 545.557 214.36 543.478 212.017 545.822 M 880.695 570.195 C 854.102 576.69 841.82 586.999 841.82 602.826 C 841.82 614.839 853.306 626.353 863.875 624.935 C 866.402 624.596 870.673 625.19 874.679 626.437 C 921.258 640.934 966.732 630.597 971.441 604.441 C 973.638 592.236 956.348 576.534 934.831 571.192 C 927.877 569.465 886.781 568.71 880.695 570.195 M 573.529 612.791 C 540.169 616.195 500.897 626.146 496.636 635.53 C 492.513 644.608 494.012 650.624 503.983 665.01 C 507.404 669.947 513.536 678.913 517.609 684.936 C 564.056 753.617 642.989 745.725 666.512 670.051 C 676.556 637.735 669.349 620.074 646.016 619.828 C 643.445 619.8 637.694 618.221 632.875 616.221 C 624.625 612.794 593.454 610.759 573.529 612.791 M 183.53 655.248 C 181.337 656.032 177.887 657.716 175.865 658.991 C 173.843 660.264 170.351 662.317 168.105 663.551 C 153.971 671.313 161.48 698.492 178.759 702.117 C 204.431 707.502 236.205 709.14 243.389 705.447 C 266.694 693.466 259.732 664.661 232.48 660.307 C 228.465 659.665 221.448 657.924 216.887 656.434 C 207.395 653.336 190.559 652.737 183.53 655.248 M 896.303 659.24 C 877.704 662.37 861.094 688.366 869.199 701.659 C 878.817 717.434 924.704 722.707 939.481 709.732 C 941.638 707.839 944.029 706.29 944.798 706.29 C 952.575 706.29 959.48 687.38 953.085 683.596 C 952.293 683.129 951.026 681.566 950.268 680.125 C 947.968 675.748 940.162 667.897 936.045 665.82 C 929.441 662.486 906.896 657.428 902.243 658.236 C 901.835 658.307 899.162 658.759 896.303 659.24" stroke="none" fill="#a95d00" fill-rule="evenodd" style="">
    <bx:title>spots</bx:title>
  </path>
  <path d="M 730.882 539.788 C 706.347 551.758 699.689 582.036 717.646 599.992 C 730.494 612.842 758.434 614.655 769.716 603.374 C 797.815 575.273 765.754 522.776 730.882 539.788 M 395.065 541.238 C 360.503 549.376 353.623 605.056 385.854 615.762 C 425.946 629.078 464.712 580.212 435.452 553.242 C 424.227 542.895 408.226 538.139 395.065 541.238" stroke="none" fill="#191920" fill-rule="evenodd" style="">
    <bx:title>eyes</bx:title>
  </path>
</svg>