<svg xmlns="http://www.w3.org/2000/svg" width="1164" height="1164" viewBox="0 0 1164 1164" version="1.1" xmlns:bx="https://boxy-svg.com">
  <path d="M 658.186 47.611 C 630.849 50.115 602.489 68.565 592.498 90.342 C 589.598 96.663 590.005 96.725 583.703 89.012 C 550.129 47.916 482.889 58.665 456.206 109.394 C 452.499 116.442 452.499 116.442 445.717 109.925 C 424.664 89.7 401.579 87.422 358.931 101.361 C 350.861 103.998 334.476 113.008 320.804 122.325 C 310.969 129.027 283.663 155.526 271.71 169.967 C 252.125 193.631 247.367 203.798 247.331 222.062 C 247.308 233.344 247.308 233.344 236.943 234.071 C 199.941 236.664 167.672 246.515 151.716 260.093 C 119.332 287.645 110.308 361.551 134.684 399.568 C 138.915 406.166 138.822 406.363 130.738 407.852 C 75.369 418.054 46.437 470.283 67.652 521.737 C 79.057 549.397 90.461 561.076 118.507 573.819 C 130.618 579.322 133.357 580.946 131.962 581.792 C 80.915 612.746 61.78 672.854 86.662 724.087 C 97.276 745.939 126.772 763.778 160.717 768.873 C 173.261 770.756 172.743 770.256 168.006 775.926 C 138.304 811.462 135.35 862.589 161.579 887.125 C 192.664 916.203 237.078 917.698 296.244 891.661 C 307.748 886.599 306.888 886.353 305.566 894.335 C 300.984 922.031 325.329 985.249 335.296 971.529 C 337.351 968.698 443.262 999.728 443.445 999.92 C 446.313 1002.89 483.99 974.288 492.511 962.678 C 497.458 955.939 497.067 955.579 502.319 971.673 C 511.072 998.505 527.119 1023.2 544.793 1037.06 C 562.99 1051.33 602.053 1047.26 642.239 1026.91 C 676.094 1009.77 676.693 1009.33 675.575 1001.94 C 675.113 998.889 787.348 984.441 789.243 985.61 C 793.27 988.109 833.05 961.725 847.256 947.142 C 883.764 909.667 893.944 892.086 894.566 865.439 C 894.944 849.227 894.944 849.227 898.819 851.199 C 914.639 859.257 941.838 858.613 959.406 849.766 C 1001.83 828.403 1019.09 799.269 1019.1 749.036 C 1019.1 717.28 1017.83 711.46 1004.14 680.658 C 994.273 658.447 994.575 660.621 1001.13 658.942 C 1025.59 652.673 1047.51 636.463 1053.67 620.097 C 1071.68 572.271 1055.12 508.883 1015.3 473.252 C 1007.17 465.982 1007.17 465.982 1018.82 460.409 C 1047.38 446.748 1057.05 429.462 1055.89 394.16 C 1053.24 313.037 1032.42 287.643 969.887 289.195 C 958.314 289.482 948.99 289.417 949.166 289.05 C 949.341 288.683 951.203 285.035 953.301 280.942 C 969.626 249.109 958.996 199.135 930.1 171.876 C 905.479 148.65 859.569 142.258 819.707 156.506 C 813.895 158.583 808.854 160.284 808.503 160.284 C 808.151 160.284 807.569 154.902 807.209 148.324 C 805.431 115.773 788.068 85.226 761.627 68.12 C 737.704 52.645 695.208 44.219 658.186 47.611" stroke="none" fill="#fffaea" fill-rule="evenodd" style="">
    <bx:title>wool</bx:title>
  </path>
  <path d="M 326.492 269.76 C 267.485 283.103 243.907 340.989 281.177 381.009 C 285.06 385.178 290.347 391.081 292.927 394.128 C 298.246 400.409 302.168 403.069 312.421 407.349 C 320.881 410.88 320.594 409.89 315.502 417.964 C 245.853 528.392 271.35 680.625 374.145 768.088 C 561.594 927.577 855.429 818.683 862.506 587.102 C 864.13 533.933 856.815 506.23 820.259 427.115 C 813.409 412.291 813.246 413.592 822.431 409.666 C 872.588 388.224 886.03 356.266 862.55 314.282 C 835.388 265.71 744.681 280.493 742.857 333.788 C 742.641 340.097 742.263 345.258 742.016 345.258 C 741.21 345.258 730.773 339.857 715.882 331.734 C 702.378 324.369 691.815 319.647 658.186 305.949 C 619.156 290.051 539.566 275.837 523.707 281.935 C 510.538 286.998 493.091 292.634 477.463 296.876 C 463.683 300.616 455.675 303.54 443.74 309.191 C 430.313 315.549 411.208 323.997 410.256 323.997 C 410.093 323.997 409.959 321.19 409.959 317.76 C 409.959 301.827 389.394 278.017 368.529 269.792 C 361.256 266.925 339.102 266.907 326.492 269.76 M 660.979 885.299 C 656.023 895.999 658.12 920.334 667.067 955.993 C 672.078 975.968 674.746 992.01 676.255 1011.27 C 678.377 1038.35 679.149 1043.88 683.28 1061.52 C 687.579 1079.89 691.685 1086.61 700.467 1089.67 C 702.294 1090.3 704.255 1092.3 705.545 1094.83 C 712.144 1107.76 744.637 1106.2 789.147 1090.82 C 802.717 1086.13 806.001 1074.68 801.781 1046.79 C 796.156 1009.62 792.408 992.361 788.056 983.591 C 785.534 978.499 783.163 970.756 778.638 952.804 C 775.946 942.121 776.334 942.427 768.745 945.009 C 736.087 956.122 675.504 921.622 664.778 885.804 C 663.195 880.515 663.195 880.515 660.979 885.299 M 371.122 907.359 C 355.558 936.374 336.854 969.757 335.012 971.811 C 331.282 975.968 326.773 986.44 312.745 1023.51 C 307.323 1037.83 301.684 1051.94 300.214 1054.87 C 278.735 1097.53 302.025 1118.11 371.796 1118.11 C 388.867 1118.11 406.016 1094.31 427.315 1041.04 C 429.887 1034.61 434.502 1023.12 437.573 1015.54 C 440.644 1007.95 443.28 1000.77 443.428 999.59 C 443.578 998.41 447.111 985.61 451.28 971.145 C 455.449 956.676 458.86 944.463 458.86 944.005 C 458.86 943.549 452.448 943.363 444.612 943.592 C 418.152 944.365 391.208 928.132 379.18 904.169 C 376.111 898.058 376.111 898.058 371.122 907.359" stroke="none" fill="#c4c2c4" fill-rule="evenodd" style="">
    <bx:title>grey</bx:title>
  </path>
  <path d="M 704.998 509.652 C 680.788 522.719 667.579 577.017 693.262 584.817 C 716.616 591.91 753.528 583.633 756.588 558.117 C 762.544 508.441 718.832 502.611 705.786 509.652 M 393.495 517.869 C 373.02 528.232 366.314 563.115 381.584 578.506 C 405.702 602.809 461.672 596.521 456.778 543.268 C 454.566 519.198 415.083 506.945 393.495 517.869 M 610.956 590.991 C 606.391 592.317 589.891 603.677 577.637 613.931 C 568.315 621.733 568.315 621.733 558.502 612.91 C 531.088 588.263 503.755 583.538 498.085 602.463 C 494.954 612.913 517.562 636.717 543.107 649.867 C 551.903 654.394 552.41 656.188 552.41 682.802 C 552.41 701.348 554.21 705.942 563.271 710.539 C 580.414 719.232 592.138 694.572 588.116 658.274 C 587.408 651.881 588.946 650.114 607.579 635.923 C 624.717 622.867 625.227 622.344 627.882 615.06 C 633.841 598.717 625.452 586.786 610.956 590.991" stroke="none" fill="#202027" fill-rule="evenodd" style="">
    <bx:title>black</bx:title>
  </path>
</svg>