<svg xmlns="http://www.w3.org/2000/svg" width="1164" height="1164" viewBox="0 0 1164 1164" version="1.1" xmlns:bx="https://boxy-svg.com">
  <path d="M 556.385 330.688 C 551.191 347.469 530.807 350.573 515.38 334.199 C 500.228 318.118 406.864 353.832 357.931 392.83 C 117.391 584.525 321.1 964.029 623.746 888.034 C 630.812 886.259 643.786 883.788 652.579 882.542 C 663.423 881.005 672.59 878.928 681.078 876.083 C 687.96 873.775 699.221 870.324 706.102 868.412 C 729.123 862.018 783.824 838.455 802.395 826.932 C 805.387 825.076 812.666 820.875 818.571 817.598 C 849.611 800.371 877.371 779.06 897.483 757.017 C 905.717 747.992 914.62 738.403 917.268 735.71 C 936.238 716.4 953.016 695.788 965.6 676.33 C 971.975 666.472 973.562 662.935 980.862 642.325 C 981.219 641.32 982.779 642.084 986 644.845 C 1011.32 666.55 1077.45 664.042 1113.74 640 C 1150.17 615.874 1164.63 588.855 1158.36 556.661 C 1157.42 551.911 1156.37 544.842 1155.99 540.952 C 1154.44 524.857 1143.11 496.91 1133.92 486.503 C 1112.71 462.479 1057.46 471.194 1016.4 505.04 C 1011.35 509.204 1011.17 509.173 1010.34 503.976 C 1008.25 490.918 990.317 454.159 981.453 444.769 C 955.764 417.556 927.582 417.058 893.118 443.212 C 861.055 467.543 858.22 514.7 886.591 551.808 C 892.622 559.696 892.654 560.537 886.926 560.538 C 881.193 560.54 846.83 566.627 841.121 568.652 C 838.486 569.587 836.246 570.225 836.145 570.069 C 836.044 569.912 834.858 564.4 833.509 557.817 C 814.368 464.404 741.483 381.104 649.465 347.475 C 613.674 334.396 558.326 324.414 556.385 330.688" stroke="none" fill="#4c6484" fill-rule="evenodd" style="">
    <bx:title>body</bx:title>
  </path>
  <path d="M 632.733 164.474 C 597.072 166.91 574.478 171.183 560.921 178.052 C 550.749 183.206 508.082 182.93 478.095 177.516 C 423.376 167.637 407.884 170.543 403.534 191.5 C 397.517 220.478 421.242 236.204 471.318 236.435 C 481.279 236.479 497.848 238.13 502.193 239.508 C 505.023 240.406 506.457 261.725 505.933 295.138 C 505.418 327.854 506.16 331.609 514.638 339.233 C 530.891 353.846 552.729 355.308 559.488 342.236 C 561.351 338.637 561.537 336.759 561.067 326.354 C 560.959 323.983 561.85 314.556 563.044 305.407 C 564.742 292.407 565.057 284.037 564.487 267.092 C 563.76 245.412 563.76 245.412 583.151 239.576 C 637.617 223.189 648.109 218.653 660.81 206.001 C 684.976 181.927 671.391 161.832 632.733 164.474 M 366.764 604.918 C 325.036 613.123 330.041 672.422 372.475 672.57 C 407.306 672.691 415.139 612.184 381.232 604.913 C 374.38 603.443 374.272 603.443 366.764 604.918" stroke="none" fill="#fbfbeb" fill-rule="evenodd" style="">
    <bx:title>white</bx:title>
  </path>
</svg>