<svg xmlns="http://www.w3.org/2000/svg" width="1164" height="1164" viewBox="0 0 1164 1164" version="1.1" xmlns:bx="https://boxy-svg.com">
  <path d="M 575 254.596 C 526.99 258.718 492.31 266.529 453 282.073 C 441.527 286.609 408.931 302.876 401.5 307.772 C 398.2 309.947 390.775 314.775 385 318.501 C 363.143 332.603 361.796 333.9 345.967 356.053 C 339.462 365.157 329.609 377.654 324.07 383.824 C 312.787 396.391 312.895 396.09 316.926 403.86 C 321.065 411.839 313.427 410.508 315.201 416.481 C 316.031 419.274 287.243 425.422 279.591 416.541 C 276.274 412.691 227.78 377.752 229.099 374.646 C 245.863 335.182 203.766 351.68 181.43 347.086 C 176.18 346.006 155.482 372.044 158.859 384.497 C 162.208 396.845 172.012 428.436 185.189 444.455 C 202.276 465.227 158.129 537.413 105.951 527.763 C 93.266 525.417 72.449 530.497 71.234 533.663 C 70.495 535.589 68.29 569.732 70.309 572.814 C 76.957 582.961 117.055 604.445 159.716 606.071 C 180.349 606.858 196.475 672.131 180.786 680.128 C 168.873 686.201 130.114 720.527 126.384 723.324 C 94.108 747.524 154.353 781.447 189.481 757.564 C 191.853 755.951 244.78 732.134 257.5 723.595 C 266.827 717.334 323.072 740.215 299.998 759.1 C 289.989 767.292 289.989 767.292 294.484 775.396 C 296.956 779.853 302.648 790.878 307.133 799.896 C 323.569 832.941 366.38 868.451 422.5 895.589 C 591.502 977.313 804.2 918.818 901.895 763.748 C 909.23 752.105 936.448 700.184 940.431 702.667 C 942.906 704.21 957.093 714.472 961.724 718.161 C 977.935 731.077 1014.685 720.922 1030.515 713.434 C 1044.044 707.033 1036.236 675.654 1005.206 658.882 C 999.501 655.799 968.477 625.984 965.064 624.059 C 929.824 604.186 981.676 597.416 996.304 595.66 C 1006.091 594.485 1079.12 583.626 1090.614 580.183 C 1098.382 577.855 1110.801 543.474 1109.139 536.856 C 1103.825 515.681 1055.363 488.926 996.972 497.227 C 981.755 499.391 935.05 482.212 947.711 469.422 C 954.341 462.725 984.607 420.389 990.657 413.446 C 1011.038 390.059 1008.523 368.09 1000.844 362.233 C 989.721 353.749 956.279 343.799 911.568 380.794 C 894.648 394.794 829.681 417.485 855.407 382.038 C 864.613 369.353 864.761 371.972 854.08 358.637 C 802.323 294.022 673.81 246.112 575 254.596" stroke="none" fill="#fba373" fill-rule="evenodd">
    <bx:title>head</bx:title>
  </path>
  <path d="M 976.500 296.406 C 937.788 305.243, 882.826 342.651, 859.556 376 C 840.553 403.235, 836.998 409.688, 833.898 422.582 C 830.588 436.350, 833.853 448.146, 842.772 454.651 C 844.823 456.146, 848.975 459.737, 852 462.630 C 863.448 473.579, 873.295 470.927, 876.507 456.030 C 878.575 446.440, 897.040 423.500, 913.960 409.500 C 958.671 372.505, 981.348 360.926, 992.471 369.410 C 1000.150 375.267, 997.881 380.490, 977.500 403.877 C 971.450 410.820, 962.024 421.900, 956.554 428.500 C 951.084 435.100, 941.184 445.980, 934.554 452.677 C 921.893 465.467, 915.663 472.388, 907.458 482.780 C 904.731 486.234, 900.836 491.160, 898.802 493.728 C 888.296 506.991, 893.320 528.940, 907.781 532.956 C 912.829 534.358, 920.826 534.262, 939.089 532.582 C 947.565 531.803, 958.100 530.873, 962.500 530.516 C 966.900 530.159, 982.951 528.097, 998.168 525.933 C 1056.559 517.632, 1094.256 525.250, 1099.570 546.425 C 1101.232 553.043, 1090.009 569.482, 1082.241 571.810 C 1070.747 575.253, 1054.568 577.001, 1033.651 577.057 C 1019.851 577.095, 1007.287 577.740, 997.500 578.915 C 982.872 580.671, 982.128 580.667, 967.500 578.775 C 921.685 572.849, 902.993 578.648, 903.005 598.785 C 903.014 613.439, 911.883 622.127, 947.123 642 C 950.536 643.925, 958.093 648.595, 963.915 652.378 C 969.737 656.161, 979.167 661.779, 984.872 664.862 C 1015.902 681.634, 1033.279 704.641, 1019.750 711.042 C 1003.920 718.530, 979.131 714.332, 962.920 701.416 C 958.289 697.727, 952.475 693.445, 950 691.902 C 946.017 689.419, 921.337 665.010, 904.417 646.820 C 894.652 636.321, 890.698 634.487, 878 634.563 C 843.937 634.765, 838.423 657.449, 862.945 696.500 C 866.053 701.450, 870.589 708.875, 873.025 713 C 907.723 771.765, 974.553 797.386, 1021.277 769.837 C 1023.927 768.274, 1030.634 765.416, 1036.183 763.485 C 1083.393 747.052, 1090.663 706.508, 1056.012 652.897 C 1050.906 644.997, 1050.744 645.493, 1059.250 642.937 C 1126.788 622.642, 1159.942 589.901, 1159.985 543.458 C 1160.023 502.926, 1158.372 499.119, 1132.853 480.895 C 1107.734 462.956, 1110.577 463.597, 1046.500 461.436 C 1020.310 460.553, 1021.308 462.392, 1037.037 444 C 1064.058 412.402, 1069.939 393.017, 1062.955 358.561 C 1057.575 332.021, 1055 328.491, 1028.618 311.500 C 1025.202 309.300, 1020.139 305.828, 1017.366 303.784 C 1006.461 295.745, 991.348 293.017, 976.500 296.406 M 194.500 304.116 C 156.471 309.641, 127.623 336.106, 131.458 361.949 C 131.830 364.452, 132.490 374.375, 132.926 384 C 133.848 404.383, 148.615 440.846, 166.945 468 C 176.568 482.257, 179.222 486.873, 177.008 485.505 C 176.462 485.167, 160.374 484.442, 141.258 483.893 C 122.141 483.345, 101.195 482.645, 94.710 482.339 C 33.610 479.452, -15.763 545.948, 12.221 593.434 C 30.481 624.418, 70.444 642.543, 132.155 647.829 C 139.991 648.500, 139.991 648.500, 130.274 655 C 90.615 681.532, 76.763 700.375, 76.977 727.500 C 77.030 734.100, 76.776 743.775, 76.414 749 C 72.771 801.534, 140.058 830.940, 207.907 806.465 C 211.794 805.063, 218.018 803.099, 221.737 802.100 C 231.098 799.587, 249.679 791.596, 254.500 788.010 C 256.700 786.374, 261.425 783.393, 265 781.385 C 268.575 779.378, 275.550 775.453, 280.500 772.663 C 312.408 754.676, 335.007 725.483, 335.260 701.925 C 335.438 685.249, 311.568 673.294, 298.636 683.583 C 296.361 685.393, 292.025 688.052, 289 689.493 C 282.198 692.732, 266.827 701.785, 257.500 708.046 C 244.780 716.585, 233.863 723.174, 228.142 725.764 C 225.039 727.169, 220.559 729.637, 218.187 731.250 C 183.059 755.133, 114.442 747.524, 146.718 723.324 C 150.448 720.527, 156.505 715.573, 160.178 712.314 C 165.052 707.990, 171.265 704.142, 183.178 698.069 C 198.867 690.072, 209.580 683.929, 225.583 673.755 C 229.687 671.146, 235.345 667.845, 238.156 666.421 C 252.762 659.019, 259.963 646.662, 259.992 628.946 C 260.012 617.180, 246.629 602.205, 231.417 596.971 C 228.504 595.969, 224.813 594.182, 223.214 593 C 221.615 591.818, 218.325 590.607, 215.904 590.310 C 213.482 590.012, 205.650 587.965, 198.500 585.761 C 185.727 581.824, 185.133 581.740, 164.500 580.953 C 121.839 579.327, 82.197 569.862, 75.549 559.715 C 73.530 556.633, 70.495 544.759, 71.234 542.833 C 72.449 539.667, 91.956 538.516, 104.641 540.862 C 156.819 550.512, 176.490 553.602, 191.026 554.433 C 196.815 554.764, 207.543 555.926, 214.866 557.017 C 239.091 560.625, 243.141 559.869, 253.660 549.776 C 271.802 532.370, 270.870 513.201, 250.923 493.479 C 246.015 488.627, 239.187 480.607, 235.750 475.657 C 226.318 462.076, 207.516 437.718, 190.429 416.946 C 177.252 400.927, 177.927 402.085, 174.578 389.737 C 171.201 377.284, 172.257 370.862, 177.500 371.975 C 199.745 376.698, 209.414 380.329, 216 386.435 C 218.475 388.729, 224.100 393.020, 228.500 395.970 C 237.783 402.194, 247.024 411.226, 255.664 422.518 C 259.023 426.908, 264.485 433.650, 267.802 437.500 C 275.454 446.381, 282.939 457.278, 291.842 472.500 C 304.895 494.816, 316.209 503.097, 326 497.500 C 327.375 496.714, 330.120 496.055, 332.100 496.035 C 351.893 495.841, 352.675 469.993, 333.744 441.706 C 331.611 438.520, 329.188 433.627, 328.358 430.834 C 324.423 417.583, 313.259 395.139, 304.831 383.534 C 301.349 378.739, 296.407 371.927, 293.850 368.396 C 256.976 317.494, 228.634 299.156, 194.500 304.116" stroke="none" fill="#e40444" fill-rule="evenodd" style="">
    <bx:title>gills</bx:title>
  </path>
  <path d="M 741.636 567.579 C 729.195 567.111 711.272 568.825 712.589 605.226 C 713.774 637.978 759.796 648.922 774.987 617.557 C 790.276 585.986 769.743 559.492 741.636 567.579 M 418.726 569.815 C 404.711 576.81 400.231 584.72 400.231 602.473 C 400.231 636.048 428.368 649.86 454.651 629.186 C 460.789 624.357 467.287 608.053 467.287 597.48 C 467.287 588.085 458.683 578.683 448.055 573.024 C 438.286 567.823 426.806 565.782 418.726 569.815 M 540.421 679.156 C 521.458 684.261 512.903 704.062 524.238 716.608 C 541.317 735.514 635.821 734.821 645.066 715.723 C 655.306 694.571 640.427 683.364 600.252 681.971 C 586.698 681.501 570.449 680.325 564.145 679.356 C 550.539 677.268 547.531 677.243 540.421 679.156" stroke="none" fill="#191920" fill-rule="evenodd" style="">
    <bx:title>eyes</bx:title>
  </path>
</svg>