<svg xmlns="http://www.w3.org/2000/svg" width="1164" height="1164" viewBox="0 0 1164 1164" version="1.1" xmlns:bx="https://boxy-svg.com">
  <path d="M 524.459 190.127 C 442.565 200.667 338.86 251.955 278.776 318.211 C 268.034 330.058 268.562 329.97 257.738 321.674 C 231.715 301.728 212.803 311.005 197.218 351.356 C 195.066 356.926 191.144 366.298 188.499 372.18 C 185.856 378.064 181.003 389.681 177.717 397.995 C 174.43 406.312 169.542 417.798 166.853 423.523 C 153.378 452.217 147.793 467.252 138.57 499.663 C 134.969 512.316 131.359 524.641 130.547 527.052 C 129.735 529.461 126.509 542.279 123.378 555.535 C 120.246 568.791 113.523 596.398 108.436 616.885 C 95.524 668.898 82.839 728.779 75.132 774.095 C 74.467 778.011 73.006 786.145 71.888 792.172 C 70.769 798.197 69.528 805.592 69.13 808.605 C 68.731 811.617 66.479 823.776 64.124 835.625 C 57.412 869.386 59.103 875.775 78.639 890.453 C 100.224 906.673 161.031 918.565 192.17 912.658 C 221.982 907.003 271.667 878.435 295.732 853.111 C 302.907 845.56 303.012 845.516 305.892 848.731 C 325.765 870.921 391.436 912.605 400.051 908.497 C 404.106 906.563 743.627 889.921 750.837 895.596 C 758.632 901.73 785.982 885.043 824.981 850.358 C 833.404 842.867 830.978 842.104 846.149 857.009 C 852.067 862.823 856.704 866.418 859.346 867.236 C 861.585 867.931 868.886 871.158 875.569 874.407 C 887.573 880.244 891.843 881.905 916.55 890.343 C 979.749 911.928 1017.73 908.97 1043.08 880.49 C 1057.75 863.998 1065.33 832.938 1059.55 812.987 C 1056.12 801.154 1051.74 773.356 1049.63 749.993 C 1047.97 731.535 1046.96 724.471 1041.26 690.834 C 1039.47 680.29 1037.55 668.951 1036.99 665.636 C 1036.42 662.323 1034.98 656.406 1033.78 652.49 C 1032.57 648.574 1030.57 638.467 1029.33 630.032 C 1024.12 594.604 1016.93 567.399 1004.43 535.815 C 1002.04 529.79 996.731 515 992.631 502.95 C 987.001 486.418 982.578 475.929 974.593 460.224 C 968.772 448.775 963.369 437.436 962.589 435.026 C 957.977 420.8 937.436 378.58 930.014 368.069 C 928.786 366.332 926.182 361.707 924.225 357.79 C 904.39 318.1 884.252 306.644 864.618 323.882 C 860.86 327.184 860.86 327.184 838.585 304.926 C 774.297 240.695 679.716 195.981 592.692 186.389" stroke="none" fill="#5b5b5b" fill-rule="evenodd" style="">
    <bx:title>body</bx:title>
  </path>
  <path d="M 502.984 469.739 C 501.463 468.112 468.959 478.453 448.826 486.969 C 407.335 504.519 346.443 549.102 349.533 559.666 C 367.005 619.403 361.952 722.121 339.363 766.369 C 313.429 817.169 315.221 810.612 323.473 824.498 C 344.732 860.266 397.175 909.989 408.907 905.499 C 413.147 903.877 429.652 918.613 434.783 920.277 C 446.547 924.09 456.798 915.306 479.047 934.662 C 499.584 952.529 574.747 955.808 633.33 941.393 C 643.167 938.973 692.277 920.719 699.693 918.196 C 721.557 910.757 729.778 884.191 737.941 888.013 C 748.842 893.12 788.188 853.414 808.446 816.865 C 812.606 809.359 811.974 806.995 799.311 782.663 C 781.859 749.131 765.725 680.031 766.741 643.178 C 767.268 624.038 774.832 579.062 780.688 560.246 C 787.387 538.717 706.512 486.541 642.666 471.206" stroke="none" fill="#f9edd0" fill-rule="evenodd" style="">
    <bx:title>white</bx:title>
  </path>
  <path d="M 541.877 438.512 C 495.422 443.318 491.327 447.795 506.934 476.713 C 531.992 523.141 550.08 541.264 571.358 541.263 C 583.748 541.263 588.058 537.983 595.862 522.614 C 597.376 519.632 603.386 510.536 609.217 502.401 C 615.048 494.267 621.54 483.915 623.641 479.395 C 625.744 474.876 627.98 470.236 628.611 469.084 C 641.873 444.901 605.17 431.964 541.877 438.512 M 723.736 885.567 C 704.287 888.286 686.492 891.829 682.775 893.722 C 661.546 904.529 654.653 909.489 649.179 917.889 C 645.165 924.047 644.885 925.097 643.267 940.041 C 642.274 949.202 650.513 967.806 659.461 976.608 C 674.127 991.035 687.154 982.349 688.978 956.926 C 689.888 944.246 690.871 944.324 697.555 957.594 C 716.653 995.519 747.194 986.975 737.683 946.368 C 736.801 942.603 736.201 939.521 736.348 939.521 C 736.495 939.521 738.384 940.26 740.548 941.164 C 767.811 952.556 776.742 914.904 751.257 896.015 C 740.356 887.935 731.323 884.507 723.736 885.567 M 414.246 904.763 C 405.369 905.957 404.946 906.058 400.553 908.017 C 398.444 908.957 393.277 911.11 389.071 912.803 C 379.299 916.735 374.264 921.337 370.338 929.922 C 358.985 954.755 375.888 968.786 402.027 956.228 C 407.357 953.668 411.927 951.572 412.183 951.572 C 412.439 951.572 411.604 953.619 410.328 956.119 C 401.466 973.49 408.479 999.273 422.692 1001.58 C 431.182 1002.96 436.81 998.326 445.739 982.612 C 447.393 979.7 449.223 976.577 449.804 975.674 C 450.385 974.77 451.817 971.812 452.986 969.1 C 455.111 964.17 455.111 964.17 457.097 969.1 C 468.387 997.107 492.313 1006.98 502.163 987.703 C 507.069 978.104 505.392 969.738 495.412 953.995 C 491.068 947.145 488.877 942.727 489.663 942.405 C 490.363 942.119 490.084 941.846 489.045 941.799 C 488.006 941.752 483.613 938.631 479.283 934.865 C 446.861 906.668 436.324 901.792 414.246 904.763" stroke="none" fill="#e98f13" fill-rule="evenodd" style="">
    <bx:title>orange</bx:title>
  </path>
  <path d="M 394.245 409.758 C 355.934 423.438 348.43 484.152 384.134 491.566 C 418.085 498.613 448.78 464.749 438.76 431.301 C 433.632 414.189 411.642 403.545 394.245 409.758 M 714.353 411.883 C 695.587 421.585 692.57 472.838 709.954 486.598 C 715.148 490.708 731.786 495.203 741.817 495.206 C 765.794 495.211 789.683 455.23 778.95 433.058 C 769.863 414.287 733.045 402.22 714.353 411.883" stroke="none" fill="#191920" fill-rule="evenodd" style="">
    <bx:title>eyes</bx:title>
  </path>
</svg>