<svg xmlns="http://www.w3.org/2000/svg" width="1164" height="1164" viewBox="0 0 1164 1164" version="1.1" xmlns:bx="https://boxy-svg.com">
  <path d="M 555.888 219.368 C 489.761 226.025 441.703 241.049 383.473 273.271 C 378.766 275.877 378.766 275.877 369.317 265.873 C 351.383 246.882 331.389 237.12 302.741 233.364 C 295.852 232.461 288.49 231.266 286.383 230.708 C 277.366 228.324 258.097 228.527 240.623 231.191 C 239.126 231.419 235.085 231.913 231.643 232.286 C 216.429 233.941 198.498 240.743 193.883 246.611 C 191.334 249.853 191.268 250.102 189.525 263.354 C 188.855 268.445 187.988 274.326 187.595 276.422 C 186.131 284.267 186.94 336.462 188.727 349.385 C 189.678 356.273 190.745 364.113 191.099 366.809 C 194.684 394.188 209.744 434.364 221.746 448.568 C 222.983 450.032 222.545 451.793 218.819 460.386 C 212.643 474.624 203.465 502.951 199.209 520.902 C 195.7 535.706 195.386 536.449 188.354 546.493 C 163.365 582.193 150.244 622.456 143.288 684.796 C 137.137 739.915 140.937 777.388 158.579 835.622 C 192.594 947.891 211.764 983.853 247.096 1001.67 C 274.814 1015.64 297.254 992.591 297.249 950.144 C 297.249 939.077 297.249 939.077 311.84 939.454 C 331.674 939.965 338.68 936.113 347.287 919.964 C 351.414 912.22 383.724 947.112 383.724 949.297 C 383.724 974.658 695.116 967.099 721.237 967.099 C 733.395 967.099 814.339 934.721 815.037 940.711 C 819.155 976.085 849.353 980.055 881.498 949.45 C 886.29 944.887 894.251 937.575 899.19 933.198 C 914.523 919.613 932.29 889.428 959.83 830.177 C 979.376 788.125 991.959 746.697 998.527 702.764 C 999.781 694.38 1001.58 682.373 1002.53 676.084 C 1004.76 661.197 1004.1 612.473 1001.48 599.854 C 993.722 562.415 981.284 536.171 961.478 515.457 C 954.189 507.834 954.189 507.834 950.827 494.766 C 948.978 487.579 945.731 476.579 943.613 470.322 C 941.493 464.065 939.76 458.851 939.76 458.735 C 939.76 458.619 942.332 455.898 945.477 452.687 C 971.436 426.184 998.004 363.651 998.387 328.149 C 998.802 289.805 983.303 253.962 962.078 244.173 C 946.114 236.809 910.904 233.256 892.933 237.194 C 858.156 244.815 831.514 256.985 803.628 277.987 C 798.721 281.683 798.721 281.683 786.205 274.048 C 762.401 259.531 732.942 246.106 705.081 237.08 C 684.827 230.52 669.463 226.93 642.847 222.543 C 641.559 222.33 637.639 221.827 634.135 221.426 C 630.629 221.024 626.537 220.453 625.039 220.159 C 621.55 219.473 561.656 218.788 555.888 219.368" stroke="none" fill="#62625b" fill-rule="evenodd" style="">
    <bx:title>body</bx:title>
  </path>
  <path d="M 737.206 351.718 C 697.796 354.028 671.124 370.289 645.855 407.41 C 632.07 427.661 626.193 489.14 636.201 508.392 C 640.617 516.886 640.839 517.769 641.03 527.639 C 641.272 540.064 643.979 545.661 655.401 557.351 C 659.222 561.263 666.293 568.814 671.113 574.131 C 690.79 595.842 714.007 608.519 752.254 618.439 C 784.081 626.692 810.012 617.535 840.18 587.387 C 846.803 580.768 855.325 572.412 859.117 568.818 C 872.82 555.832 879.016 544.883 880.446 531.123 C 880.844 527.299 882.398 520.249 883.899 515.457 C 889.435 497.78 888.438 479.232 879.974 442.495 C 868.465 392.531 839.533 364.766 792.702 358.744 C 785.792 357.855 777.937 356.185 775.247 355.031 C 769.457 352.55 760.064 350.41 755.938 350.633 C 754.32 350.72 745.891 351.208 737.206 351.718 M 365.016 360.838 C 357.065 363.523 349.469 365.723 348.137 365.728 C 342.837 365.744 326.945 370.345 318.474 374.315 C 263.326 400.158 239.977 464.89 262.85 528.525 C 265.003 534.515 267.996 544.192 269.502 550.03 C 278.16 583.59 299.003 604.255 338.633 618.567 C 356.366 624.971 404.755 618.744 421.6 607.89 C 424.742 605.867 427.833 604.211 428.469 604.211 C 438.324 604.211 476.833 573.079 490.232 554.28 C 527.202 502.413 507.549 404.554 453.138 369.591 C 431.306 355.564 392.148 351.673 365.016 360.838 M 600.333 561.131 C 577.146 590.51 551.765 554.427 533.002 561.16 C 520.001 565.826 488.849 580.004 479.841 589.136 C 471.751 597.337 443.09 614.012 437.084 614.012 C 415.699 614.012 385.016 652.804 394.737 667.55 C 406.497 685.388 407.435 710.705 396.903 726.017 C 392.175 732.889 392.025 731.796 398.704 739.094 C 422.91 765.545 417.464 808.912 388.03 824.087 C 385.718 825.28 381.541 827.224 378.749 828.408 C 373.672 830.562 373.672 830.562 375.329 836.213 C 379.118 849.143 375.16 862.394 364.048 873.98 C 354.683 883.744 359.167 917.058 370.324 920.599 C 372.596 921.32 373.191 924.376 371.06 924.376 C 370.329 924.376 370.851 925.163 372.223 926.123 C 373.695 927.153 375.912 927.645 377.638 927.323 C 379.244 927.022 549.622 963.414 556.881 974.907 C 558.877 978.066 558.877 978.066 579.162 977.229 C 613.772 975.801 612.125 976.231 614.792 967.936 C 622.635 943.544 744.957 935.584 750.048 937.397 C 755.514 939.345 762.855 912.593 760.593 905.784 C 759.278 901.822 758.874 898.094 759.253 893.385 C 759.793 886.652 759.793 886.652 755.058 884.141 C 748.122 880.46 742.822 874.813 739.256 867.305 C 737.524 863.655 734.531 858.566 732.605 855.995 C 725.981 847.148 726.805 836.964 735.697 817.818 C 740.296 807.918 740.363 807.62 738.102 807.029 C 709.685 799.599 702.338 755.241 725.353 730.059 C 730.764 724.139 730.764 724.139 727.059 719.285 C 718.592 708.194 717.084 681.355 723.793 661.202 C 727.116 651.219 727.116 651.219 724.229 645.956 C 720.147 638.515 712.86 628.015 709.995 625.446 C 708.658 624.248 705.11 620.185 702.109 616.416 C 699.109 612.647 691.443 605.334 685.077 600.166 C 678.709 594.997 671.784 589.167 669.688 587.211 C 664.605 582.471 646.077 574.234 633.078 570.936" stroke="none" fill="#e7c8a4" fill-rule="evenodd" style="">
    <bx:title>belly</bx:title>
  </path>
  <path d="M 742.651 390.24 C 721.543 394.553 701.528 408.627 691.568 426.16 C 678.855 448.54 680.349 451.998 680.41 457.462 C 680.928 503.298 680.66 523.905 683.994 530.475 C 709.741 581.198 847.597 502.426 847.604 463.73 C 847.608 445.724 836.027 425.98 819.527 405.037 C 793.225 371.655 746.544 389.445 742.651 390.24 M 380.518 397.263 C 358.477 399.787 325.164 435.839 316.881 466.127 C 305.939 506.132 321.566 549.357 352.031 563.359 C 404.72 587.573 450.849 572.416 468.894 524.961 C 472.334 515.914 477.197 462.742 476.46 458.812 C 467.486 410.976 436.174 390.889 380.518 397.263" stroke="none" fill="#fffaea" fill-rule="evenodd" style="">
    <bx:title>cream</bx:title>
  </path>
  <path d="M 442.848 453.274 C 419.888 459.285 411.666 468.401 411.693 487.809 C 411.751 527.885 464.291 539.465 481.997 503.303 C 498.124 470.372 477.617 444.17 442.848 453.274 M 687.79 453.044 C 661.257 464.086 654.12 500.657 675.37 516.7 C 703.637 538.043 738.96 521.119 738.96 486.231 C 738.96 461.469 711.047 443.366 687.79 453.044" stroke="none" fill="#191920" fill-rule="evenodd" style="">
    <bx:title>eyes</bx:title>
  </path>
  <path d="M 547.721 492.578 C 503.513 497.945 494.838 520.801 523.435 556.562 C 562.925 605.942 583.302 610.722 610.019 576.872 C 613.751 572.143 617.513 568.273 618.38 568.273 C 619.248 568.273 619.636 567.954 619.246 567.561 C 618.854 567.17 621.145 563.862 624.337 560.21 C 644.671 536.947 646.728 519.724 631.481 500.342 C 624.856 491.918 584.201 488.151 547.721 492.578 M 718.149 910.225 C 715.753 910.698 709.627 911.657 704.536 912.356 C 692.567 913.997 684.164 916.097 674.044 919.975 C 669.552 921.696 662.982 923.403 659.442 923.771 C 632.417 926.566 603.001 970.111 615.554 988.736 C 621.628 997.752 634.791 1002.45 644.328 999.009 C 647.196 997.975 652.727 996.752 656.62 996.293 C 660.513 995.835 667.695 994.583 672.58 993.513 C 682.877 991.257 685.148 992.393 694.815 1004.64 C 717.905 1033.9 746.587 1033.16 745.776 1003.33 C 745.573 995.897 745.98 993.598 748.544 987.686 C 750.516 983.138 751.759 978 752.156 972.736 C 752.658 966.107 753.124 964.602 754.843 964.057 C 771.006 958.926 780.521 933.685 770.458 922.636 C 767.785 919.7 765.032 915.956 764.343 914.317 C 763.653 912.676 762.746 911.548 762.327 911.806 C 761.908 912.066 759.637 911.591 757.281 910.752 C 752.549 909.066 725.827 908.706 718.149 910.225 M 402.339 923.249 C 397.547 923.718 390.932 924.653 387.637 925.329 C 384.343 926.004 379.303 927.034 376.436 927.619 C 344.586 934.11 350.643 968.208 386.751 985.682 C 396.211 990.26 396.211 990.26 396.28 1002.36 C 396.617 1060.98 438.414 1073.51 462.17 1022.12 C 468.588 1008.23 468.588 1008.23 476.635 1008.23 C 481.062 1008.23 486.812 1007.69 489.413 1007.04 C 493.142 1006.1 495.92 1006.21 502.536 1007.58 C 512.42 1009.63 537.921 1009.94 543.475 1008.08 C 555.293 1004.13 563.607 984.313 557.249 975.243 C 547.562 961.423 540.959 955.117 523.602 943.102 C 502.32 928.369 500.362 927.481 486.929 926.461 C 480.534 925.976 473.342 925.012 470.946 924.318 C 465.696 922.8 414.999 922.009 402.339 923.249" stroke="none" fill="#e98f13" fill-rule="evenodd" style="">
    <bx:title>orange</bx:title>
  </path>
</svg>