<svg xmlns="http://www.w3.org/2000/svg" width="1164" height="1164" viewBox="0 0 1164 1164" version="1.1" xmlns:bx="https://boxy-svg.com">
  <defs>
    <bx:export>
      <bx:file format="svg" excluded="true"></bx:file>
    </bx:export>
  </defs>
  <path d="M 151.032 255.262 C 149.802 255.556 145.278 256.609 140.975 257.603 C 104.678 266.006 67.631 293.202 60.108 316.969 C 48.115 354.86 53.824 392.252 75.4 417.127 C 79.508 421.865 85.773 429.333 89.326 433.726 C 109.935 459.213 125.255 471.242 148.885 480.502 C 168.785 488.299 174.423 489.946 186.79 491.576 C 192.32 492.305 202.554 493.887 209.529 495.092 C 216.504 496.298 224.613 497.285 227.547 497.285 C 240.195 497.285 240.062 497.051 235.798 511.491 C 229.887 531.516 225.632 548.929 224.362 558.294 C 223.722 563.013 222.372 570.498 221.364 574.927 C 219.974 581.028 207.297 613.293 207.12 643.367 C 206.616 728.792 207.428 743.385 215.389 775.067 C 226.508 819.314 234.36 848.641 257.449 886.81 C 287.6 936.656 329.295 963.964 362.548 985.335 C 408.084 1014.6 421.394 1024.28 486.31 1034.27 C 543.055 1043.02 585.302 1041.21 611.975 1039.19 C 647.988 1036.48 666.832 1032.96 707.884 1024.07 C 717.993 1021.89 784.928 1005.05 829.592 964.443 C 831.599 962.618 885.99 928.396 925.495 862.038 C 933.908 847.909 943.71 827.254 953.917 805.548 C 964.491 783.062 965.558 776.561 977.431 741.289 C 988.477 708.468 986.826 701.352 988.54 677.298 C 989.26 667.176 992.745 628.63 980.182 570.325 C 967.618 512.019 966.628 521.211 965.737 517.415 C 963.807 509.211 963.379 509.71 974.584 507.151 C 999.005 501.578 1028.64 488.508 1045.71 475.784 C 1064.15 462.018 1068.74 458.352 1074.96 452.426 C 1094.07 434.184 1112.68 389.826 1112.55 362.895 C 1112.47 346.311 1107.22 328.37 1099.81 319.292 C 1098.38 317.549 1095.36 312.5 1093.08 308.072 C 1064.48 252.521 989.017 247.343 918.158 296.068 C 899.514 308.887 889.581 317.813 881.324 329.162 C 872.501 341.286 820.363 301.314 720.366 286.793 C 694.817 283.082 651.964 269.292 591.396 272.538 C 562.536 274.082 555.147 275.656 536.127 278.804 C 509.942 283.14 440.589 302.542 441.727 302.542 C 446.691 302.542 389.959 314.697 335.327 330.505 C 325.424 333.37 289.036 349.439 290.515 345.521 C 296.565 329.472 253.214 279.565 219.613 263.895 C 203.865 256.551 165.796 251.759 151.032 255.262" stroke="none" fill="#ab662e" fill-rule="evenodd" style="">
    <bx:title>head</bx:title>
  </path>
  <path d="M 776.632 164.797 C 756.575 173.65 713.816 283.143 723.153 301.733 C 726.434 308.264 742.646 315.294 758.994 317.27 C 766.327 318.158 775.083 319.494 778.451 320.243 C 795.85 324.109 815.749 317.3 818.67 306.477 C 819.945 301.762 815.535 259.647 811.37 236.759 C 809.874 228.533 807.855 216.629 806.885 210.303 C 802.373 180.892 799.442 171.888 792.788 167.014 C 789.026 164.255 780.505 163.088 776.632 164.797 M 387.805 172.811 C 375.879 180.297 374.62 188.163 374.621 255.16 C 374.623 320.568 374.786 321.3 389.432 321.3 C 391.22 321.3 393.337 322.11 394.136 323.1 C 398.712 328.776 411.596 329.9 416.712 325.069 C 418.091 323.767 421.982 322.112 425.363 321.394 C 451.967 315.734 469.135 298.906 462.099 285.377 C 461.41 284.049 460.891 280.626 460.946 277.771 C 461.065 271.692 456.955 258.702 451.061 246.533 C 448.764 241.788 444.217 231.437 440.96 223.53 C 423.342 180.769 404.206 162.515 387.805 172.811 M 558.689 680.164 C 431.724 691.183 354.745 766.257 391.794 842.929 C 447.673 958.571 711.488 969.54 783.682 859.225 C 843.542 767.756 716.297 666.487 558.689 680.164 M 655.561 786.858 C 642.73 793.468 641.759 833.923 654.254 841.492 C 668.607 850.189 678.455 838.605 678.459 813.025 C 678.463 788.805 670.174 779.333 655.561 786.858 M 503.025 787.608 C 487.77 794.538 486.655 844.779 501.585 852.492 C 516.09 859.985 521.958 851.671 523.589 821.331 C 525.199 791.402 518.576 780.541 503.025 787.608" stroke="none" fill="#f0e4c9" fill-rule="evenodd" style=""></path>
  <path d="M 649.41 266.168 C 644.493 266.731 631.167 267.09 619.798 266.967 C 597.716 266.723 592.205 272.218 591.305 272.573 C 584.721 275.174 583.043 296.894 587.322 324.175 C 588.512 331.767 590.069 345.484 590.781 354.656 C 591.987 370.216 594.531 389.227 601.244 432.873 C 605.726 461.999 606.343 473.464 605.604 513.675 C 604.111 595.079 613.505 606.704 681.255 607.288 C 696.314 607.417 712.233 607.879 716.633 608.315 C 733.431 609.977 744.343 601.746 748.703 584.128 C 753.33 565.426 753.87 482.151 749.63 440.348 C 748.408 428.288 747.715 410.647 747.619 389.164 C 747.422 344.179 744.193 351.864 737.522 316.751 C 735.735 307.353 738.322 305.997 726.291 287.376 C 716.293 271.906 688.303 261.719 649.41 266.168 M 491.851 267.79 C 474.913 272.357 462.238 276.935 462.238 278.489 C 462.238 279.408 433.054 295.521 423.542 323.601 C 423.168 324.707 421.962 325.739 421.824 331.938 C 421.463 348.142 422.207 357.84 426.043 386.863 C 428.965 408.965 430.174 423.282 430.955 444.951 C 431.525 460.767 432.288 477.07 432.653 481.181 C 433.018 485.295 433.758 505.482 434.3 526.041 C 435.518 572.311 437.655 584.404 446.167 593.21 C 465.875 613.601 565.194 596.144 577.423 570.137 C 580.406 563.797 579.919 452.754 576.774 421.451 C 575.911 412.866 574.864 390.572 574.451 371.909 C 573.344 322.082 573.81 308.484 553.676 287.537 C 548.292 281.939 539.341 276.915 539.341 276.37 C 539.341 269.397 507.342 263.615 491.851 267.79 M 779.112 304.787 C 754.794 297.837 747.775 326.736 754.175 395.848 C 755.247 407.431 756.124 421.508 756.124 427.131 C 756.124 432.753 757.63 448.167 759.469 461.382 C 761.308 474.599 763.321 493.907 763.94 504.288 C 764.559 514.671 765.56 527.306 766.165 532.367 C 766.769 537.427 767.589 552.957 767.987 566.874 C 769.066 604.699 772.908 610.368 800.068 614.213 C 852.081 621.574 888.591 611.421 896.173 587.489 C 900.749 573.045 900.463 535.794 894.832 413.893 C 893.418 383.28 887.61 360.974 877.535 347.458 C 875.292 344.446 854.134 317.686 854.134 317.686 M 330.248 321.863 C 293.856 329.387 288.213 335.245 288.689 365.009 C 288.804 372.284 288.16 388.551 287.26 401.154 C 284.642 437.715 284.989 525.168 287.815 540.995 C 289 547.637 290.538 559.541 291.233 567.447 C 292.796 585.22 294.318 589.032 302.745 596.282 C 309.958 602.483 309.621 602.366 320.883 602.528 C 325.185 602.589 334.99 603.069 342.673 603.593 C 377.172 605.948 406.366 598.916 406.366 588.25 C 406.366 587.549 409.328 584.005 412.949 580.375 C 422.908 570.392 424.231 558.847 421.022 509.939 C 419.818 491.587 419.674 473.987 420.372 430.573 C 421.531 358.402 421.532 358.627 419.815 351.205 C 416.913 338.654 411.94 331.178 405.808 330.142 C 401.539 329.422 398.7 328.304 395.192 325.962 C 393.654 324.938 383.842 322.381 381.555 321.182 C 375.214 317.851 347.902 318.212 330.248 321.863" stroke="none" fill="#9b5925" fill-rule="evenodd" style="">
    <bx:title>hair</bx:title>
  </path>
  <path d="M 393.609 615.885 C 360.957 626.613 346.117 673.493 368.867 694.049 C 402.908 724.816 447.65 702.832 447.662 655.335 C 447.67 626.876 420.503 607.048 393.609 615.885 M 744.815 620.902 C 717.282 634.139 711.632 670.659 733.123 696.499 C 757.913 726.313 809.92 703.371 810.047 662.563 C 810.145 631.158 772.926 607.389 744.815 620.902" stroke="none" fill="#191920" fill-rule="evenodd" style="">
    <bx:title>eyes</bx:title>
  </path>
</svg>