<svg xmlns="http://www.w3.org/2000/svg" width="1164" height="1164" viewBox="0 0 1164 1164" version="1.1" xmlns:bx="https://boxy-svg.com">
  <path d="M 173.967 147.521 C 143.202 154.016 126.062 188.567 140.146 215.709 C 143.276 221.742 144.171 220.523 131.177 227.906 C 126.304 230.676 126.124 230.696 121.579 229.009 C 93.093 218.432 48.763 235.794 26.089 266.406 C -10.548 315.868 6.699 379.843 53.44 367.869 C 57.171 366.912 60.317 366.259 60.432 366.415 C 64.945 372.611 66.012 385.754 62.589 392.979 C 47.609 424.597 50.316 477.491 68.481 508.159 C 84.719 535.571 117.716 535.116 133.302 507.263 C 133.911 506.176 136.71 506.962 145.649 510.73 C 167.362 519.879 191.895 522.368 219.311 518.205 C 231.121 516.411 230.472 514.768 224.816 532.146 C 157.227 739.836 281.193 952.681 493.871 994.105 C 520.7 999.33 528.503 999.908 575.972 1000.18 C 628.217 1000.49 624.111 1000.99 659.14 989.971 C 724.23 969.501 761.798 951.666 795.088 925.435 C 797.433 923.585 804.631 918.551 811.081 914.246 C 822.519 906.614 825.65 904.218 848.735 885.433 C 854.86 880.449 861.37 875.445 863.2 874.316 C 881.75 862.856 885.643 858.826 889.005 847.603 C 890.182 843.675 892.467 840.262 897.585 834.786 C 926.76 803.566 940.611 773.228 955.997 706.836 C 964.448 670.364 967.587 625.956 963.497 600.744 C 962.591 595.172 961.432 584.856 960.918 577.82 C 959.181 554.038 955.321 533.014 950.337 520.178 C 947.754 513.524 947.509 512.201 948.965 512.759 C 954.17 514.756 972.57 516.544 986.218 516.379 C 1001.42 516.196 1001.42 516.196 1007.78 522.261 C 1031.2 544.594 1078.02 536.331 1095.54 506.776 C 1105.91 489.25 1110.35 443.191 1104.22 416.246 C 1103.65 413.687 1103.94 413.473 1109.88 412.248 C 1133.47 407.376 1147.22 388.009 1148.28 358.171 C 1149.6 320.8 1131.36 298.7 1087.5 284.555 C 1074.88 280.489 1071.74 278.327 1067.14 270.517 C 1066.73 269.809 1068.32 265.366 1070.7 260.642 C 1085.83 230.566 1076.17 205.968 1046.01 197.738 C 1001.75 185.661 969.527 187.717 935.62 204.783 C 922.604 211.332 922.604 211.332 912.128 206.011 C 899.627 199.664 887.831 198.031 878.789 201.395 C 876.15 202.377 870.735 203.846 866.756 204.659 C 835.049 211.137 819.091 248.349 834.076 280.857 C 837.507 288.304 837.507 288.304 834.764 294.448 C 829.335 306.604 827.347 316.47 826.812 333.914 C 826.539 342.856 826.128 350.174 825.9 350.174 C 825.674 350.174 822.603 347.85 819.08 345.011 C 690.255 241.203 491.133 241.751 358.003 346.28 C 350.274 352.349 349.994 352.366 351.041 346.708 C 351.503 344.216 352.225 338.098 352.645 333.113 C 353.41 324.051 353.41 324.051 362.064 314.967 C 399.529 275.642 390.951 207.223 347.186 196.275 C 323.926 190.457 300.08 196.458 292.808 209.959 C 290.443 214.352 291.388 214.234 282.753 211.206 C 275.823 208.775 275.823 208.775 276.167 203.456 C 278.41 168.887 221.17 137.56 173.967 147.521" stroke="none" fill="#c9c9c7" fill-rule="evenodd" style="">
    <bx:title>head</bx:title>
  </path>
  <path d="M 569.042 594.886 C 463.909 614.14 429.607 815.546 516.744 901.96 C 594.346 978.916 698.844 897.549 698.872 760.148 C 698.892 658.667 638.755 582.12 569.042 594.886 M 409.047 600.039 C 375.563 611.056 365.76 646.491 390.839 665.867 C 393.848 668.192 398.385 671.762 400.924 673.805 C 403.46 675.844 406.1 677.511 406.788 677.509 C 407.474 677.507 406.359 676.49 404.305 675.249 C 402.253 674.007 398.376 671.011 395.689 668.589 C 393.004 666.166 389.044 662.845 386.89 661.205 C 373.138 650.738 375.575 625.396 391.741 610.792 C 409.751 594.521 437.502 597.01 444.306 615.505 C 445.093 617.648 445.762 618.683 445.791 617.803 C 446.189 605.479 424.454 594.969 409.047 600.039 M 731.991 603.344 C 723.236 606.083 717.615 610.935 713.143 619.616 C 710.219 625.295 711.193 625.104 714.494 619.352 C 720.793 608.371 731.525 602.192 742.308 603.338 C 746.158 603.748 746.475 603.672 743.907 602.955 C 739.362 601.686 737.055 601.762 731.991 603.344 M 754.6 607.515 C 787.231 623.196 778.668 662.364 740.879 670.291 C 722.962 674.048 711.402 663.099 710.253 641.286 C 709.605 629 709.605 629 709.43 640.495 C 708.851 678.348 756.289 683.847 773.027 647.868 C 781.001 630.726 766.046 603.942 748.5 603.942 C 747.765 603.942 750.512 605.55 754.6 607.515 M 448.078 623.746 C 450.126 627.053 450.806 629.951 451.308 637.529 C 451.942 647.125 451.942 647.125 452.092 638.595 C 452.243 629.92 450.081 622.4 446.863 620.411 C 446.104 619.942 446.65 621.442 448.078 623.746 M 438.748 671.775 C 433.217 677.517 434.222 678.227 439.879 672.571 C 442.391 670.06 445.602 665.515 444.594 665.901 C 444.427 665.966 441.797 668.609 438.748 671.775" stroke="none" fill="#545455" fill-rule="evenodd" style="">
    <bx:title>nose</bx:title>
  </path>
  <path d="M 201.663 276.453 C 168.543 284.225 150.732 305.612 141.962 348.135 C 129.051 410.73 189.831 486.706 239.57 470.15 C 294.363 451.914 325.931 396.6 308.953 348.574 C 289.537 293.643 247.842 265.615 201.663 276.453 M 938.704 285.144 C 886.603 292.412 837.399 352.011 848.454 394.456 C 867.916 469.178 965.703 488.554 1014.79 427.414 C 1060.04 371.05 1008.86 275.357 938.704 285.144" stroke="none" fill="#fffaea" fill-rule="evenodd" style="">
    <bx:title>ears</bx:title>
  </path>
  <path d="M 404.918 595.705 C 371.878 608.064 357.911 647.372 380.427 664.634 C 382.898 666.528 387.973 670.782 391.702 674.084 C 415.612 695.252 442.148 687.856 451.79 657.337 C 457.68 638.692 456.311 629.826 443.838 605.803 C 438.776 596.053 418.233 590.724 404.918 595.705 M 736.599 599.481 C 711.116 608.427 703.351 655.412 724.9 670.26 C 748.322 686.401 787.558 663.777 787.495 634.166 C 787.448 611.853 758.176 591.904 736.599 599.481" stroke="none" fill="#191920" fill-rule="evenodd" style="">
    <bx:title>eyes</bx:title>
  </path>
</svg>