<svg xmlns="http://www.w3.org/2000/svg" width="1164" height="1164" viewBox="0 0 1164 1164" version="1.1" xmlns:bx="https://boxy-svg.com">
  <path d="M 544.108 244.569 C 486.3 248.789 410.233 273.063 358.452 302.294 C 343.765 310.581 201.239 680.097 197.972 689.157 C 189.941 711.431 208.512 757.908 237.152 806.204 C 401.067 1082.59 828.873 1048 938.824 749.434 C 944.917 732.88 953.039 703.929 948.139 695.907 C 935.36 674.989 838.779 304.477 790.082 303.487 C 785.302 303.39 763.403 284.801 748.391 281.523 C 742.938 280.332 733.174 277.135 726.691 274.417 C 671.47 251.272 603.805 240.211 544.108 244.569" stroke="none" fill="#dbb383" fill-rule="evenodd" style="">
    <bx:title>head</bx:title>
  </path>
  <path d="M 179.516 228.012 C 167.462 228.797 163.417 230.595 161.095 236.199 C 160.417 237.84 158.819 239.658 157.545 240.237 C 152.055 242.738 135.721 263.519 120.86 286.909 C 117.743 291.812 113.45 298.424 111.316 301.602 C 103.762 312.858 86.796 345.059 80.572 359.959 C 78.797 364.208 71.933 378.345 65.321 391.374 C 58.708 404.403 50.361 422.48 46.774 431.544 C 43.189 440.609 38.425 452.659 36.19 458.324 C 28.372 478.13 17.932 511.028 12.818 531.969 C 4.008 568.038 4.176 566.39 4.956 609.164 C 5.945 663.386 5.656 662.058 30.587 726.972 C 44.824 764.04 66.762 789.23 98.715 805.195 C 128.262 819.959 169.32 812.336 194.587 787.395 C 209.222 772.949 229.81 734.227 235.652 710.158 C 236.682 705.91 240.894 692.701 245.011 680.804 C 249.126 668.907 253.867 654.77 255.547 649.389 C 258.723 639.211 262.311 630.18 271.622 608.919 C 283.039 582.854 294.186 556.263 299.016 543.566 C 305.577 526.323 308.411 519.396 314.586 505.522 C 317.403 499.19 320.565 491.542 321.614 488.527 C 322.662 485.511 325.457 478.641 327.825 473.259 C 335.442 455.944 341.319 439.421 350.717 408.884 C 359.769 379.478 363.48 368.446 372.541 343.994 C 375.062 337.196 378.328 326.536 379.802 320.305 C 381.275 314.073 383.176 306.827 384.025 304.202 C 389.631 286.878 379.516 266.365 358.789 253.021 C 353.974 249.921 347.364 244.924 344.101 241.916 C 339.859 238.007 337.07 236.282 334.316 235.865 C 328.559 234.99 323.326 233.741 311.925 230.516 C 301.624 227.605 301.624 227.605 274.329 227.997 C 230.898 228.624 202.165 228.596 196.049 227.925 C 192.934 227.583 185.494 227.622 179.516 228.012 M 865.033 241.466 C 836.91 248.888 799.766 272.492 788.815 289.899 C 787.219 292.437 784.869 295.335 783.594 296.339 C 778.341 300.47 779.865 308.748 799.493 382.713 C 803.34 397.208 813.467 426.588 819.697 441.33 C 822.211 447.277 826.895 459.792 830.106 469.14 C 833.316 478.487 838.214 491.132 840.989 497.24 C 847.095 510.68 858.854 545.823 869.153 581.409 C 877.304 609.577 880.043 616.782 894.377 647.765 C 902.661 665.67 908.636 676.739 920.52 696.193 C 922.576 699.559 924.258 702.738 924.258 703.259 C 924.258 705.728 945.3 733.292 953.127 741.077 C 971.612 759.461 998.87 770.835 1028.28 772.44 C 1034.24 772.764 1045.83 773.557 1054.04 774.2 C 1086.87 776.775 1120.3 757.932 1133.27 729.546 C 1156.73 678.26 1163.3 632.967 1153.48 590.164 C 1146.67 560.407 1143.62 549.401 1139.41 539.33 C 1128.92 514.236 1121.09 492.037 1103.32 437.209 C 1098.12 421.167 1093.86 410.381 1087.86 398.07 C 1083.3 388.722 1078.66 378.757 1077.54 375.924 C 1064.25 342.297 1038.79 313.193 985.028 270.182 C 953.345 244.839 900.327 232.152 865.033 241.466 M 577.149 576.333 C 438.811 589.59 346.873 731.743 425.524 807.251 C 526.841 904.52 779.73 853.507 755.692 730.614 C 754.894 726.531 745.307 691.798 744.967 689.396 C 738.493 643.678 650.207 569.333 577.149 576.333" stroke="none" fill="#b36c34" fill-rule="evenodd" style="">
    <bx:title>brown</bx:title>
  </path>
  <path d="M 548.812 615.388 C 543.293 617.153 536 619.046 532.607 619.591 C 512.272 622.866 505.126 637.104 509.179 666.255 C 513.048 694.071 529.191 711.2 561.902 722.19 C 567.056 723.923 571.537 725.604 571.859 725.926 C 572.183 726.249 571.826 734.91 571.07 745.175 C 569.218 770.313 571.767 777.209 582.914 777.209 C 591.696 777.209 595.188 771.249 596.247 754.452 C 597.239 738.727 599.14 725.421 600.448 725.055 C 665.453 706.82 683.505 661.641 640.578 624.615 C 626.372 612.361 574.554 607.151 548.812 615.388" stroke="none" fill="#453123" fill-rule="evenodd" style="">
    <bx:title>nose</bx:title>
  </path>
  <path d="M 750.761 537.101 C 717.872 552.922 729.027 614.896 764.714 614.602 C 790.315 614.39 815.362 578.203 804.558 557.027 C 796.042 540.336 766.661 529.453 750.761 537.101 M 384.499 539.408 C 342.756 560.584 354.766 620.094 400.812 620.246 C 429.033 620.336 447.455 592.646 439.959 561.396 C 435.03 540.855 405.067 528.977 384.499 539.408" stroke="none" fill="#191920" fill-rule="evenodd" style="">
    <bx:title>eyes</bx:title>
  </path>
</svg>