<svg xmlns="http://www.w3.org/2000/svg" viewBox="0 0 1164 1164" width="1164" height="1164" xmlns:bx="https://boxy-svg.com">
  <path d="M 643.283 122.99 C 599.199 128.739 564.65 147.214 529.068 184.064 C 515.051 198.583 515.051 198.583 510.686 193.387 C 478.948 155.6 442.293 147.423 382.414 164.774 C 355.271 172.641 294.202 221.161 303.969 227.102 C 304.384 227.355 187.525 317.724 191.996 319.446 C 207.888 325.562 940.527 332.385 990.096 338.612 C 1009.89 341.1 919.43 216.003 910.494 207.068 C 886.365 182.937 871.98 179.765 807.211 184.293 C 785.165 185.833 765.716 192.176 753.488 201.812 C 748.816 205.494 748.842 205.518 747.623 196.367 C 741.37 149.389 694.359 116.327 643.283 122.99 M 991.183 337.892 C 987.465 348.822 177.934 335.367 166.196 352.652 C 145.331 383.378 145.773 430.621 167.206 460.723 C 169.689 464.208 169.273 464.897 163.604 466.683 C 158.869 468.173 147.036 474.152 138.219 479.51 C 134.792 481.593 127.988 485.565 123.099 488.337 C 64.229 521.719 49.856 582.126 87.488 637.992 C 98.171 653.851 108.169 662.134 140.366 681.793 C 148.466 686.738 154.739 691.108 154.308 691.502 C 153.875 691.896 149.58 694.996 144.763 698.392 C 94.437 733.861 89.46 778.69 126.619 861.79 C 148.181 910.01 199.395 932.789 245.755 914.782 C 247.06 914.275 247.267 916.37 247.267 930.082 C 247.267 951.519 248.841 957.738 263.751 995.242 C 305.144 1099.36 400.192 1111.29 480.024 1022.39 C 485.593 1016.19 490.297 1011.25 490.476 1011.43 C 490.654 1011.61 492.634 1016.46 494.878 1022.2 C 497.121 1027.95 499.848 1034.89 500.935 1037.62 C 506.058 1050.44 526.831 1074.22 541.293 1083.82 C 571.859 1104.08 646.585 1099.37 681.212 1074.98 C 713.247 1052.42 738.828 1023.34 743.837 1003.8 C 745.287 998.141 745.834 997.872 748.283 1001.61 C 773.578 1040.21 833.688 1038.12 897.931 996.405 C 921.602 981.032 944.579 939.189 949.399 902.678 C 950.651 893.193 950.189 841.202 948.814 836.855 C 948.128 834.687 948.285 834.616 952.543 835.2 C 971.896 837.853 1012.01 818.658 1033.16 796.636 C 1077.17 750.795 1074.46 674.65 1026.53 610.633 C 1022.52 605.267 1021.05 607.433 1039.38 591.708 C 1051.1 581.657 1059.25 571.739 1066.32 558.896 C 1068.15 555.569 1072.68 548.255 1076.41 542.64 C 1094.53 515.261 1096.88 468.089 1082.34 423.824 C 1075.08 401.741 1039.84 358.713 1018.35 345.697" stroke="none" fill="#c97409" fill-rule="evenodd" style="">
    <bx:title>mane</bx:title>
  </path>
  <path d="M 879.001 215.749 C 829.122 221.75 791.187 254.748 787.406 295.423 C 787.052 299.239 786.551 302.36 786.293 302.36 C 786.036 302.36 780.771 299.467 774.594 295.931 C 655.635 227.837 504.479 233.791 391.663 311.013 C 383.852 316.362 383.852 316.362 383.852 311.962 C 383.852 276.994 329.735 227.462 289.923 225.99 C 224.163 223.561 169.134 278.794 179.189 337.136 C 179.858 341.017 180.766 348.501 181.209 353.769 C 184.501 392.997 221.287 432.234 252.562 429.875 C 262.203 429.149 280.099 429.103 280.799 429.805 C 280.996 430 277.781 436.9 273.658 445.136 C 156.572 678.975 331.312 947.746 596.539 941.767 C 864.306 935.732 1030.68 653.752 902.281 423.576 C 897.723 415.404 897.015 416.267 915.603 407.342 C 979.786 376.52 998.743 348.775 992.761 294.439 C 987.336 245.212 957.526 216.852 910.531 216.208 C 901.106 216.079 891.807 215.724 889.867 215.42 C 887.927 215.116 883.037 215.264 879.001 215.749 M 580.915 576.194 C 499.896 589.604 454.359 703.236 493.194 795.088 C 545.603 919.044 686.217 877.118 698.374 733.913 C 705.849 645.839 645.963 565.426 580.915 576.194" stroke="none" fill="#e0a862" fill-rule="evenodd" style="">
    <bx:title>head</bx:title>
  </path>
  <path d="M 580.915 576.194 C 499.896 589.604 454.359 703.236 493.194 795.088 C 545.603 919.044 686.217 877.118 698.374 733.913 C 705.849 645.839 645.963 565.426 580.915 576.194 M 573.968 602.883 C 534.284 607.976 519.708 626.764 534.973 653.144 C 553.35 684.9 560.427 694.727 565.904 696.101 C 569.149 696.915 564.805 703.221 541.045 732.185 C 524.403 752.469 521.575 764.819 532.219 770.725 C 543.477 776.973 552.128 770.035 578.651 733.487 C 592.35 714.609 592.928 714.286 598.826 722.192 C 612.824 740.961 640.147 766.956 645.931 767.009 C 666.141 767.191 659.717 749.055 624.343 706.064 C 622.062 703.292 619.603 700.259 618.878 699.322 C 617.714 697.815 618.472 696.949 625.446 691.825 C 652.815 671.719 665.437 647.781 657.271 631.472 C 644.343 605.647 619.325 597.061 573.968 602.883" stroke="none" fill="#f0e9d4" fill-rule="evenodd" style="">
    <bx:title>muzzle</bx:title>
  </path>
  <path d="M 422.548 549.191 C 379.474 566.645 391.068 633.56 436.604 630.301 C 462.195 628.47 476.097 603.014 467.703 573.356 C 462.729 555.787 438.403 542.769 422.548 549.191 M 729.094 553.95 C 706.75 564.449 699.665 599.815 717.037 614.134 C 741.228 634.074 777.45 618.783 780.485 587.351 C 782.671 564.727 750.565 543.861 729.094 553.95" stroke="none" fill="#1e1d24" fill-rule="evenodd" style="">
    <bx:title>eyes</bx:title>
  </path>
</svg>