<svg xmlns="http://www.w3.org/2000/svg" width="1164" height="1164" viewBox="0 0 1164 1164" version="1.1" xmlns:bx="https://boxy-svg.com">
  <path d="M 570.68 209.589 C 527.728 214.057 502.998 215.301 458.717 226.995 C 447.197 230.037 436.669 236.039 425.621 240.503 C 377.852 259.81 334.4 289.051 292.439 318.947 C 283.139 325.573 269.539 336.072 261.77 344.437 C 244.847 362.66 235.382 380.574 218.366 398.711 C 213.695 403.693 208.241 408.078 204.497 413.788 C 202.973 416.109 204.211 419.457 203.095 422 C 199.553 430.08 195.584 438.047 190.653 445.364 C 188.809 448.1 184.411 448.707 183.068 451.721 C 178.699 461.522 169.752 491.72 166.838 506.832 C 153.656 575.215 141.496 645.231 156.479 715.462 C 165.025 755.517 190.046 790.236 209.064 826.509 C 214.234 836.37 221.271 845.259 228.825 853.439 C 283.496 912.631 299.952 943.149 373.473 970.668 C 408.519 983.787 458.151 1000.17 494.64 1008.46 C 516.15 1013.35 538.748 1010.09 560.802 1009.7 C 608.739 1008.83 656.59 997.93 702.465 985.308 C 731.733 977.254 754.902 969.847 781.829 955.095 C 796.482 947.068 827.539 928.28 840.995 918.375 C 876.88 891.96 892.838 870.208 919.201 833.935 C 923.723 827.712 953.806 786.795 959.738 773.254 C 990.693 702.592 991.223 647.986 995.347 565.203 C 996.27 546.732 985.874 480.383 983.373 471.011 C 979.62 456.939 973.072 443.682 966.275 430.801 C 964.219 426.905 959.349 425.069 957.123 421.266 C 953.366 414.85 954.736 405.585 949.503 400.302 C 940.401 391.118 931.059 373.339 921.911 364.201 C 896.118 338.429 877.48 318.7 849.165 294.766 C 845.81 291.93 840.183 293.503 836.501 291.104 C 819.569 280.064 806.382 263.769 789.107 253.273 C 725.237 214.466 643.225 211.67 570.68 209.589" stroke="none" fill="#eb8c15" fill-rule="evenodd" style="">
    <bx:title>head</bx:title>
  </path>
  <path d="M 933.474 251.528 C 915.79 257.648 901.698 257.14 889.128 265.981 C 857.534 288.207 849.003 295.004 842.404 298 C 835.057 301.336 843.201 308.315 847.784 311.825 C 862.846 323.355 894.762 364.018 897.82 367.373 C 900.876 370.726 911.538 382.614 921.513 393.786 C 942.067 416.815 951.518 424.623 952.063 419.027 C 952.837 411.06 961.026 415.056 965.912 407.564 C 978.53 388.216 1006.15 352.599 1008.64 343.344 C 1012.57 328.641 1005.23 276.191 1000.98 265.813 C 990.41 240.076 966.081 234.669 936.084 245.049 M 172.78 254.004 C 141.497 258.996 136.092 293.026 159.309 343.931 C 162.609 351.165 175.912 386.148 178.631 390.803 C 186.163 403.698 204.388 414.135 203.031 416.181 C 201.169 418.993 208.049 411.057 220.78 395.711 C 232.126 382.034 239.901 373.348 253.612 359.725 C 259.823 353.554 267.251 346.37 276.783 337.251 C 292.549 322.165 296.592 317.699 294.483 317.699 C 287.09 317.699 276.294 292.358 257.555 272.627 C 242.404 256.674 196.271 248.485 176.271 251.676 M 479.959 602.362 C 471.648 605.636 462.943 608.342 460.616 608.378 C 445.209 608.612 409.476 618.281 412.869 622.867 C 419.279 631.539 416.7 636.156 405.395 647.29 C 392.524 659.961 378.635 687.037 374.436 703.238 C 373.38 707.312 360.231 729.755 358.015 737.467 C 337.974 807.194 373.93 889.637 435.157 911.674 C 441.035 913.79 494.475 934.919 500.547 937.348 C 513.196 942.408 631.059 938.283 635.109 937.242 C 681.278 925.382 735.923 895.248 748.927 870.592 C 779.05 813.477 780.687 714.071 742.66 673.091 C 735.988 665.9 716.723 654.847 711.226 648.53 C 705.727 642.213 695.504 626.371 699.428 618.673 C 700.748 616.084 687.738 612.711 687.583 612.599 C 683.778 609.854 640.099 597.777 638.773 599.104 C 638.545 599.332 640.757 602.749 643.689 606.696 C 646.622 610.643 495.665 596.338 495.455 596.362 C 495.244 596.389 488.272 599.088 479.959 602.362" stroke="none" fill="#453123" fill-rule="evenodd" style="">
    <bx:title>brown</bx:title>
  </path>
  <path d="M 932.393 184.05 C 921.702 186.94 907.74 192.492 895.09 198.882 C 889.674 201.616 882.604 205.182 879.377 206.807 C 876.151 208.431 870.167 210.847 866.079 212.176 C 813.793 229.173 785.258 271.222 808.925 296.394 C 826.995 315.612 839.248 312.678 888.872 277.242 C 957.153 228.482 1000.54 239.983 1000.64 306.87 C 1000.68 329.422 990.65 352.669 959.102 403.189 C 954.561 410.461 952.132 427.309 954.743 433.432 C 991.27 519.08 1088.33 346.044 1054.36 255.82 C 1031.65 195.491 987.079 169.263 932.393 184.05 M 169.303 190.705 C 115.171 196.872 82.482 249.964 95.577 310.446 C 96.512 314.768 97.873 323.744 98.601 330.394 C 102.723 368.02 114.728 398.011 138.51 430.084 C 179.984 486.021 221.731 441.999 185.986 380.02 C 180.936 371.263 174.621 357.832 166.729 339.061 C 152.293 304.73 151.692 274.043 165.293 265.748 C 191.617 249.697 228.849 259.515 260.213 290.782 C 280.481 310.986 288.22 315.757 299.047 314.72 C 316.263 313.072 328.284 304.11 328.284 292.922 C 328.284 291.208 329.177 288.446 330.268 286.782 C 333.633 281.645 318.337 252.622 304.385 237.671 C 274.807 205.978 215.68 185.42 169.303 190.705 M 564.6 560.157 C 498.3 566.535 449.13 646.03 449.13 746.835 C 449.13 781.044 452.296 801.171 460.789 820.987 C 462.075 823.986 464.769 831.302 466.775 837.247 C 484.444 889.555 570.868 917.315 617.506 885.659 C 652.611 861.831 675.891 825.982 681.185 787.598 C 685.756 754.463 683.559 705.192 676.62 685.177 C 653.32 617.98 625.379 576.467 594.602 563.318 C 583.502 558.578 582.313 558.452 564.6 560.157 M 694.229 611.1 C 677.666 619.084 682.335 628.782 723.735 672.395 C 764.627 715.475 773.205 793.203 743.878 854.914 C 730.755 882.528 689.973 908.854 634.104 925.778 C 628.785 927.389 621.44 929.764 617.782 931.052 C 593.256 939.702 531.335 938.149 506.944 928.273 C 501.007 925.87 491.154 922.565 485.047 920.931 C 478.941 919.297 471.872 916.586 469.337 914.91 C 466.803 913.232 458.771 909.247 451.489 906.05 C 391.281 879.63 355.577 803.304 373.332 738.977 C 375.442 731.33 378.702 719.36 380.575 712.379 C 385.693 693.308 399.078 669.833 414.447 652.981 C 425.253 641.129 427.701 634.198 423.766 626.589 C 414.214 608.116 390.923 618.482 358.679 655.556 C 352.607 662.539 343.273 672.609 337.936 677.937 C 317.122 698.714 297.773 746.437 295.396 782.871 C 289.835 868.034 387.821 950.996 512.602 966.772 C 609.642 979.041 719.714 953.505 767.558 907.629 C 832.532 845.32 843.228 795.996 810.267 710.648 C 799.584 682.986 772.224 649.211 745.802 631.072 C 738.785 626.253 730.458 620.485 727.299 618.254 C 716.708 610.776 701.66 607.52 694.229 611.1 M 552.354 627.155 C 526.428 632.319 512.311 652.491 520.027 673.344 C 524.002 684.084 526.297 686.535 537.332 691.8 C 549.547 697.631 549.021 695.959 548.8 728.344 C 548.583 760.233 551.583 765.801 568.215 764.374 C 583.81 763.034 589.484 741.773 584.508 703.312 C 583.883 698.476 583.883 698.476 593.276 694.013 C 644.442 669.711 611.216 615.426 552.354 627.155" stroke="none" fill="#fffaea" fill-rule="evenodd" style="">
    <bx:title>white</bx:title>
  </path>
  <path d="M 370.149 521.771 C 338.228 531.961 323.723 576.481 345.962 596.007 C 379.24 625.225 422.979 604.347 422.991 559.238 C 422.998 532.208 396.44 513.377 370.149 521.771 M 736.239 526.535 C 709.324 539.107 703.8 573.791 724.808 598.334 C 749.044 626.648 799.885 604.858 800.008 566.103 C 800.106 536.274 763.72 513.702 736.239 526.535" stroke="none" fill="#191920" fill-rule="evenodd" style="stroke-width: 1;">
    <bx:title>eyes</bx:title>
  </path>
</svg>