<svg xmlns="http://www.w3.org/2000/svg" width="1164" height="1164" viewBox="0 0 1164 1164" version="1.1" xmlns:bx="https://boxy-svg.com">
  <path d="M 585.271 106.196 C 571.947 112.421 568.087 133.483 572.656 175.055 C 573.226 180.237 574.742 194.207 576.027 206.097 C 577.311 217.987 579.089 230.531 579.978 233.973 C 580.868 237.414 581.595 240.457 581.595 240.733 C 581.595 241.01 565.505 241.545 545.842 241.923 C 502.164 242.764 485.851 244.701 460.199 252.093 C 455.321 253.498 446.091 256.013 439.689 257.681 C 422.682 262.114 389.389 279.165 368.345 294.219 C 363.377 297.773 354.324 304.178 348.226 308.454 C 312.992 333.157 293.502 348.664 283.557 359.906 C 267.778 377.741 264.073 382.304 258.563 390.685 C 236.291 424.566 223.081 462.089 215.7 512.438 C 213.303 528.794 211.089 542.582 210.782 543.079 C 208.187 547.276 203.528 588.365 201.331 626.412 C 199.204 663.228 206.719 738.199 214.711 759.917 C 247.586 849.251 303.876 912.783 392.572 960.66 C 430.227 980.986 436.513 983.146 474.057 988.659 C 547.126 999.388 607.311 999.209 646.794 988.143 C 731.338 964.45 781.87 943.02 809.073 919.324 C 840.94 891.565 847.129 885.004 871.956 852.658 C 901.943 813.585 901.666 814.003 914.052 789.241 C 920.609 776.131 930.709 756.176 936.497 744.895 C 948.244 721.998 958.307 694.266 961.237 676.714 C 967.344 640.137 969.174 571.188 964.795 542.569 C 963.863 536.472 962.296 523.749 961.313 514.299 C 958.698 489.156 956.335 478.995 948.573 459.479 C 943.256 446.112 929.006 417.701 923.122 408.733 C 920.034 404.025 914.695 395.045 911.259 388.777 C 907.821 382.51 902.891 374.138 900.3 370.176 C 897.71 366.212 894.829 361.472 893.9 359.643 C 890.317 352.587 854.097 320.416 826.385 299.676 C 799.081 279.242 791.533 275.762 745.089 262.209 C 727.705 257.137 700.702 250.495 697.189 250.425 C 696.082 250.404 703.083 244.281 713.523 236.138 C 743.395 212.84 750.521 188.876 731.206 176.682 C 713.39 165.436 693.458 171.44 671.717 194.599 C 664.528 202.259 655.652 210.554 651.994 213.034 C 648.335 215.515 642.201 220.018 638.363 223.041 C 634.524 226.065 631.152 228.308 630.869 228.025 C 628.89 226.045 630.479 212.382 633.869 202.217 C 641.81 178.407 636.638 146.075 620.808 120.573 C 618.481 116.824 612.837 111.863 610.9 111.863 C 610.437 111.863 607.73 110.368 604.883 108.541 C 598.047 104.154 591.355 103.353 585.271 106.196" stroke="none" fill="#f9d76d" fill-rule="evenodd" style="">
    <bx:title>head</bx:title>
  </path>
  <path d="M 572.625 553.809 C 547.433 558.089 534.302 566.514 521.219 586.796 C 510.065 604.085 473.227 625.551 448.558 629.135 C 382.319 638.757 342.396 706.154 380.049 744.793 C 394.599 759.725 417.176 760.793 484.485 749.735 C 520.413 743.833 614.73 744.424 653.656 750.796 C 659.448 751.744 670.425 753.314 678.046 754.285 C 690.563 755.879 717.941 761.096 736.804 765.482 C 764.297 771.875 779.893 767.493 797.882 748.325 C 828.383 715.821 829.12 692.841 800.564 664.519 C 794.417 658.421 786.731 650.052 783.488 645.921 C 773.021 632.595 762.182 626.34 740.769 621.271 C 708.977 613.745 680.469 599.898 668.872 586.351 C 647.496 561.378 607.557 547.874 572.625 553.809" stroke="none" fill="#e98f13" fill-rule="evenodd" style="">
    <bx:title>beak</bx:title>
  </path>
  <path d="M 748.571 510 C 726.624 515.324 708.838 545.766 716.282 565.262 C 731.585 605.33 794.086 592.708 794.036 549.558 C 794.008 527.036 768.791 505.094 748.571 510 M 400.606 512.708 C 364.308 524.618 362.703 584.492 398.405 594.782 C 441.74 607.273 472.055 562.047 444.57 525.911 C 437.133 516.132 412.614 508.771 400.606 512.708" stroke="none" fill="#1f1f24" fill-rule="evenodd" style="">
    <bx:title>eyes</bx:title>
  </path>
</svg>