<svg xmlns="http://www.w3.org/2000/svg" width="1164" height="1164" viewBox="0 0 1164 1164" version="1.1" xmlns:bx="https://boxy-svg.com">
  <path d="M 562.48 216.557 C 562.239 216.779 556.36 217.25 549.418 217.605 C 515.962 219.31 475.638 227.845 439.464 240.879 C 430.48 244.116 418.065 247.713 411.875 248.875 C 381.403 254.589 351.779 269.147 323.736 292.187 C 308.238 304.919 304.346 308.772 292.536 323.08 C 274.476 344.962 272.326 347.954 254.62 375.88 C 250.234 382.799 246.302 388.871 245.885 389.372 C 245.47 389.874 242.847 387.744 240.056 384.643 C 223.276 365.986 194.361 354.865 171.703 358.355 C 142.153 362.906 98.358 380.437 78.841 395.528 C 49.878 417.923 22.446 482.993 15.034 546.88 C 8.813 600.512 31.192 659.315 68.081 686.265 C 99.03 708.876 171.322 724.936 197.981 715.122 C 201.402 713.864 204.292 712.957 204.401 713.108 C 204.511 713.26 205.935 717.077 207.565 721.59 C 245.55 826.703 336.105 913.874 444.796 949.961 C 448.726 951.264 461.563 951.837 464.692 957.109 C 475.109 974.665 478.533 1007.54 485.022 1018.3 C 493.598 1032.54 508.061 1051.05 520.876 1050.54 C 551.701 1049.34 608.271 1060.66 648.215 1036.47 C 693.815 1008.84 695.557 950.107 700.08 948.533 C 817.736 907.625 920.815 810.701 953.584 696.042 C 956.685 685.19 957.919 682.218 959.148 682.649 C 960.015 682.956 966.337 685.215 973.196 687.674 C 1019.41 704.232 1080.08 680.521 1119.19 630.621 C 1152.58 588.02 1164.62 528.883 1152.63 466.548 C 1144.35 423.451 1088.47 365.081 1047.91 357.142 C 1012.94 350.297 944.041 382.411 926.725 413.623 C 925.091 416.569 923.845 414.879 912.907 394.884 C 908.257 386.382 902.203 376.493 899.454 372.909 C 896.703 369.323 890.114 360.752 884.81 353.864 C 879.507 346.973 872.407 339.056 869.031 336.269 C 865.656 333.48 858.635 327.242 853.428 322.405 C 847.565 316.959 840.407 311.632 834.63 308.419 C 829.255 305.429 824.127 301.676 822.532 299.563 C 819.547 295.606 808.637 287.554 790.401 275.848 C 784.085 271.794 777.221 267.105 775.148 265.429 C 766.227 258.217 734.474 243.626 720.358 240.25 C 717.176 239.492 706.525 236.518 696.689 233.645 C 665.004 224.39 640.701 220.002 608.852 217.785 C 587.517 216.302 563.446 215.663 562.48 216.557 Z" stroke="none" fill="#ac95ba" fill-rule="evenodd" style="">
    <bx:title>head</bx:title>
  </path>
  <path d="M 512.6 665.425 C 511.443 665.658 503.159 667.832 494.192 670.252 C 485.224 672.674 475.899 674.948 473.47 675.306 C 456.551 677.807 431.95 708.241 427.867 731.723 C 426.632 738.826 426.802 725.494 429.462 761.273 C 429.575 762.796 429.994 771.529 430.391 780.674 C 432.183 821.873 436.409 867.267 439.978 883.687 C 444.821 905.953 451.245 931.327 453.662 937.735 C 458.543 950.678 463.515 966.433 463.469 968.812 C 463.316 976.685 471.858 985.304 479.822 985.311 C 486.242 985.317 491.883 978.041 490.502 971.538 C 489.539 967.01 481.031 941.066 477.9 933.115 C 476.5 929.559 474.386 922.699 473.203 917.87 C 472.018 913.044 469.396 902.371 467.373 894.152 C 463.378 877.917 459.905 856.259 458.956 841.65 C 458.625 836.57 457.664 823.473 456.818 812.549 C 455.451 794.876 453.269 806.063 451.31 760.033 C 450.354 737.557 460.035 703.292 474.896 699.618 C 478.078 698.83 490.694 693.674 497.347 691.837 C 518.245 686.072 520.613 685.737 535.743 686.408 C 543.264 686.741 571.903 687.328 599.385 687.712 C 659.108 688.546 685.059 693.316 692.169 704.765 C 699.167 716.035 706.076 740.677 705.147 767.277 C 703.372 818.108 702.651 827.345 697.79 861.514 C 696.958 867.358 695.987 875.464 695.632 879.53 C 693.791 900.58 686.143 931.304 673.094 970.071 C 672.581 971.596 671.841 974.92 671.451 977.462 C 670.786 981.783 666.568 993.231 656.297 1018.57 C 653.929 1024.42 651.498 1029.95 650.893 1030.86 C 643.9 1041.45 647.928 1041.88 662.233 1032.12 C 669.18 1027.38 676.529 1022.58 678.563 1021.48 C 682.911 1019.12 683.927 1017.39 690.323 1001.48 C 694.475 991.148 699.998 971.55 700.865 964.067 C 701.012 962.795 702.853 956.301 704.955 949.633 C 713.461 922.648 718.265 901.344 719.827 883.687 C 720.209 879.367 721.943 866.065 723.678 854.123 C 727.235 829.657 729.326 790.864 727.688 779.75 C 727.164 776.193 726.717 770.372 726.695 766.816 C 726.672 763.259 725.711 756.892 724.559 752.668 C 721.645 741.994 721.697 748.72 724.677 744.485 C 730.052 736.846 717.963 695.865 707.872 687.516 C 704.853 685.019 687.033 675.858 681.962 674.197 C 675.688 672.141 659.68 668.517 650.93 667.168 C 648.12 666.734 633.243 666.279 614.207 665.899 C 574.415 665.105 516.457 664.641 512.6 665.425" stroke="none" fill="#7b728b" fill-rule="evenodd" style="">
    <bx:title>trunk</bx:title>
  </path>
  <path d="M 370.351 672.838 C 350.594 677.816 346.902 700.569 356.847 756.052 C 359.003 768.086 361.239 781.132 361.814 785.044 C 368.557 830.887 412.57 817.662 416.427 768.633 C 418.219 745.848 420.568 723.145 421.58 718.855 C 429.868 683.656 407.425 663.493 370.351 672.838 M 734.201 672.706 C 723.531 676.872 720.687 689.499 725.61 710.855 C 726.763 715.857 727.709 723.168 727.713 727.102 C 727.719 731.036 728.427 740.144 729.291 747.341 C 730.155 754.538 730.864 764.411 730.868 769.28 C 730.892 793.44 747.797 808.888 764.579 800.086 C 776.435 793.869 787.97 763.1 789.175 734.485 C 789.577 724.923 790.48 716.538 791.398 713.834 C 800.892 685.846 765.578 660.454 734.201 672.706" stroke="none" fill="#fffaea" fill-rule="evenodd" style="">
    <bx:title>tusks</bx:title>
  </path>
  <path d="M 140.86 431.108 C 91.483 442.753 71.165 473.471 69.577 538.888 C 68.473 584.371 76.878 599.916 113.571 620.264 C 147.946 639.324 196.645 626.8 193.846 599.619 C 191.956 581.282 193.506 550.121 197.192 532.324 C 201.336 512.315 206.815 490.099 210.815 477.076 C 218.084 453.421 214.258 442.845 197.755 440.99 C 194.457 440.62 190.103 439.54 188.078 438.593 C 170.829 430.513 154.415 427.911 140.86 431.108 M 1002.8 443.033 C 988.643 446.129 970.136 456.647 960.315 467.181 C 948.101 480.279 946.677 495.166 954.76 525.214 C 959.31 542.123 959.939 547.788 961.135 582.65 C 962.754 629.763 983.53 632.271 1044.31 592.686 C 1073.52 573.665 1099.01 523.288 1093.91 494.697 C 1087.88 460.867 1041.49 434.574 1002.8 443.033 M 527.173 741.202 C 519.087 746.329 520.678 758.298 530.257 764.401 C 530.381 764.481 542.081 764.905 556.255 765.343 C 574.375 765.904 587.806 766.969 601.489 768.929 C 612.192 770.463 625.684 772.028 631.469 772.409 C 638.28 772.856 644.989 774.097 650.498 775.924 C 663.108 780.111 671.39 774.698 669.385 763.58 C 667.511 753.189 659.765 749.497 635.151 747.261 C 617.134 745.624 601.2 743.58 584.443 740.753 C 568.927 738.137 531.546 738.429 527.173 741.202 M 540.679 812.549 C 534.143 815.121 531.27 825.852 535.74 830.989 C 540.815 836.82 541.932 837 574.138 837.147 C 605.599 837.293 622.818 838.973 629.774 842.583 C 640.404 848.099 651.322 833.489 644.726 822.573 C 641.208 816.748 638.375 815.547 625.622 814.483 C 619.196 813.945 613.387 813.14 612.711 812.693 C 611.211 811.702 543.177 811.564 540.679 812.549 M 562.041 880.355 C 547.591 882.215 542.58 885.949 542.58 894.856 C 542.58 904.558 550.053 908.079 565.945 905.867 C 588.471 902.733 610.102 903.723 615.164 908.122 C 628.849 920.011 643.973 899.553 630.992 886.71 C 623.695 879.491 591.673 876.539 562.041 880.355 M 594.651 961.957 C 562.052 966.6 544.143 975.219 546.262 985.25 C 548.819 997.365 554.705 997.954 587.768 989.464 C 596.425 987.245 596.759 987.234 600.211 989.17 C 609.972 994.64 619.806 987.782 619.628 975.636 C 619.463 964.199 611.095 959.617 594.651 961.957" stroke="none" fill="#f19772" fill-rule="evenodd" style="">
    <bx:title>pink</bx:title>
  </path>
  <path d="M 749.707 547.146 C 739.659 548.836 720.515 565.495 715.552 576.87 C 697.771 617.631 762.426 650.346 789.766 614.424 C 814.498 581.925 804.553 552.081 767.558 547.774 C 764.126 547.375 759.866 546.873 758.092 546.663 C 756.318 546.451 752.545 546.669 749.707 547.146 M 390.586 551.047 C 353.033 561.111 344.054 629.063 379.197 637.241 C 410.762 644.588 445.505 610.913 439.678 578.617 C 437.068 564.151 406.257 546.846 390.586 551.047" stroke="none" fill="#1c1c25" fill-rule="evenodd" style="">
    <bx:title>eyes</bx:title>
  </path>
</svg>