<svg xmlns="http://www.w3.org/2000/svg" width="1164" height="1164" viewBox="0 0 1164 1164" version="1.1" xmlns:bx="https://boxy-svg.com">
  <path d="M 389.469 5.981 C 359.829 11.453 338.575 30.1 322.663 64.588 C 314.276 82.766 321.074 154.13 334.822 192.234 C 336.891 197.971 339.72 206.767 341.11 211.781 C 353.045 254.885 364.885 284.411 375.559 297.696 C 381.242 304.768 381.242 304.768 376.236 307.162 C 373.484 308.478 366.864 312.416 361.525 315.912 C 356.185 319.408 351.214 322.27 350.477 322.27 C 347.992 322.27 342.848 325.508 332.584 333.53 C 326.969 337.919 317.438 344.764 311.405 348.742 C 280.71 368.976 276.583 373.513 238.933 428.468 C 226.013 447.322 211.71 488.142 208.111 516.429 C 207.171 523.804 204.748 537.491 202.726 546.845 C 196.149 577.262 194.175 606.345 194.419 669.289 C 194.658 730.849 198.626 752.655 215.841 787.032 C 219.02 793.381 223.783 803.452 226.426 809.412 C 232.318 822.699 251.42 856.711 257.606 864.926 C 268.725 879.696 312.978 919.633 332.079 932.14 C 355.356 947.381 354.488 947.023 412.532 965.272 C 428.756 970.373 449.272 976.977 458.122 979.948 C 488.132 990.019 490.752 990.57 536.966 996.406 C 548.558 997.863 557.88 998.07 563.939 997.017 C 572.318 995.56 592.108 991.191 600.79 988.907 C 612.651 985.778 626.883 983.133 641.248 981.384 C 672.845 977.536 697.417 971.177 717.179 961.734 C 726.914 957.083 738.499 951.711 742.924 949.793 C 762.686 941.236 782.934 929.213 796.936 917.724 C 824.021 895.497 890.282 809.819 896.725 788.691 C 898.232 783.751 902.187 774.173 905.512 767.407 C 917.799 742.408 927.719 710.693 930.666 686.99 C 931.363 681.384 933.356 670.523 935.097 662.854 C 940.779 637.8 941.374 633.41 941.374 616.418 C 941.374 591.505 937.166 562.414 929.006 530.91 C 927.63 525.601 925.959 518.36 925.29 514.82 C 923.198 503.748 917.835 488.503 911.325 475.13 C 907.878 468.05 903.299 456.706 901.149 449.922 C 894.6 429.253 889.043 419.092 876.51 404.868 C 873.13 401.034 866.457 392.827 861.678 386.632 C 846.457 366.896 823.915 344.706 803.009 328.885 C 798.594 325.542 792.415 320.752 789.281 318.239 C 786.148 315.728 781.315 312.508 778.54 311.087 C 753.695 298.352 753.206 302.948 784.784 252.543 C 821.045 194.669 829.458 158.14 818.627 105.584 C 810.744 67.326 801.178 49.017 781.552 34.617 C 777.711 31.799 772.566 26.882 770.118 23.688 C 749.415 -3.3 706.113 10.425 675.14 53.793 C 653.598 83.954 653.137 84.795 644.033 110.411 C 628.612 153.815 625.621 166.176 623.875 193.715 C 623.264 203.357 622.243 214.875 621.606 219.311 C 620.971 223.748 620.13 234.841 619.74 243.966 C 619.027 260.552 619.027 260.552 614.2 260.035 C 606.071 259.162 546.5 259.461 539.548 260.407 C 533.015 261.297 533.015 261.297 532.337 247.924 C 531.673 234.836 530.588 225.004 526.105 191.4 C 524.885 182.255 523.238 169.147 522.447 162.267 C 520.321 143.78 520.338 143.845 509.543 113.093 C 486.689 47.99 472.938 28.825 435.38 9.714 C 426.486 5.189 403.76 3.341 389.469 5.981" stroke="none" fill="#f29372" fill-rule="evenodd" style="">
    <bx:title>head</bx:title>
  </path>
  <path d="M 735.8 56.137 C 720.606 60.003 708.92 78.073 694.113 120.602 C 692.777 124.438 689.418 132.849 686.649 139.292 C 683.878 145.737 679.763 156.116 677.499 162.355 C 675.239 168.596 671.377 178.956 668.921 185.381 C 664.614 196.641 660.822 216.986 656.119 254.07 C 655.325 260.323 656.466 275.018 658.348 282.801 C 662.757 301.021 696.004 307.506 719.489 294.723 C 759.96 272.697 792.505 156.039 776.092 91.839 C 769.994 67.989 751.971 52.019 735.8 56.137 M 399.373 60.556 C 376.348 66.37 365.985 98.709 373.875 140.124 C 375.031 146.202 376.478 156.163 377.089 162.26 C 378.607 177.408 380.108 183.306 389.912 212.653 C 397.824 236.333 398.43 238.794 398.825 248.79 C 399.284 260.378 400.585 264.079 407.738 274.139 C 409.681 276.871 412.047 280.605 412.994 282.438 C 428.506 312.434 479.986 293.107 483.419 255.997 C 483.951 250.263 484.86 243.641 485.441 241.282 C 489.272 225.714 484.254 185.913 472.722 140.439 C 457.737 81.342 431.259 52.506 399.373 60.556 M 473.139 629.192 C 415.425 639.543 378.243 658.644 357.009 688.853 C 326.588 732.136 321.055 750.233 327.245 786.214 C 331.142 808.865 336.56 824.043 346.477 840.075 C 349.472 844.92 353.054 850.749 354.435 853.029 C 357.665 858.362 371.764 872.834 379.584 878.843 C 407.039 899.943 462.095 902.518 487.084 883.875 C 488.855 882.554 494.405 879.172 499.421 876.357 C 515.142 867.535 537.275 850.013 547.779 838.072 C 553.674 831.373 569.656 810.513 571.908 806.58 C 572.932 804.793 573.606 805.404 577.89 812.017 C 580.546 816.114 584.612 821.701 586.928 824.428 C 589.242 827.156 593.308 832.165 595.964 835.559 C 609.129 852.388 622.073 861.779 637.806 865.913 C 642.227 867.073 649.947 869.236 654.963 870.718 C 683.272 879.083 729.172 877.668 748.824 867.825 C 796.32 844.033 829.872 763.53 809.191 722.989 C 805.341 715.44 790.646 694.231 784.557 687.431 C 781.34 683.841 777.162 678.746 775.27 676.114 C 764.651 661.327 745.447 649.021 722.053 642.01 C 688.997 632.102 688.479 632.01 669.981 632.722 C 643.32 633.748 638.754 634.346 639.988 636.652 C 645.061 646.132 570.81 643.975 544.537 637.127 C 537.192 635.213 495.204 625.234 473.139 629.192" stroke="none" fill="#fbfbeb" fill-rule="evenodd" style="">
    <bx:title>cream</bx:title>
  </path>
  <path d="M 584.164 629.297 C 537.922 630.508 540.106 630.328 536.211 633.25 C 525.184 641.524 528.972 659.094 543.402 666.604 C 563.1 676.86 567.367 683.774 569.55 708.98 C 571.385 730.177 573.79 734.712 583.855 735.957 C 595.529 737.4 599.182 730.688 599.182 707.79 C 599.182 686.262 599.561 684.18 603.885 681.966 C 617.242 675.13 639.926 650.887 639.937 643.435 C 639.96 629.093 635.473 627.956 584.164 629.297" stroke="none" fill="#a55b00" fill-rule="evenodd" style="">
    <bx:title>nose</bx:title>
  </path>
  <path d="M 727.256 546.165 C 690.552 563.218 701.932 615.574 743.083 618.989 C 778.331 621.911 796.363 556.961 763.423 545.737 C 754.658 542.751 734.081 542.994 727.256 546.165 M 392.313 543.415 C 367.482 550.681 353.656 578.936 364.404 600.443 C 383.713 639.083 442.467 623.225 442.467 579.371 C 442.467 555.046 416.409 536.363 392.313 543.415" stroke="none" fill="#191920" fill-rule="evenodd" style="">
    <bx:title>eyes</bx:title>
  </path>
</svg>