<svg xmlns="http://www.w3.org/2000/svg" width="1164" height="1164" viewBox="0 0 1164 1164" version="1.1" xmlns:bx="https://boxy-svg.com">
  <path d="M 560.06 199.401 C 497.079 202.047 430.216 222.114 377.756 254.119 C 370.805 258.361 370.805 258.361 363.552 253.511 C 349.257 243.951 324.06 232.289 308.716 228.133 C 300.881 226.009 293.251 223.808 291.761 223.243 C 290.27 222.675 281.566 220.967 272.418 219.445 C 263.27 217.923 250.588 215.458 244.237 213.965 C 224.267 209.277 190.161 210.712 182.038 216.584 C 158.46 233.628 156.592 329.787 178.43 402.451 C 183.389 418.954 192.613 434.339 206.797 449.765 C 213.155 456.682 213.451 457.758 210.939 464.861 C 206.335 477.879 198.868 511.995 196.851 529.223 C 196.143 535.271 196.143 535.271 184.446 532.354 C 132.472 519.393 100.731 527.109 100.661 552.724 C 100.612 570.618 127.423 580.536 175.84 580.536 C 194.606 580.536 193.715 579.965 194.306 592.393 C 194.91 605.097 194.65 605.208 151.992 610.555 C 125.467 613.88 112.893 619.085 99.95 632.097 C 70.488 661.716 103.215 686.736 146.53 667.708 C 154.341 664.276 165.15 660.189 170.55 658.624 C 179.892 655.92 183.108 654.434 191.871 648.776 C 199.678 643.736 200.097 643.93 201.994 653.44 C 204.033 663.658 204.912 662.352 188.728 673.136 C 140.418 705.324 113.885 752.407 137.321 764.355 C 149.662 770.649 163.939 764.169 189.585 740.633 C 195.238 735.446 200.745 730.728 201.825 730.15 C 202.904 729.572 207.607 726.359 212.274 723.011 C 220.76 716.922 220.76 716.922 222.343 720.565 C 356.891 1030.41 789.571 1049.58 938.661 752.289 C 947.59 734.486 947.59 734.486 952.08 738.237 C 979.474 761.125 1012.69 761.663 1016.27 739.276 C 1018.16 727.51 998.43 707.024 971.787 693.076 C 963.535 688.757 962.282 681.77 968.077 672.392 C 969.989 669.299 998.362 671.78 1021.11 677.031 C 1065.26 687.219 1074.62 685.449 1074.64 666.921 C 1074.65 641.532 1044.43 627.603 989.153 627.533 C 975.217 627.517 975.217 627.517 975.84 617.956 C 976.811 603.018 975.777 604.343 988.567 601.626 C 994.752 600.313 1009.05 597.273 1020.35 594.872 C 1058.71 586.719 1069.14 580.259 1067.72 565.531 C 1065.54 543.061 1036.77 533.65 1003.5 544.526 C 992.763 548.035 976.229 552.447 975.814 551.912 C 975.674 551.732 974.958 546.422 974.225 540.111 C 972.743 527.375 967.591 500.784 964.501 489.909 C 962.497 482.862 962.497 482.862 971.883 473.476 C 1013.75 431.618 1028.94 402.55 1033.08 356.441 C 1041.63 261.353 1021.82 229.535 953.925 229.345 C 909.313 229.222 859.322 242.282 819.891 264.365 C 809.317 270.289 809.317 270.289 798.586 263.374 C 726.906 217.191 646.962 195.75 560.06 199.401" stroke="none" fill="#1c1c24" fill-rule="evenodd" style="">
    <bx:title>head</bx:title>
  </path>
  <path d="M 735.83 466.938 C 730.91 467.492 723.309 469.476 717.255 471.788 C 711.618 473.94 703.61 476.994 699.458 478.573 C 583.403 522.712 638.908 699.948 763.582 683.333 C 910.311 663.775 882.941 450.375 735.83 466.938 M 420.091 471.266 C 405.644 472.693 395.365 475.473 391.285 479.055 C 389.208 480.879 384.96 482.971 381.516 483.868 C 328.305 497.728 288.697 566.07 305.022 615.85 C 319.797 660.902 344.78 689.631 375.966 697.431 C 477.684 722.867 542.522 665.518 529.408 561.709 C 521.635 500.166 479.597 465.387 420.091 471.266 M 702.807 546.013 C 682.851 553.426 675.973 583.603 691.134 597.234 C 712.77 616.687 747.106 593.508 739.142 564.824 C 735.641 552.217 714.949 541.504 702.807 546.013 M 440.966 547.628 C 426.398 552.379 412.934 574.467 417.308 586.435 C 418.21 588.899 419.758 593.817 420.751 597.363 C 430.162 630.983 474.349 627.45 482.423 592.432 C 488.213 567.315 463.267 540.355 440.966 547.628" stroke="none" fill="#f9f3e2" fill-rule="evenodd" style="">
    <bx:title>eyes</bx:title>
  </path>
  <path d="M 586.835 627.049 C 577.818 631.751 573.066 637.652 572.969 644.268 C 572.939 646.172 572.244 650.678 571.422 654.283 C 570.599 657.889 569.919 663.23 569.909 666.152 C 569.893 671.332 569.7 671.642 562.051 678.716 C 546.403 693.186 541.533 703.881 545.407 715.256 C 551.604 733.442 569.93 726.609 591.176 698.193 C 594.288 694.03 594.288 694.03 601.483 701.056 C 623.803 722.849 646.343 730.221 652.297 717.675 C 657.374 706.975 653.208 700.349 624.826 673.983 C 616.442 666.195 613.558 660.468 612.442 649.39 C 610.588 631.008 598.863 620.777 586.835 627.049" stroke="none" fill="#f19772" fill-rule="evenodd" style="">
    <bx:title>nose</bx:title>
  </path>
</svg>