<svg xmlns="http://www.w3.org/2000/svg" viewBox="0 0 1164 1164" width="1164" height="1164" xmlns:bx="https://boxy-svg.com">
  <path d="M 495.902 160.811 C 491.447 161.588 470.168 161.419 462.15 162.9 C 429.531 168.924 439.086 176.988 430.712 174.272 C 428.517 173.559 428.332 174.099 426.599 186.305 C 425.601 193.332 424.015 203.943 423.075 209.882 C 420.188 228.121 420.004 263.099 422.647 291.144 C 426.298 329.875 427.723 325.43 408.445 335.396 C 363.873 358.434 322.393 391.201 290.186 428.818 C 278.245 442.764 279.729 442.499 274.781 431.576 C 272.544 426.638 269.036 419.685 266.983 416.122 C 264.932 412.558 261.17 405.999 258.625 401.544 C 245.5 378.576 231.085 362.208 210.573 346.987 C 208.198 345.223 201.23 339.278 195.089 333.775 C 182.207 322.232 177.37 318.74 166.555 313.175 C 162.259 310.964 154.069 306.354 148.354 302.93 C 128.345 290.94 97.281 286.032 83.676 292.713 C 42.644 312.866 64.936 424.188 120.749 477.833 C 144.161 500.338 201.101 531.06 219.538 531.136 C 226.601 531.165 226.698 531.713 221.941 544.539 C 210.568 575.194 200.963 609.021 199.875 646.388 C 198.185 704.335 207.19 722.735 219.868 782.77 C 222.227 793.943 237.187 837.963 260.891 872.873 C 401.539 1080.02 716.184 1088.64 876.029 887.236 C 921.586 829.836 942.92 763.437 946.295 751.208 C 965.358 682.096 963.563 606.129 941.298 539.681 C 937.146 527.291 937.146 527.291 951.398 527.707 C 1019.3 529.691 1101.37 469.21 1110.15 410.723 C 1111.04 404.784 1112.47 397.182 1113.33 393.831 C 1117.14 378.986 1113.31 343.894 1106.22 328.807 C 1090.12 294.566 1030.22 300.97 982.086 342.077 C 978.815 344.867 970.559 351.708 963.728 357.281 C 931.794 383.336 918.338 399.539 897.918 436.532 C 893.57 444.409 893.097 444.905 891.735 443.009 C 878.272 424.27 873.166 420.949 859.731 406.2 C 817.566 359.907 768.664 328.838 770.444 311.382 C 771.05 305.443 772.501 295.239 773.67 288.706 C 778.976 259.036 780.075 235.857 777.44 209.223 C 775.006 184.634 775.188 185.296 771.123 186.338 C 763.878 188.198 756.624 176.972 747.387 172.479 C 733.729 165.836 700.199 171.153 693.828 167.489 C 691.864 166.359 672.982 170.468 672.788 170.468 C 672.595 170.468 672.095 173.643 671.681 177.52 C 671.265 181.399 670.002 188.324 668.873 192.908 C 667.574 198.182 666.221 210.558 665.186 226.617 C 664.288 240.575 662.821 259.587 661.929 268.867 C 661.036 278.149 660.307 288.529 660.307 291.934 C 660.307 298.125 660.307 298.125 656.797 297.473 C 618.877 290.426 555.042 289.832 527.763 296.273 C 525.441 296.819 525.333 296.544 525.323 290.076 C 525.319 286.353 524.845 277.962 524.273 271.43 C 523.7 264.897 522.488 245.218 521.579 227.698 C 519.401 185.741 517.534 165.529 515.762 164.74" stroke="none" fill="#dba24c" fill-rule="evenodd" style="">
    <bx:title>head</bx:title>
  </path>
  <path d="M 717.963 60.782 C 702.225 65.707 680.826 92.231 673.897 115.4 C 658.457 167.031 665.045 178.017 710.412 176.296 C 731.382 175.501 733.717 175.898 747.507 182.605 C 768.754 192.94 790.961 183.11 790.961 163.373 C 790.961 150.713 783.848 112.645 779.145 100.127 C 767.705 69.686 742.108 53.225 717.963 60.782 M 463.001 61.993 C 439.239 68.393 416.158 95.928 415.064 119.179 C 412.385 176.228 421.33 182.532 486.46 169.486 C 495.276 167.721 502.358 166.566 517.003 164.507 C 546.326 160.382 545.098 106.983 514.932 74.401 C 503.879 62.463 481.293 57.065 463.001 61.993 M 763.546 330.281 C 733.108 342.169 722.88 418.101 748.099 444.982 C 783.368 482.578 852.657 481.234 864.883 442.716 C 865.309 441.374 867.098 438.635 868.859 436.628 C 890.773 411.669 846.903 355.95 789.809 336.23 C 785.908 334.882 780.325 332.507 777.4 330.949 C 771.14 327.616 770.454 327.584 763.546 330.281 M 225.691 643.074 C 213.482 644.791 198.469 652.736 194.433 659.615 C 187.48 671.47 198.6 743.316 212.328 775.229 C 221.433 796.391 268.046 779.18 281.401 749.725 C 302.739 702.666 268.467 637.054 225.691 643.074 M 883.452 734.702 C 830.287 747.956 809.996 825.571 849.965 862.786 C 862.437 874.399 885.931 877.959 894.693 869.565 C 910.874 854.063 931.714 812.478 935.605 787.919 C 936.234 783.955 938.202 777.639 939.98 773.883 C 951.132 750.308 916.671 726.422 883.452 734.702 M 477.298 745.57 C 463.054 749.446 460.31 756.197 458.268 792.429 C 456.097 830.905 459.111 839.94 474.117 839.94 C 492.652 839.94 503.576 818.774 504.489 781.091 C 505.276 748.628 498.518 739.799 477.298 745.57 M 659.766 746.443 C 640.058 755.201 640.55 832.424 660.381 842.678 C 679.674 852.656 689.112 835.129 687.932 791.513 C 686.82 750.39 679.009 737.889 659.766 746.443" stroke="none" fill="#9b5925" fill-rule="evenodd" style="">
    <bx:title>spots</bx:title>
  </path>
  <path d="M 546.389 644.089 C 396.444 656.106 303.051 743.626 346.114 831.77 C 413.892 970.502 736.972 975.685 807.478 839.17 C 860.407 736.69 718.058 630.333 546.389 644.089 M 480.521 743.8 C 479.334 744.293 476.363 745.232 473.92 745.885 C 455.39 750.849 448.69 829.582 466.024 838.665 C 487.878 850.113 505.853 821.127 505.887 774.384 C 505.906 750.719 495.137 737.736 480.521 743.8 M 660.947 744.906 C 641.1 751.197 638.628 828.942 657.855 842.117 C 678.11 855.997 690.374 835.988 688.973 791.349 C 687.705 750.968 680.339 738.759 660.947 744.906" stroke="none" fill="#e7c8a4" fill-rule="evenodd" style="">
    <bx:title>snout</bx:title>
  </path>
  <path d="M 398.79 570.93 C 364.905 582.939 366.148 643.555 400.487 653.537 C 439.142 664.773 471.493 607.545 441.413 581.135 C 430.092 571.196 410.966 566.616 398.79 570.93 M 730.175 576.598 C 697.461 583.951 691.29 644.029 722.56 650.736 C 754.976 657.687 779.052 636.008 772.69 605.599 C 768.376 584.975 749.672 572.217 730.175 576.598" stroke="none" fill="#1e1d23" fill-rule="evenodd" style="">
    <bx:title>eyes</bx:title>
  </path>
</svg>