<svg xmlns="http://www.w3.org/2000/svg" width="1164" height="1164" viewBox="0 0 1164 1164" version="1.1"><path d="M 720.345 549.058 C 706.100 556.110, 694.998 573.002, 695.004 587.616 C 695.016 616.208, 736.188 620.023, 749.440 592.660 C 762.779 565.117, 744.188 537.256, 720.345 549.058 M 438.635 551.009 C 426.408 557.112, 422.500 564.012, 422.500 579.500 C 422.500 608.791, 447.047 620.841, 469.976 602.805 C 475.331 598.592, 481 584.368, 481 575.144 C 481 559.414, 453.352 543.663, 438.635 551.009 M 544.803 646.399 C 528.259 650.853, 520.796 668.127, 530.685 679.073 C 545.585 695.566, 628.031 694.962, 636.096 678.301 C 645.030 659.847, 632.049 650.070, 597 648.855 C 585.175 648.445, 571 647.419, 565.500 646.574 C 553.630 644.752, 551.006 644.730, 544.803 646.399" stroke="none" fill="#191920" fill-rule="evenodd"/><path d="M 976.500 296.406 C 937.788 305.243, 882.826 342.651, 859.556 376 C 840.553 403.235, 836.998 409.688, 833.898 422.582 C 830.588 436.350, 833.853 448.146, 842.772 454.651 C 844.823 456.146, 848.975 459.737, 852 462.630 C 863.448 473.579, 873.295 470.927, 876.507 456.030 C 878.575 446.440, 897.040 423.500, 913.960 409.500 C 958.671 372.505, 981.348 360.926, 992.471 369.410 C 1000.150 375.267, 997.881 380.490, 977.500 403.877 C 971.450 410.820, 962.024 421.900, 956.554 428.500 C 951.084 435.100, 941.184 445.980, 934.554 452.677 C 921.893 465.467, 915.663 472.388, 907.458 482.780 C 904.731 486.234, 900.836 491.160, 898.802 493.728 C 888.296 506.991, 893.320 528.940, 907.781 532.956 C 912.829 534.358, 920.826 534.262, 939.089 532.582 C 947.565 531.803, 958.100 530.873, 962.500 530.516 C 966.900 530.159, 982.951 528.097, 998.168 525.933 C 1056.559 517.632, 1094.256 525.250, 1099.570 546.425 C 1101.232 553.043, 1090.009 569.482, 1082.241 571.810 C 1070.747 575.253, 1054.568 577.001, 1033.651 577.057 C 1019.851 577.095, 1007.287 577.740, 997.500 578.915 C 982.872 580.671, 982.128 580.667, 967.500 578.775 C 921.685 572.849, 902.993 578.648, 903.005 598.785 C 903.014 613.439, 911.883 622.127, 947.123 642 C 950.536 643.925, 958.093 648.595, 963.915 652.378 C 969.737 656.161, 979.167 661.779, 984.872 664.862 C 1015.902 681.634, 1033.279 704.641, 1019.750 711.042 C 1003.920 718.530, 979.131 714.332, 962.920 701.416 C 958.289 697.727, 952.475 693.445, 950 691.902 C 946.017 689.419, 921.337 665.010, 904.417 646.820 C 894.652 636.321, 890.698 634.487, 878 634.563 C 843.937 634.765, 838.423 657.449, 862.945 696.500 C 866.053 701.450, 870.589 708.875, 873.025 713 C 907.723 771.765, 974.553 797.386, 1021.277 769.837 C 1023.927 768.274, 1030.634 765.416, 1036.183 763.485 C 1083.393 747.052, 1090.663 706.508, 1056.012 652.897 C 1050.906 644.997, 1050.744 645.493, 1059.250 642.937 C 1126.788 622.642, 1159.942 589.901, 1159.985 543.458 C 1160.023 502.926, 1158.372 499.119, 1132.853 480.895 C 1107.734 462.956, 1110.577 463.597, 1046.500 461.436 C 1020.310 460.553, 1021.308 462.392, 1037.037 444 C 1064.058 412.402, 1069.939 393.017, 1062.955 358.561 C 1057.575 332.021, 1055 328.491, 1028.618 311.500 C 1025.202 309.300, 1020.139 305.828, 1017.366 303.784 C 1006.461 295.745, 991.348 293.017, 976.500 296.406 M 194.500 304.116 C 156.471 309.641, 127.623 336.106, 131.458 361.949 C 131.830 364.452, 132.490 374.375, 132.926 384 C 133.848 404.383, 148.615 440.846, 166.945 468 C 176.568 482.257, 179.222 486.873, 177.008 485.505 C 176.462 485.167, 160.374 484.442, 141.258 483.893 C 122.141 483.345, 101.195 482.645, 94.710 482.339 C 33.610 479.452, -15.763 545.948, 12.221 593.434 C 30.481 624.418, 70.444 642.543, 132.155 647.829 C 139.991 648.500, 139.991 648.500, 130.274 655 C 90.615 681.532, 76.763 700.375, 76.977 727.500 C 77.030 734.100, 76.776 743.775, 76.414 749 C 72.771 801.534, 140.058 830.940, 207.907 806.465 C 211.794 805.063, 218.018 803.099, 221.737 802.100 C 231.098 799.587, 249.679 791.596, 254.500 788.010 C 256.700 786.374, 261.425 783.393, 265 781.385 C 268.575 779.378, 275.550 775.453, 280.500 772.663 C 312.408 754.676, 335.007 725.483, 335.260 701.925 C 335.438 685.249, 311.568 673.294, 298.636 683.583 C 296.361 685.393, 292.025 688.052, 289 689.493 C 282.198 692.732, 266.827 701.785, 257.500 708.046 C 244.780 716.585, 233.863 723.174, 228.142 725.764 C 225.039 727.169, 220.559 729.637, 218.187 731.250 C 183.059 755.133, 114.442 747.524, 146.718 723.324 C 150.448 720.527, 156.505 715.573, 160.178 712.314 C 165.052 707.990, 171.265 704.142, 183.178 698.069 C 198.867 690.072, 209.580 683.929, 225.583 673.755 C 229.687 671.146, 235.345 667.845, 238.156 666.421 C 252.762 659.019, 259.963 646.662, 259.992 628.946 C 260.012 617.180, 246.629 602.205, 231.417 596.971 C 228.504 595.969, 224.813 594.182, 223.214 593 C 221.615 591.818, 218.325 590.607, 215.904 590.310 C 213.482 590.012, 205.650 587.965, 198.500 585.761 C 185.727 581.824, 185.133 581.740, 164.500 580.953 C 121.839 579.327, 82.197 569.862, 75.549 559.715 C 73.530 556.633, 70.495 544.759, 71.234 542.833 C 72.449 539.667, 91.956 538.516, 104.641 540.862 C 156.819 550.512, 176.490 553.602, 191.026 554.433 C 196.815 554.764, 207.543 555.926, 214.866 557.017 C 239.091 560.625, 243.141 559.869, 253.660 549.776 C 271.802 532.370, 270.870 513.201, 250.923 493.479 C 246.015 488.627, 239.187 480.607, 235.750 475.657 C 226.318 462.076, 207.516 437.718, 190.429 416.946 C 177.252 400.927, 177.927 402.085, 174.578 389.737 C 171.201 377.284, 172.257 370.862, 177.500 371.975 C 199.745 376.698, 209.414 380.329, 216 386.435 C 218.475 388.729, 224.100 393.020, 228.500 395.970 C 237.783 402.194, 247.024 411.226, 255.664 422.518 C 259.023 426.908, 264.485 433.650, 267.802 437.500 C 275.454 446.381, 282.939 457.278, 291.842 472.500 C 304.895 494.816, 316.209 503.097, 326 497.500 C 327.375 496.714, 330.120 496.055, 332.100 496.035 C 351.893 495.841, 352.675 469.993, 333.744 441.706 C 331.611 438.520, 329.188 433.627, 328.358 430.834 C 324.423 417.583, 313.259 395.139, 304.831 383.534 C 301.349 378.739, 296.407 371.927, 293.850 368.396 C 256.976 317.494, 228.634 299.156, 194.500 304.116" stroke="none" fill="#e40444" fill-rule="evenodd"/><path d="M 575 254.596 C 526.990 258.718, 492.310 266.529, 453 282.073 C 441.527 286.609, 408.931 302.876, 401.500 307.772 C 398.200 309.947, 390.775 314.775, 385 318.501 C 363.143 332.603, 361.796 333.900, 345.967 356.053 C 339.462 365.157, 329.609 377.654, 324.070 383.824 C 312.787 396.391, 312.895 396.090, 316.926 403.860 C 321.065 411.839, 326.584 424.861, 328.358 430.834 C 329.188 433.627, 331.611 438.520, 333.744 441.706 C 352.675 469.993, 351.893 495.841, 332.100 496.035 C 330.120 496.055, 327.375 496.714, 326 497.500 C 316.209 503.097, 304.895 494.816, 291.842 472.500 C 282.939 457.278, 275.454 446.381, 267.802 437.500 C 264.485 433.650, 259.023 426.908, 255.664 422.518 C 247.024 411.226, 237.783 402.194, 228.500 395.970 C 224.100 393.020, 218.475 388.729, 216 386.435 C 209.414 380.329, 199.745 376.698, 177.500 371.975 C 172.257 370.862, 171.201 377.284, 174.578 389.737 C 177.927 402.085, 177.252 400.927, 190.429 416.946 C 207.516 437.718, 226.318 462.076, 235.750 475.657 C 239.187 480.607, 246.015 488.627, 250.923 493.479 C 270.870 513.201, 271.802 532.370, 253.660 549.776 C 243.141 559.869, 239.091 560.625, 214.866 557.017 C 207.543 555.926, 196.815 554.764, 191.026 554.433 C 176.490 553.602, 156.819 550.512, 104.641 540.862 C 91.956 538.516, 72.449 539.667, 71.234 542.833 C 70.495 544.759, 73.530 556.633, 75.549 559.715 C 82.197 569.862, 121.839 579.327, 164.500 580.953 C 185.133 581.740, 185.727 581.824, 198.500 585.761 C 205.650 587.965, 213.482 590.012, 215.904 590.310 C 218.325 590.607, 221.615 591.818, 223.214 593 C 224.813 594.182, 228.504 595.969, 231.417 596.971 C 246.629 602.205, 260.012 617.180, 259.992 628.946 C 259.963 646.662, 252.762 659.019, 238.156 666.421 C 235.345 667.845, 229.687 671.146, 225.583 673.755 C 209.580 683.929, 198.867 690.072, 183.178 698.069 C 171.265 704.142, 165.052 707.990, 160.178 712.314 C 156.505 715.573, 150.448 720.527, 146.718 723.324 C 114.442 747.524, 183.059 755.133, 218.187 731.250 C 220.559 729.637, 225.039 727.169, 228.142 725.764 C 233.863 723.174, 244.780 716.585, 257.500 708.046 C 266.827 701.785, 282.198 692.732, 289 689.493 C 292.025 688.052, 296.361 685.393, 298.636 683.583 C 311.568 673.294, 335.438 685.249, 335.260 701.925 C 335.057 720.782, 323.072 740.215, 299.998 759.100 C 289.989 767.292, 289.989 767.292, 294.484 775.396 C 296.956 779.853, 302.648 790.878, 307.133 799.896 C 323.569 832.941, 366.380 868.451, 422.500 895.589 C 591.502 977.313, 804.200 918.818, 901.895 763.748 C 909.230 752.105, 909.175 753.552, 902.503 747.701 C 894.022 740.263, 877.919 721.311, 873.018 713 C 870.586 708.875, 866.053 701.450, 862.945 696.500 C 838.423 657.449, 843.937 634.765, 878 634.563 C 890.698 634.487, 894.652 636.321, 904.417 646.820 C 921.337 665.010, 946.017 689.419, 950 691.902 C 952.475 693.445, 958.289 697.727, 962.920 701.416 C 979.131 714.332, 1003.920 718.530, 1019.750 711.042 C 1033.279 704.641, 1015.902 681.634, 984.872 664.862 C 979.167 661.779, 969.737 656.161, 963.915 652.378 C 958.093 648.595, 950.536 643.925, 947.123 642 C 911.883 622.127, 903.014 613.439, 903.005 598.785 C 902.993 578.648, 921.685 572.849, 967.500 578.775 C 982.128 580.667, 982.872 580.671, 997.500 578.915 C 1007.287 577.740, 1019.851 577.095, 1033.651 577.057 C 1054.568 577.001, 1070.747 575.253, 1082.241 571.810 C 1090.009 569.482, 1101.232 553.043, 1099.570 546.425 C 1094.256 525.250, 1056.559 517.632, 998.168 525.933 C 982.951 528.097, 966.900 530.159, 962.500 530.516 C 958.100 530.873, 947.565 531.803, 939.089 532.582 C 920.826 534.262, 912.829 534.358, 907.781 532.956 C 893.320 528.940, 888.296 506.991, 898.802 493.728 C 900.836 491.160, 904.731 486.234, 907.458 482.780 C 915.663 472.388, 921.893 465.467, 934.554 452.677 C 941.184 445.980, 951.084 435.100, 956.554 428.500 C 962.024 421.900, 971.450 410.820, 977.500 403.877 C 997.881 380.490, 1000.150 375.267, 992.471 369.410 C 981.348 360.926, 958.671 372.505, 913.960 409.500 C 897.040 423.500, 878.575 446.440, 876.507 456.030 C 873.295 470.927, 863.448 473.579, 852 462.630 C 848.975 459.737, 844.823 456.146, 842.772 454.651 C 825.416 441.993, 829.681 417.485, 855.407 382.038 C 864.613 369.353, 864.761 371.972, 854.080 358.637 C 802.323 294.022, 673.810 246.112, 575 254.596 M 720.345 549.058 C 706.100 556.110, 694.998 573.002, 695.004 587.616 C 695.016 616.208, 736.188 620.023, 749.440 592.660 C 762.819 565.036, 744.258 537.221, 720.345 549.058 M 438.635 551.009 C 418.789 560.915, 415.677 587.808, 432.438 604.568 C 442.447 614.578, 455.358 613.953, 469.978 602.752 C 475.297 598.677, 481 584.391, 481 575.144 C 481 559.414, 453.352 543.663, 438.635 551.009 M 543.332 646.851 C 526.729 652.589, 520.699 670.171, 531.873 680.267 C 548.996 695.736, 628.381 694.239, 636.096 678.301 C 645.051 659.803, 632.133 650.073, 597 648.855 C 585.175 648.445, 571 647.419, 565.500 646.574 C 552.767 644.619, 549.679 644.658, 543.332 646.851" stroke="none" fill="#fba373" fill-rule="evenodd"/></svg>