<svg xmlns="http://www.w3.org/2000/svg" width="1164" height="1164" viewBox="0 0 1164 1164" version="1.1"><path d="M 615.500 127.123 C 604.565 128.481, 592.136 133.265, 562.500 147.525 C 535.603 160.467, 504.028 198.086, 495.624 227.203 C 487.513 255.305, 488.857 313.399, 498.092 333.839 C 499.667 337.326, 501.120 341.151, 501.321 342.339 C 501.523 343.528, 502.211 345.775, 502.851 347.334 C 503.491 348.893, 503.820 350.482, 503.583 350.866 C 502.233 353.050, 510.029 356.185, 515.207 355.539 C 524.620 354.367, 529.348 354.787, 537.469 357.517 C 555.323 363.520, 580.743 360.267, 600.500 349.450 C 603.800 347.643, 608.522 345.631, 610.994 344.978 C 642.828 336.572, 697.027 272.001, 704.629 233.425 C 718.484 163.113, 681.440 118.931, 615.500 127.123 M 300 154.042 C 269.696 156.765, 241.480 174.152, 216.894 205.254 C 169.373 265.368, 211.704 361.182, 302.246 398.444 C 322.841 406.920, 342.122 413.103, 353.640 414.925 C 362.356 416.303, 362.765 416.436, 365.228 418.681 C 370.815 423.770, 379.595 423.977, 401 419.522 C 404.575 418.779, 410.062 417.655, 413.194 417.026 C 437.315 412.179, 458.897 389.203, 469.578 357 C 475.862 338.058, 471.114 294.998, 459.693 267.350 C 458.364 264.133, 456.022 258.125, 454.488 254 C 442.986 223.064, 401.895 175.016, 376.203 162.460 C 359.543 154.318, 331.460 151.216, 300 154.042 M 320.216 509.550 C 318.960 511.489, 317.548 512.839, 317.079 512.549 C 316.610 512.259, 316.288 512.804, 316.363 513.761 C 316.439 514.723, 315.908 515.377, 315.176 515.225 C 314.447 515.074, 314.138 515.415, 314.489 515.982 C 315.371 517.409, 311.099 523.179, 309.769 522.357 C 309.114 521.953, 308.982 522.162, 309.432 522.889 C 310.356 524.386, 308.145 527.208, 306.732 526.334 C 306.140 525.969, 305.989 526.173, 306.381 526.807 C 307.376 528.418, 276.696 567.738, 274.844 567.225 C 274.298 567.074, 274.132 567.404, 274.475 567.959 C 275.282 569.266, 252.789 602.970, 251.595 602.242 C 251.098 601.939, 250.988 602.171, 251.351 602.759 C 251.714 603.346, 250.233 607.128, 248.060 611.163 C 245.259 616.366, 242.531 624.318, 238.684 638.500 C 230.878 667.276, 231.142 664.470, 236.225 664.658 C 238.576 664.744, 241.392 664.969, 242.481 665.158 C 244.901 665.576, 248.925 673.265, 248.969 677.553 C 248.987 679.361, 250.274 682.339, 252.125 684.855 C 254.260 687.758, 257.581 696.101, 262.605 711.182 C 272.381 740.524, 279.830 754.735, 301.305 785 C 313.540 802.243, 317.701 807.397, 318.195 805.916 C 318.378 805.367, 320.223 807.749, 322.296 811.209 C 324.368 814.669, 328.768 820.875, 332.072 825 C 339.653 834.463, 348.150 846.451, 350.499 850.996 C 351.492 852.918, 354.908 857.202, 358.090 860.515 C 364.750 867.451, 366.364 870.885, 365.465 876.205 C 364.831 879.962, 364.858 880.001, 368.162 880.051 C 378.901 880.213, 402.085 882.684, 410.801 884.594 C 414.486 885.402, 427.850 886.759, 440.500 887.611 C 488.450 890.839, 500.028 888.662, 501.713 876.102 C 502.386 871.088, 502.885 871.352, 479 864.109 C 460.516 858.503, 445.203 845.813, 431.207 824.500 C 426.512 817.350, 419.430 807.225, 415.471 802 C 406.835 790.604, 396.095 772.877, 385.480 752.500 C 381.182 744.250, 375.555 734.125, 372.974 730 C 370.394 725.875, 366.006 718.450, 363.224 713.500 C 360.442 708.550, 355.337 699.550, 351.879 693.500 C 334.289 662.726, 327.890 644.042, 326.004 617.949 C 324.762 600.757, 324.650 600.106, 320.915 588.238 C 316.301 573.578, 318.037 522.097, 323.637 507.503 C 324.716 504.691, 322.508 506.012, 320.216 509.550" stroke="none" fill="#fffaea" fill-rule="evenodd"/><path d="M 610.749 345.088 C 607.616 346.018, 603.023 347.968, 600.543 349.422 C 582.561 359.960, 555.185 363.474, 537.469 357.517 C 529.336 354.783, 524.637 354.367, 515.137 355.544 C 510.553 356.112, 509.342 355.890, 506.808 354.016 C 502.956 351.168, 502.237 352.042, 504.826 356.429 C 505.966 358.362, 506.571 360.147, 506.170 360.395 C 505.769 360.643, 501.978 362.221, 497.746 363.902 C 489.239 367.281, 467.791 377.844, 461.954 381.529 C 459.900 382.826, 458.047 383.713, 457.835 383.502 C 457.624 383.291, 454.987 386.514, 451.975 390.665 C 440.404 406.617, 424.972 415.889, 405.658 418.496 C 402.995 418.856, 401.026 419.359, 401.281 419.615 C 402.238 420.571, 415.705 417.794, 421.491 415.447 C 431.283 411.476, 434.837 415.868, 434.944 432.076 C 435.098 455.494, 442.901 492.704, 453.697 521.500 C 456.790 529.750, 462.337 544.825, 466.024 555 C 469.712 565.175, 474.590 577.865, 476.864 583.199 C 479.139 588.533, 481 593.145, 481 593.448 C 481 594.237, 488.130 610.290, 495.458 626 C 498.921 633.425, 503 642.425, 504.521 646 C 515.049 670.741, 553.218 739.132, 574.004 770.500 C 593.557 800.007, 610.561 824.871, 615.146 830.657 C 621.662 838.880, 623.370 843.152, 622.567 849.210 C 621.826 854.793, 621.108 854.582, 633.500 852.434 C 717.593 837.858, 790.098 785.376, 829.006 710.918 C 835.762 697.988, 835.762 697.988, 831.539 696.120 C 826.578 693.926, 823.826 690.394, 821.704 683.500 C 810.921 648.470, 795.064 604.321, 787.043 587 C 780.095 571.995, 765.550 537.491, 760.487 524 C 754.382 507.733, 745.408 488.313, 720.980 438.500 C 704.105 404.091, 699 390.143, 699 378.444 C 699 374.850, 698.392 373.531, 695.210 370.218 C 693.083 368.005, 690.998 364.580, 690.460 362.416 C 689.080 356.870, 661.982 349.001, 634 346.020 C 628.225 345.405, 621.913 344.563, 619.973 344.149 C 617.602 343.643, 614.580 343.951, 610.749 345.088 M 868.436 440.413 C 856.856 445.456, 850.814 467.008, 857.864 478.125 C 871.653 499.868, 901.886 491.188, 903.770 464.946 C 904.950 448.507, 883.711 433.760, 868.436 440.413 M 319.307 508.250 C 314.465 515.538, 308.699 523.750, 306.493 526.500 C 275.275 565.409, 254.925 594.483, 244.393 615.222 C 242.379 619.186, 232.594 653.336, 230.529 663.608 C 229.904 666.716, 229.904 666.716, 234.813 666.244 C 242.514 665.504, 248 670.596, 248 678.483 C 248 679.884, 249.537 683.386, 251.414 686.265 C 253.531 689.511, 257.386 699.101, 261.559 711.500 C 272.695 744.597, 288.172 771.976, 313.263 802.968 C 326.936 819.856, 340.970 838.315, 345.500 845.371 C 348.250 849.654, 353.295 856.236, 356.710 859.997 C 363.408 867.373, 364.537 869.961, 363.719 876.060 C 363.041 881.110, 364.615 881.241, 365.465 876.205 C 366.364 870.885, 364.750 867.451, 358.090 860.515 C 354.908 857.202, 351.492 852.918, 350.499 850.996 C 348.150 846.451, 339.653 834.463, 332.072 825 C 328.768 820.875, 324.368 814.669, 322.296 811.209 C 320.223 807.749, 318.378 805.367, 318.195 805.916 C 317.701 807.397, 313.540 802.243, 301.305 785 C 279.830 754.735, 272.381 740.524, 262.605 711.182 C 257.581 696.101, 254.260 687.758, 252.125 684.855 C 250.274 682.339, 248.987 679.361, 248.969 677.553 C 248.925 673.265, 244.901 665.576, 242.481 665.158 C 241.392 664.969, 238.576 664.744, 236.225 664.658 C 231.142 664.470, 230.878 667.278, 238.683 638.500 C 245.892 611.915, 259.407 588.141, 286.869 553.734 C 298.773 538.821, 314.267 518.348, 319.002 511.276 C 322.313 506.331, 324.893 504.231, 323.637 507.503 C 318.037 522.097, 316.301 573.578, 320.915 588.238 C 324.650 600.106, 324.762 600.757, 326.004 617.949 C 327.890 644.042, 334.289 662.726, 351.879 693.500 C 355.337 699.550, 360.442 708.550, 363.224 713.500 C 366.006 718.450, 370.394 725.875, 372.974 730 C 375.555 734.125, 381.182 744.250, 385.480 752.500 C 396.095 772.877, 406.835 790.604, 415.471 802 C 419.430 807.225, 426.512 817.350, 431.207 824.500 C 445.205 845.816, 460.530 858.515, 479 864.105 C 482.575 865.187, 488.650 867.135, 492.500 868.435 C 496.350 869.735, 500.400 871.095, 501.500 871.458 C 502.600 871.821, 501.848 871.199, 499.830 870.076 C 497.811 868.953, 491.288 866.627, 485.335 864.906 C 460.646 857.772, 448.990 848.820, 432.726 824.500 C 428.312 817.900, 420.998 807.550, 416.473 801.500 C 407.509 789.515, 396.305 771.209, 388.319 755.500 C 385.523 750, 380.866 741.450, 377.969 736.500 C 347.272 684.044, 340.805 671.824, 334.393 654.162 C 329.707 641.253, 328.206 633.648, 326.917 616.285 C 325.918 602.831, 325.060 598.296, 320.620 583 C 316.747 569.657, 320.148 522.207, 326.385 502.566 C 327.706 498.405, 328.635 495, 328.448 495 C 328.261 495, 324.148 500.962, 319.307 508.250" stroke="none" fill="#fbefb2" fill-rule="evenodd"/><path d="M 763.994 248.903 C 748.041 253.954, 740.995 275.190, 740.999 318.205 C 741 332.909, 741 332.909, 737.250 333.474 C 721.768 335.804, 693.336 348.767, 689.989 355.021 C 688.323 358.134, 690.970 365.800, 695.250 370.258 C 698.391 373.529, 699 374.858, 699 378.444 C 699 390.143, 704.105 404.091, 720.980 438.500 C 745.408 488.313, 754.382 507.733, 760.487 524 C 765.550 537.491, 780.095 571.995, 787.043 587 C 795.064 604.321, 810.921 648.470, 821.704 683.500 C 825.906 697.153, 838.535 702.380, 851.465 695.820 C 878.373 682.167, 901.165 663.078, 926.500 632.974 C 930.350 628.399, 935.525 622.308, 938 619.437 C 999.483 548.126, 1002.799 452.875, 945.697 398.378 C 915.577 369.632, 878.793 348.047, 849.668 342.029 C 843.379 340.730, 842.966 337.910, 846.072 317.500 C 851.530 281.631, 816.929 261.336, 807.400 294.817 C 806.510 297.942, 804.931 303.073, 803.891 306.218 C 802.493 310.445, 802 314.833, 802 323.036 C 802 333.122, 801.840 334.091, 800.250 333.655 C 799.288 333.391, 796.827 332.893, 794.783 332.548 C 791.197 331.944, 791.091 331.808, 791.773 328.711 C 793.443 321.126, 792.595 272.740, 790.709 268 C 785.631 255.241, 772.844 246.101, 763.994 248.903 M 420.830 415.607 C 417.712 416.917, 411.830 418.484, 407.759 419.089 C 399.641 420.297, 402.225 418.427, 367.500 448.204 C 352.264 461.269, 330.247 490.403, 326.360 502.643 C 320.147 522.210, 316.755 569.686, 320.620 583 C 325.060 598.296, 325.918 602.831, 326.917 616.285 C 328.206 633.648, 329.707 641.253, 334.393 654.162 C 340.805 671.824, 347.272 684.044, 377.969 736.500 C 380.866 741.450, 385.523 750, 388.319 755.500 C 396.305 771.209, 407.509 789.515, 416.473 801.500 C 420.998 807.550, 428.312 817.900, 432.726 824.500 C 448.732 848.435, 461.134 858.091, 484.125 864.521 C 489.281 865.963, 495.975 868.179, 499 869.444 C 514.683 876.006, 559.854 876.578, 582 870.495 C 585.025 869.665, 591.775 868.284, 597 867.427 C 623.767 863.037, 630.305 849.789, 615.146 830.657 C 610.561 824.871, 593.557 800.007, 574.004 770.500 C 553.218 739.132, 515.049 670.741, 504.521 646 C 503 642.425, 498.921 633.425, 495.458 626 C 488.130 610.290, 481 594.237, 481 593.448 C 481 593.145, 479.139 588.533, 476.864 583.199 C 474.590 577.865, 469.712 565.175, 466.024 555 C 462.337 544.825, 456.790 529.750, 453.697 521.500 C 442.959 492.860, 435.010 455.063, 434.994 432.576 C 434.988 422.561, 433.691 417.689, 430.331 415.045 C 427.281 412.646, 427.981 412.605, 420.830 415.607 M 868.436 440.413 C 856.856 445.456, 850.814 467.008, 857.864 478.125 C 871.653 499.868, 901.886 491.188, 903.770 464.946 C 904.950 448.507, 883.711 433.760, 868.436 440.413 M 226.934 668.811 C 225.935 670.082, 224.614 673.682, 224 676.811 C 223.386 679.940, 222.013 684.600, 220.950 687.168 C 218.617 692.795, 217.042 702.992, 217.034 712.500 C 217.031 716.350, 216.258 728.072, 215.316 738.548 C 212.390 771.082, 217.457 786.614, 243.870 826.077 C 269.554 864.451, 274.990 869.106, 301 875.008 C 306.225 876.194, 311.182 877.776, 312.016 878.525 C 321.069 886.653, 351.931 890.098, 360.076 883.890 C 367.021 878.595, 365.588 869.718, 356.116 859.357 C 353.027 855.979, 348.250 849.697, 345.500 845.399 C 340.976 838.328, 327.035 819.979, 313.263 802.968 C 288.172 771.976, 272.695 744.597, 261.559 711.500 C 257.386 699.101, 253.531 689.511, 251.414 686.265 C 249.537 683.386, 248 679.884, 248 678.483 C 248 667.930, 233.033 661.058, 226.934 668.811" stroke="none" fill="#1c1c24" fill-rule="evenodd"/></svg>