<svg xmlns="http://www.w3.org/2000/svg" width="1164" height="1164" viewBox="0 0 1164 1164" version="1.1"><path d="M 597.507 642.517 C 589.355 646.921, 585.094 652.048, 584.876 657.717 C 584.817 659.247, 584.171 663.650, 583.440 667.500 C 582.709 671.350, 581.554 682.444, 580.873 692.153 C 579.635 709.807, 579.635 709.807, 573.608 712.653 C 542.940 727.137, 525.786 748.034, 534.250 760.598 C 543.818 774.800, 561.944 772.723, 581 755.241 C 599.183 738.560, 599.473 738.527, 613.235 751.574 C 624.232 761.999, 633.530 769.738, 643.718 776.942 C 655.702 785.417, 674.061 773.810, 672.797 758.560 C 671.753 745.978, 641.458 717.229, 622.513 710.842 C 616.313 708.752, 616.101 707.744, 618.933 693.856 C 626.033 659.043, 615.156 632.980, 597.507 642.517" stroke="none" fill="#f19772" fill-rule="evenodd"/><path d="M 733.379 496.035 C 729.463 496.522, 724.513 497.574, 722.379 498.371 C 720.246 499.169, 713.609 501.649, 707.631 503.882 C 588.372 548.439, 648.897 724.987, 772.051 691.791 C 895.536 658.505, 860.320 480.240, 733.379 496.035 M 444.265 499.984 C 430.437 501.529, 422.366 503.852, 417.923 507.564 C 415.661 509.454, 412.841 511.015, 411.655 511.034 C 402.627 511.179, 381.503 524.230, 367.407 538.373 C 332.153 573.745, 326.823 609.986, 350.107 656 C 371.556 698.388, 387.687 708.671, 436.703 711.204 C 514.457 715.222, 555.570 666.763, 545.039 583.511 C 537.778 526.118, 498.882 493.878, 444.265 499.984 M 705.275 567.921 C 687.917 572.316, 679.130 599.446, 690.690 612.951 C 709.108 634.469, 744.641 613.457, 736.911 585.619 C 733.916 574.832, 716.487 565.081, 705.275 567.921 M 463.994 569.892 C 450.707 574.158, 438.650 593.862, 442.408 605.167 C 443.200 607.550, 444.366 611.476, 445 613.891 C 454.885 651.545, 502.910 640.411, 502.988 600.446 C 503.022 583.034, 479.781 564.822, 463.994 569.892" stroke="none" fill="#f9eedc" fill-rule="evenodd"/><path d="M 573 251.151 C 515.353 253.573, 454.155 271.941, 406.138 301.234 C 399.776 305.116, 399.776 305.116, 393.138 300.677 C 380.054 291.927, 356.991 281.253, 342.948 277.449 C 335.776 275.505, 328.792 273.491, 327.428 272.973 C 326.064 272.454, 318.097 270.890, 309.724 269.497 C 301.351 268.104, 289.743 265.848, 283.930 264.482 C 265.651 260.190, 234.436 261.504, 227 266.879 C 205.419 282.479, 203.710 370.492, 223.697 437 C 228.237 452.106, 236.679 466.187, 249.661 480.307 C 255.482 486.638, 255.752 487.622, 253.453 494.124 C 249.239 506.039, 242.404 537.265, 240.558 553.034 C 239.910 558.569, 239.910 558.569, 229.205 555.899 C 181.633 544.036, 152.581 551.099, 152.517 574.544 C 152.472 590.922, 177.012 600, 221.327 600 C 238.504 600, 237.688 599.477, 238.229 610.852 C 238.782 622.480, 238.544 622.582, 199.500 627.476 C 175.221 630.520, 163.713 635.283, 151.866 647.193 C 124.900 674.303, 154.855 697.204, 194.500 679.787 C 201.650 676.646, 211.543 672.905, 216.485 671.474 C 225.036 668.998, 227.980 667.638, 236 662.460 C 243.145 657.846, 243.529 658.023, 245.266 666.728 C 247.132 676.081, 247.937 674.886, 233.123 684.756 C 188.906 714.217, 164.621 757.311, 186.071 768.248 C 197.367 774.008, 210.434 768.077, 233.908 746.535 C 239.082 741.787, 244.123 737.469, 245.111 736.940 C 246.099 736.412, 250.403 733.471, 254.675 730.406 C 262.442 724.833, 262.442 724.833, 263.890 728.167 C 387.041 1011.766, 783.068 1029.306, 919.529 757.204 C 927.702 740.909, 927.702 740.909, 931.811 744.342 C 956.885 765.291, 987.293 765.783, 990.569 745.293 C 992.291 734.524, 974.235 715.773, 949.849 703.007 C 942.296 699.053, 941.149 692.658, 946.453 684.075 C 948.203 681.244, 974.173 683.515, 995 688.321 C 1035.409 697.645, 1043.985 696.025, 1043.996 679.066 C 1044.012 655.828, 1016.338 643.079, 965.744 643.016 C 952.988 643, 952.988 643, 953.558 634.250 C 954.447 620.577, 953.501 621.791, 965.207 619.304 C 970.868 618.101, 983.962 615.319, 994.304 613.121 C 1029.414 605.659, 1038.958 599.747, 1037.654 586.266 C 1035.665 565.699, 1009.337 557.086, 978.877 567.040 C 969.048 570.252, 953.914 574.290, 953.535 573.801 C 953.407 573.635, 952.752 568.775, 952.080 563 C 950.724 551.342, 946.009 527.003, 943.180 517.050 C 941.346 510.600, 941.346 510.600, 949.937 502.009 C 988.250 463.696, 1002.163 437.092, 1005.956 394.888 C 1013.779 307.855, 995.641 278.733, 933.500 278.559 C 892.667 278.445, 846.911 290.400, 810.821 310.612 C 801.142 316.033, 801.142 316.033, 791.321 309.705 C 725.712 267.435, 652.540 247.810, 573 251.151 M 728 495.938 C 725.525 496.392, 721.700 497.517, 719.500 498.438 C 717.300 499.359, 712.212 501.218, 708.193 502.569 C 584.624 544.096, 649.150 726.964, 775 691.901 C 899.565 657.197, 855.289 472.592, 728 495.938 M 440.500 499.635 C 439.400 499.857, 435.800 500.533, 432.500 501.138 C 429.200 501.743, 423.575 503.501, 420 505.046 C 416.425 506.590, 409.768 509.420, 405.208 511.335 C 351.736 533.784, 322.461 591.196, 340.804 637.637 C 363.716 695.648, 385.402 711.067, 444.500 711.368 C 502.648 711.664, 531.771 688.899, 546.039 632 C 551.161 611.572, 545.834 565.558, 536.107 546.215 C 519.334 512.859, 477.059 492.263, 440.500 499.635 M 702.008 570.177 C 689.493 576.648, 682.070 596.455, 687.912 607.790 C 700.251 631.727, 736.945 621.092, 736.990 593.566 C 737.019 576.288, 716.597 562.634, 702.008 570.177 M 460.230 572.047 C 447.820 578.389, 439.981 596.073, 444.002 608.654 C 448.637 623.156, 453.749 629.717, 464 634.325 C 493.273 647.482, 516.391 602.005, 491.890 579.460 C 482.549 570.864, 468.830 567.652, 460.230 572.047 M 597.507 642.517 C 589.355 646.921, 585.094 652.048, 584.876 657.717 C 584.817 659.247, 584.171 663.650, 583.440 667.500 C 582.709 671.350, 581.554 682.444, 580.873 692.153 C 579.635 709.807, 579.635 709.807, 573.608 712.653 C 542.940 727.137, 525.786 748.034, 534.250 760.598 C 543.818 774.800, 561.944 772.723, 581 755.241 C 599.183 738.560, 599.473 738.527, 613.235 751.574 C 624.232 761.999, 633.530 769.738, 643.718 776.942 C 655.702 785.417, 674.061 773.810, 672.797 758.560 C 671.753 745.978, 641.458 717.229, 622.513 710.842 C 616.313 708.752, 616.101 707.744, 618.933 693.856 C 626.033 659.043, 615.156 632.980, 597.507 642.517" stroke="none" fill="#1c1c24" fill-rule="evenodd"/></svg>