<svg xmlns="http://www.w3.org/2000/svg" width="1164" height="1164" viewBox="0 0 1164 1164" version="1.1"><path d="M 417.756 580.543 C 396.493 587.330, 386.830 616.986, 401.644 629.992 C 423.811 649.455, 452.947 635.547, 452.954 605.500 C 452.959 587.495, 435.269 574.952, 417.756 580.543 M 726.500 587.355 C 708.571 595.728, 704.892 618.832, 718.886 635.180 C 735.030 654.041, 768.895 639.526, 768.978 613.710 C 769.042 593.843, 744.806 578.806, 726.500 587.355" stroke="none" fill="#191920" fill-rule="evenodd"/><path d="M 755.352 173.939 C 741.480 179.887, 713.696 240.367, 705.940 281.500 C 703.441 294.751, 713.744 303.392, 735.251 306.080 C 739.788 306.648, 747.389 307.761, 752.143 308.556 C 793.728 315.504, 799.114 304.189, 786.440 236.500 C 785.101 229.350, 783.295 219, 782.426 213.500 C 778.388 187.931, 775.764 180.104, 769.810 175.865 C 766.444 173.468, 758.819 172.452, 755.352 173.939 M 407.389 180.905 C 396.957 187.265, 395.781 193.936, 395.471 248.500 C 395.133 308.037, 394.965 307.104, 406.553 310 C 409.854 310.825, 413.793 312.475, 415.307 313.667 C 420.372 317.656, 428.526 317.549, 433.072 313.434 C 433.939 312.650, 438.215 311.112, 442.574 310.018 C 464.917 304.407, 477.883 292.826, 474.786 281.248 C 474.234 279.187, 473.620 275.365, 473.422 272.755 C 472.970 266.827, 468.894 254.820, 463.998 245 C 461.942 240.875, 457.873 231.875, 454.957 225 C 439.190 187.826, 422.067 171.954, 407.389 180.905 M 660 631.165 C 800.006 674.865, 815.961 781.391, 689.500 828.126 C 682.350 830.769, 677.065 832.946, 677.755 832.965 C 700.926 833.606, 754.365 794.712, 767.489 767.653 C 793.882 713.240, 739.181 643.515, 660 630.642 C 656.500 630.073, 656.500 630.073, 660 631.165" stroke="none" fill="#e7c8a4" fill-rule="evenodd"/><path d="M 641.500 262.071 C 637.100 262.560, 625.175 262.872, 615 262.764 C 595.240 262.553, 589.488 263.224, 590.413 265.633 C 590.717 266.426, 590.308 267.328, 589.503 267.637 C 583.610 269.899, 582.109 288.782, 585.938 312.500 C 587.003 319.100, 588.396 331.025, 589.033 339 C 590.113 352.527, 592.389 369.055, 598.397 407 C 602.407 432.322, 602.960 442.289, 602.299 477.249 C 600.962 548.020, 609.369 558.127, 670 558.635 C 683.475 558.748, 697.721 559.149, 701.659 559.528 C 716.691 560.972, 726.456 553.817, 730.358 538.500 C 734.500 522.240, 734.981 449.843, 731.188 413.500 C 730.094 403.014, 729.474 387.678, 729.389 369 C 729.212 329.892, 724.288 303.006, 717.301 302.996 C 708.974 302.985, 703.778 295.679, 704.199 284.577 C 704.812 268.434, 676.306 258.201, 641.500 262.071 M 500.500 263.479 C 485.343 267.448, 474 271.430, 474 272.782 C 474 273.579, 474.774 276.410, 475.719 279.072 C 478.722 287.528, 475.549 295.019, 466.527 300.773 C 458.338 305.995, 443.813 312, 439.370 312 C 438.351 312, 437.957 313.860, 437.833 319.250 C 437.509 333.337, 438.176 341.768, 441.609 367 C 444.223 386.215, 445.306 398.662, 446.004 417.500 C 446.514 431.250, 447.197 445.425, 447.523 449 C 447.850 452.575, 448.513 470.125, 448.998 488 C 450.088 528.226, 452 538.739, 459.618 546.397 C 477.254 564.124, 566.135 548.945, 577.079 526.336 C 579.748 520.824, 579.313 424.286, 576.498 397.070 C 575.726 389.606, 574.790 370.225, 574.420 354 C 573.429 310.681, 569.777 298.857, 551.759 280.648 C 546.941 275.780, 543 271.411, 543 270.940 C 543 264.877, 514.363 259.850, 500.500 263.479 M 788.048 305.449 C 783.286 310.518, 765.350 312.891, 754.521 309.884 C 732.758 303.842, 729.528 314.726, 735.255 374.810 C 736.215 384.881, 737 397.120, 737 402.009 C 737 406.897, 738.347 420.297, 739.993 431.787 C 741.639 443.276, 743.439 460.062, 743.994 469.088 C 744.549 478.115, 745.445 489.100, 745.986 493.500 C 746.526 497.900, 747.260 511.400, 747.615 523.500 C 748.582 556.384, 752.020 561.313, 776.326 564.655 C 822.872 571.054, 855.544 562.229, 862.331 541.421 C 866.426 528.865, 866.169 496.479, 861.130 390.500 C 859.865 363.885, 854.667 344.492, 845.651 332.741 C 843.643 330.124, 842 327.631, 842 327.201 C 842 325.020, 796.625 303, 792.129 303 C 791.150 303, 789.313 304.102, 788.048 305.449 M 355.882 310.489 C 323.314 317.030, 318.264 322.124, 318.689 348 C 318.793 354.325, 318.217 368.466, 317.410 379.424 C 315.068 411.211, 315.378 487.241, 317.907 501 C 318.968 506.775, 320.345 517.125, 320.967 524 C 322.365 539.449, 323.727 542.763, 331.269 549.065 C 337.723 554.458, 337.422 554.357, 347.500 554.497 C 351.350 554.550, 360.125 554.967, 367 555.423 C 397.873 557.470, 424 551.355, 424 542.083 C 424 541.473, 426.651 538.393, 429.891 535.237 C 438.803 526.558, 439.987 516.522, 437.116 474 C 436.038 458.046, 435.909 442.745, 436.533 405 C 437.570 342.258, 437.571 342.453, 436.035 336 C 433.438 325.087, 428.988 318.587, 423.500 317.687 C 419.679 317.060, 417.139 316.089, 414 314.054 C 412.625 313.163, 410.153 312.289, 408.508 312.113 C 406.862 311.937, 403.842 310.940, 401.797 309.897 C 396.121 307.001, 371.680 307.316, 355.882 310.489 M 418.396 579.363 C 392.997 587.656, 384.377 620.243, 404.161 633.178 C 423.833 646.039, 438.580 642.567, 449.625 622.474 C 462.797 598.511, 443.086 571.301, 418.396 579.363 M 417.756 580.543 C 396.493 587.330, 386.830 616.986, 401.644 629.992 C 423.811 649.455, 452.947 635.547, 452.954 605.500 C 452.959 587.495, 435.269 574.952, 417.756 580.543 M 725.500 586.810 C 712.149 593.367, 705.910 606.541, 710.384 618.730 C 711.145 620.803, 712.266 624.340, 712.876 626.589 C 719.409 650.700, 753.224 650.716, 767.048 626.615 C 780.361 603.402, 750.321 574.621, 725.500 586.810 M 726.500 587.355 C 708.571 595.728, 704.892 618.832, 718.886 635.180 C 735.030 654.041, 768.895 639.526, 768.978 613.710 C 769.042 593.843, 744.806 578.806, 726.500 587.355" stroke="none" fill="#9b5925" fill-rule="evenodd"/><path d="M 561 622.701 C 449.143 631.434, 378.358 697.268, 411.069 762.144 C 467.199 873.466, 731.539 870.068, 770.720 757.519 C 796.592 683.201, 687.156 612.851, 561 622.701 M 646.304 713.956 C 635.314 720.657, 633.841 754.566, 644.204 762.303 C 652.188 768.264, 663.710 763.824, 667.047 753.500 C 674.911 729.169, 661.933 704.427, 646.304 713.956 M 510.450 714.407 C 500.516 718.734, 494.807 757.245, 502.562 767.618 C 510.066 777.656, 523.093 776.722, 527.450 765.834 C 530.342 758.605, 530.821 724.534, 528.091 720.241 C 524.002 713.812, 517.075 711.521, 510.450 714.407" stroke="none" fill="#f0e4c9" fill-rule="evenodd"/><path d="M 195.500 252.588 C 194.400 252.842, 190.350 253.758, 186.500 254.623 C 154.017 261.929, 120.864 285.572, 114.132 306.234 C 103.399 339.176, 108.508 371.686, 127.816 393.313 C 131.492 397.430, 137.100 403.923, 140.279 407.741 C 158.723 429.900, 172.431 440.359, 193.578 448.408 C 211.387 455.187, 216.433 456.619, 227.500 458.036 C 232.450 458.669, 241.607 460.045, 247.849 461.094 C 254.092 462.142, 261.348 463, 263.974 463 C 275.294 463, 275.173 462.797, 271.358 475.350 C 266.068 492.759, 262.260 507.899, 261.123 516.041 C 260.551 520.143, 259.343 526.650, 258.440 530.500 C 257.196 535.804, 256.600 545.859, 255.980 572 C 255.530 590.975, 254.707 610.325, 254.150 615 C 249.379 655.072, 249.827 667.954, 256.952 695.500 C 266.901 733.966, 273.909 753.647, 282.870 768.287 C 284.963 771.708, 289.659 780.355, 293.304 787.503 C 300.200 801.026, 300.773 801.922, 315.476 822.151 C 327.235 838.328, 345.612 856.692, 363 869.641 C 370.425 875.171, 380.230 883.119, 384.788 887.305 C 415.887 915.859, 450.306 930.856, 494.254 935.002 C 500.439 935.585, 509.775 936.490, 515 937.012 C 546.365 940.146, 584.560 938.963, 608 934.130 C 613.225 933.053, 622.675 931.672, 629 931.061 C 635.325 930.450, 644.550 929.306, 649.500 928.519 C 654.450 927.731, 661.875 926.602, 666 926.008 C 670.125 925.415, 677.248 924.046, 681.829 922.965 C 686.410 921.884, 691.810 920.995, 693.829 920.988 C 703.073 920.958, 728.194 909.528, 751.889 894.570 C 753.916 893.291, 758.482 890.801, 762.037 889.037 C 820.185 860.183, 859.647 823.658, 895 765.968 C 902.528 753.684, 903.980 750.595, 911.433 731 C 914.467 723.025, 920.294 707.725, 924.383 697 C 928.472 686.275, 932.334 675.475, 932.965 673 C 933.596 670.525, 935.691 664.541, 937.620 659.703 C 941.883 649.012, 943.459 640.413, 944.990 619.500 C 945.634 610.700, 946.575 601.055, 947.080 598.066 C 949.404 584.336, 946.826 558.043, 941.546 541.637 C 940.283 537.712, 938.467 530.900, 937.511 526.500 C 936.555 522.100, 934.264 514.450, 932.419 509.500 C 930.575 504.550, 928.384 497.350, 927.550 493.500 C 926.717 489.650, 925.381 483.800, 924.583 480.500 C 922.856 473.368, 922.472 473.801, 932.500 471.577 C 954.352 466.732, 980.867 455.369, 996.134 444.307 C 1012.652 432.339, 1016.762 429.151, 1022.317 424 C 1039.417 408.141, 1056.088 369.577, 1055.965 346.162 C 1055.890 331.745, 1051.198 316.147, 1044.564 308.255 C 1043.289 306.740, 1040.577 302.350, 1038.537 298.500 C 1012.939 250.205, 945.416 245.703, 882.004 288.063 C 865.320 299.208, 856.431 306.967, 849.041 316.835 C 841.146 327.376, 841.233 326.982, 845.555 332.615 C 854.673 344.500, 859.859 363.775, 861.130 390.500 C 866.169 496.479, 866.426 528.865, 862.331 541.421 C 855.544 562.229, 822.872 571.054, 776.326 564.655 C 752.020 561.313, 748.582 556.384, 747.615 523.500 C 747.260 511.400, 746.526 497.900, 745.986 493.500 C 745.445 489.100, 744.549 478.115, 743.994 469.088 C 743.439 460.062, 741.639 443.276, 739.993 431.787 C 738.347 420.297, 737 406.897, 737 402.009 C 737 397.120, 736.215 384.881, 735.255 374.810 C 729.528 314.726, 732.758 303.842, 754.521 309.884 C 765.803 313.016, 782.192 310.673, 788.648 305.005 C 792.832 301.330, 791.384 300.964, 787.060 304.603 C 780.651 309.995, 768.794 311.338, 752.143 308.556 C 747.389 307.761, 739.788 306.648, 735.251 306.080 C 715.387 303.597, 705.422 296.341, 705.613 284.500 C 705.687 279.915, 705.463 278.363, 704.963 280 C 701.530 291.242, 707.830 302.984, 717.301 302.996 C 724.288 303.006, 729.212 329.892, 729.389 369 C 729.474 387.678, 730.094 403.014, 731.188 413.500 C 734.981 449.843, 734.500 522.240, 730.358 538.500 C 726.456 553.817, 716.691 560.972, 701.659 559.528 C 697.721 559.149, 683.475 558.748, 670 558.635 C 609.369 558.127, 600.962 548.020, 602.299 477.249 C 602.960 442.289, 602.407 432.322, 598.397 407 C 592.389 369.055, 590.113 352.527, 589.033 339 C 588.396 331.025, 587.003 319.100, 585.938 312.500 C 582.086 288.639, 583.608 269.900, 589.584 267.606 C 597.303 264.644, 579.522 264.215, 562.500 266.953 C 539.068 270.721, 540.336 269.105, 551.759 280.648 C 569.777 298.857, 573.429 310.681, 574.420 354 C 574.790 370.225, 575.726 389.606, 576.498 397.070 C 579.313 424.286, 579.748 520.824, 577.079 526.336 C 566.135 548.945, 477.254 564.124, 459.618 546.397 C 452 538.739, 450.088 528.226, 448.998 488 C 448.513 470.125, 447.850 452.575, 447.523 449 C 447.197 445.425, 446.514 431.250, 446.004 417.500 C 445.306 398.662, 444.223 386.215, 441.609 367 C 438.176 341.768, 437.509 333.337, 437.833 319.250 C 437.957 313.860, 438.351 312, 439.370 312 C 443.813 312, 458.338 305.995, 466.527 300.773 C 476.109 294.662, 478.712 287.743, 475.178 277.774 C 473.024 271.695, 472.822 273.609, 474.812 281.248 C 477.839 292.864, 464.899 304.412, 442.574 310.018 C 438.215 311.112, 433.864 312.718, 432.905 313.586 C 431.947 314.453, 429.213 315.771, 426.831 316.515 C 424.449 317.258, 423.434 317.896, 424.576 317.933 C 428.628 318.064, 433.656 325.990, 436.037 336 C 437.571 342.454, 437.570 342.262, 436.533 405 C 435.909 442.745, 436.038 458.046, 437.116 474 C 439.987 516.522, 438.803 526.558, 429.891 535.237 C 426.651 538.393, 424 541.473, 424 542.083 C 424 551.355, 397.873 557.470, 367 555.423 C 360.125 554.967, 351.350 554.550, 347.500 554.497 C 337.422 554.357, 337.723 554.458, 331.269 549.065 C 323.727 542.763, 322.365 539.449, 320.967 524 C 320.345 517.125, 318.968 506.775, 317.907 501 C 315.389 487.296, 315.069 411.306, 317.396 379.424 C 318.195 368.466, 318.793 354.100, 318.724 347.500 C 318.629 338.295, 319.001 334.465, 320.323 331.058 C 325.737 317.106, 286.943 273.717, 256.874 260.094 C 242.781 253.709, 208.712 249.543, 195.500 252.588 M 418.396 579.363 C 392.997 587.656, 384.377 620.243, 404.161 633.178 C 423.833 646.039, 438.580 642.567, 449.625 622.474 C 462.797 598.511, 443.086 571.301, 418.396 579.363 M 725.500 586.810 C 712.149 593.367, 705.910 606.541, 710.384 618.730 C 711.145 620.803, 712.266 624.340, 712.876 626.589 C 719.409 650.700, 753.224 650.716, 767.048 626.615 C 780.361 603.402, 750.321 574.621, 725.500 586.810 M 557 622.105 C 397.698 636.019, 346.766 759.169, 475 820.375 C 578.241 869.652, 731.407 842.044, 767.489 767.653 C 806.159 687.928, 693.699 610.165, 557 622.105 M 647.301 715.080 C 635.467 720.938, 634.585 754.041, 646.054 761.835 C 657.128 769.361, 666.601 760.021, 667.708 740.485 C 668.938 718.753, 660.672 708.462, 647.301 715.080 M 512.208 714.711 C 494.727 718.059, 496.535 773, 514.126 773 C 525.903 773, 529.600 763.330, 528.831 734.539 C 528.463 720.783, 527.403 718.405, 520.282 715.371 C 517.023 713.982, 516.316 713.925, 512.208 714.711" stroke="none" fill="#ab662e" fill-rule="evenodd"/></svg>