<svg xmlns="http://www.w3.org/2000/svg" width="1164" height="1164" viewBox="0 0 1164 1164" version="1.1"><path d="M 755.500 532.832 C 731.926 544.172, 739.922 588.593, 765.500 588.382 C 783.851 588.230, 801.802 562.292, 794.059 547.115 C 787.955 535.151, 766.896 527.350, 755.500 532.832 M 416.308 534.487 C 386.388 549.664, 394.996 592.319, 428 592.426 C 448.228 592.491, 461.432 572.644, 456.059 550.247 C 452.527 535.523, 431.051 527.009, 416.308 534.487" stroke="none" fill="#191920" fill-rule="evenodd"/><path d="M 562.120 582.997 C 556.960 584.648, 550.143 586.416, 546.970 586.927 C 527.962 589.989, 521.280 603.299, 525.070 630.549 C 528.687 656.554, 543.778 672.565, 574.357 682.840 C 579.175 684.460, 583.365 686.031, 583.666 686.333 C 583.967 686.634, 583.635 694.732, 582.928 704.327 C 581.196 727.826, 583.579 734.273, 594 734.273 C 602.209 734.273, 605.474 728.701, 606.464 713 C 607.392 698.298, 609.169 685.860, 610.392 685.518 C 671.161 668.471, 688.036 626.236, 647.906 591.623 C 634.626 580.168, 586.184 575.297, 562.120 582.997" stroke="none" fill="#453123" fill-rule="evenodd"/><path d="M 568 257.678 C 515.804 261.488, 463.475 277.459, 416.721 303.851 C 403.462 311.335, 405.137 308.801, 400.429 328.500 C 398.983 334.550, 395.799 344.900, 393.352 351.500 C 384.554 375.240, 380.952 385.950, 372.163 414.500 C 363.038 444.147, 357.333 460.189, 349.937 477 C 347.639 482.225, 344.925 488.895, 343.908 491.823 C 342.890 494.751, 339.819 502.176, 337.084 508.323 C 330.944 522.120, 328.275 528.656, 321.493 546.500 C 318.567 554.200, 314.960 563.200, 313.478 566.500 C 311.995 569.800, 307.941 579.250, 304.469 587.500 C 300.996 595.750, 294.933 609.925, 290.996 619 C 287.059 628.075, 281.338 643.150, 278.282 652.500 C 275.226 661.850, 270.313 676.193, 267.363 684.373 C 260.111 704.484, 264.987 721.178, 290.846 764.783 C 438.848 1014.351, 825.117 983.100, 924.393 713.525 C 929.897 698.579, 929.795 700.684, 925.371 693.441 C 913.833 674.554, 908.032 663.807, 899.990 646.423 C 886.073 616.343, 883.414 609.348, 875.500 582 C 865.501 547.451, 854.084 513.331, 848.156 500.282 C 845.462 494.352, 840.707 482.075, 837.590 473 C 834.473 463.925, 829.925 451.775, 827.484 446 C 821.436 431.688, 811.604 403.164, 807.869 389.091 C 795.445 342.275, 789.969 319.944, 790.069 316.500 C 790.133 314.300, 790.144 311.769, 790.093 310.876 C 789.847 306.566, 766.005 294.004, 752.450 291.044 C 747.527 289.969, 738.711 287.082, 732.857 284.628 C 682.997 263.731, 621.902 253.743, 568 257.678 M 755 531.594 C 728.750 542.964, 740.058 592.996, 768.126 589.671 C 787.007 587.435, 803.308 560.439, 794.674 545.706 C 787.757 533.904, 766.843 526.465, 755 531.594 M 416.268 532.907 C 386.082 547.023, 392.869 591.097, 425.639 593.758 C 458.277 596.408, 472.030 548.629, 443 533.443 C 437.585 530.610, 421.854 530.295, 416.268 532.907 M 592 557.655 C 457.691 570.526, 387.887 674.333, 464.247 747.641 C 562.613 842.077, 782.928 769.022, 759.590 649.708 C 758.815 645.744, 757.910 640.592, 757.580 638.260 C 751.295 593.874, 662.931 550.858, 592 557.655" stroke="none" fill="#dbb383" fill-rule="evenodd"/><path d="M 205.948 238.895 C 194.246 239.657, 190.318 241.403, 188.064 246.844 C 187.405 248.437, 185.853 250.202, 184.617 250.765 C 179.287 253.193, 163.429 273.368, 149 296.077 C 145.975 300.838, 141.806 307.257, 139.735 310.342 C 132.400 321.270, 115.928 352.534, 109.886 367 C 108.163 371.125, 101.499 384.850, 95.079 397.500 C 88.658 410.150, 80.555 427.700, 77.073 436.500 C 73.591 445.300, 68.966 457, 66.796 462.500 C 59.206 481.729, 49.070 513.669, 44.105 534 C 35.552 569.018, 35.715 567.419, 36.472 608.946 C 37.432 661.589, 37.151 660.300, 61.357 723.323 C 75.179 759.312, 96.478 783.768, 127.500 799.268 C 156.187 813.602, 196.050 806.201, 220.580 781.987 C 234.789 767.961, 254.777 730.367, 260.449 707 C 261.450 702.875, 265.539 690.050, 269.535 678.500 C 273.531 666.950, 278.134 653.225, 279.765 648 C 282.848 638.118, 286.331 629.350, 295.372 608.709 C 306.457 583.403, 317.278 557.587, 321.968 545.259 C 328.337 528.519, 331.089 521.793, 337.084 508.323 C 339.819 502.176, 342.890 494.751, 343.908 491.823 C 344.925 488.895, 347.639 482.225, 349.937 477 C 357.333 460.189, 363.038 444.147, 372.163 414.500 C 380.952 385.950, 384.554 375.240, 393.352 351.500 C 395.799 344.900, 398.970 334.550, 400.401 328.500 C 401.831 322.450, 403.676 315.415, 404.501 312.866 C 409.943 296.047, 400.123 276.131, 380 263.176 C 375.325 260.166, 368.908 255.315, 365.740 252.395 C 361.621 248.599, 358.914 246.925, 356.240 246.519 C 350.650 245.670, 345.570 244.457, 334.500 241.327 C 324.500 238.500, 324.500 238.500, 298 238.881 C 255.834 239.489, 227.938 239.463, 222 238.811 C 218.975 238.479, 211.752 238.517, 205.948 238.895 M 871.500 251.958 C 844.196 259.164, 808.134 282.080, 797.502 298.980 C 795.952 301.444, 793.671 304.258, 792.433 305.232 C 787.333 309.243, 788.812 317.280, 807.869 389.091 C 811.604 403.164, 821.436 431.688, 827.484 446 C 829.925 451.775, 834.473 463.925, 837.590 473 C 840.707 482.075, 845.462 494.352, 848.156 500.282 C 854.084 513.331, 865.501 547.451, 875.500 582 C 883.414 609.348, 886.073 616.343, 899.990 646.423 C 908.032 663.807, 913.833 674.554, 925.371 693.441 C 927.367 696.709, 929 699.796, 929 700.302 C 929 702.699, 949.429 729.460, 957.028 737.017 C 974.975 754.866, 1001.439 765.909, 1030 767.467 C 1035.775 767.781, 1047.025 768.551, 1055 769.176 C 1086.866 771.676, 1119.330 753.381, 1131.932 725.823 C 1154.702 676.030, 1161.078 632.057, 1151.553 590.500 C 1144.931 561.610, 1141.973 550.924, 1137.889 541.146 C 1127.714 516.784, 1120.096 495.231, 1102.848 442 C 1097.801 426.425, 1093.664 415.953, 1087.835 404 C 1083.410 394.925, 1078.901 385.250, 1077.815 382.500 C 1064.924 349.852, 1040.203 321.596, 988 279.838 C 957.240 255.233, 905.766 242.914, 871.500 251.958 M 592 557.655 C 457.691 570.526, 387.887 674.333, 464.247 747.641 C 562.613 842.077, 782.928 769.022, 759.590 649.708 C 758.815 645.744, 757.910 640.592, 757.580 638.260 C 751.295 593.874, 662.931 550.858, 592 557.655 M 562.120 582.997 C 556.960 584.648, 550.143 586.416, 546.970 586.927 C 527.962 589.989, 521.280 603.299, 525.070 630.549 C 528.687 656.554, 543.778 672.565, 574.357 682.840 C 579.175 684.460, 583.365 686.031, 583.666 686.333 C 583.967 686.634, 583.635 694.732, 582.928 704.327 C 581.196 727.826, 583.579 734.273, 594 734.273 C 602.209 734.273, 605.474 728.701, 606.464 713 C 607.392 698.298, 609.169 685.860, 610.392 685.518 C 671.161 668.471, 688.036 626.236, 647.906 591.623 C 634.626 580.168, 586.184 575.297, 562.120 582.997" stroke="none" fill="#b36c34" fill-rule="evenodd"/></svg>