<svg xmlns="http://www.w3.org/2000/svg" width="1164" height="1164" viewBox="0 0 1164 1164" version="1.1"><path d="M 399.678 665.504 C 381.845 670.406, 378.326 688.847, 386.416 735.009 C 388.294 745.729, 390.574 759, 391.482 764.500 C 394.745 784.271, 398.525 790.882, 407.532 792.572 C 426.552 796.140, 441.906 779.514, 444.075 753 C 445.778 732.172, 448.012 711.421, 448.973 707.500 C 456.843 675.370, 434.143 656.031, 399.678 665.504 M 746.500 665.281 C 741.017 667.509, 739.275 668.900, 737.630 672.367 C 735.525 676.803, 735.476 690.509, 737.538 698 C 738.371 701.025, 739.497 710.191, 740.040 718.369 C 740.584 726.547, 741.264 733.617, 741.550 734.082 C 741.837 734.546, 742.432 741.891, 742.871 750.405 C 744.036 772.954, 750.536 782.551, 765.485 783.790 C 782.102 785.168, 796.852 757.397, 798.417 721.786 C 798.801 713.054, 799.660 705.379, 800.532 702.910 C 809.486 677.531, 775.171 653.634, 746.500 665.281" stroke="none" fill="#fffaea" fill-rule="evenodd"/><path d="M 534.500 586.157 C 532.300 586.647, 524.875 588.798, 518 590.938 C 511.125 593.078, 502.659 595.540, 499.187 596.410 C 472.021 603.214, 452.117 642.557, 454.875 684 C 455.515 693.625, 456.476 711.625, 457.010 724 C 457.544 736.375, 458.650 756.625, 459.468 769 C 460.287 781.375, 461.201 795.775, 461.499 801 C 462.276 814.604, 464.752 833.678, 467.470 847 C 474.808 882.960, 477.392 894.348, 479.949 902 C 484.747 916.356, 488.889 931.365, 488.818 934.137 C 488.702 938.630, 493.511 947.732, 497.183 949.970 C 508.543 956.896, 517.074 946.920, 513.086 931.372 C 510.845 922.635, 503.762 898.944, 502.188 894.919 C 500.797 891.365, 498.479 881.803, 495.418 867 C 493.996 860.125, 491.771 849.402, 490.473 843.172 C 486.344 823.356, 482.947 784.796, 480.988 735.500 C 480.463 722.300, 479.576 703.160, 479.017 692.968 C 477.116 658.335, 477.541 654.934, 485.599 640.273 C 493.148 626.537, 497.854 621.217, 504 619.470 C 507.025 618.610, 516.250 615.790, 524.500 613.203 C 540.311 608.246, 637.082 606.391, 661.598 610.575 C 682.369 614.120, 703.240 622.632, 706.394 628.843 C 708.297 632.590, 713.673 652.519, 714.395 658.500 C 714.727 661.250, 715.945 671.150, 717.102 680.500 C 718.867 694.763, 719.106 700.559, 718.584 716.500 C 716.941 766.667, 715.957 782.775, 713.145 805.500 C 711.512 818.700, 709.891 833.100, 709.544 837.500 C 707.757 860.149, 699.347 898.537, 688.074 935.500 C 687.571 937.150, 686.844 940.975, 686.459 944 C 685.825 948.974, 669.503 996.970, 666.973 1001.300 C 660.286 1012.742, 664.156 1013.230, 677.745 1002.658 C 684.349 997.520, 691.335 992.338, 693.269 991.142 C 697.402 988.588, 698.368 986.719, 704.448 969.497 C 708.372 958.384, 713.571 937.416, 714.489 929 C 714.639 927.625, 715.685 923.125, 716.815 919 C 726.946 881.994, 730.911 862.514, 732.488 842 C 732.847 837.325, 734.487 822.925, 736.131 810 C 739.510 783.439, 741.517 741.403, 739.973 729.500 C 739.474 725.650, 739.048 719.350, 739.026 715.500 C 739.004 711.650, 738.089 704.759, 736.993 700.187 C 734.238 688.696, 734.275 675.910, 737.075 671.378 C 739.885 666.833, 738.493 654.867, 732.903 635.510 C 726.740 614.164, 724.208 610.393, 711 602.889 C 696.989 594.928, 684.844 590.767, 666.500 587.641 C 656.057 585.862, 541.604 584.575, 534.500 586.157" stroke="none" fill="#7b728b" fill-rule="evenodd"/><path d="M 761.500 559.976 C 753.712 561.235, 738.873 573.652, 735.026 582.131 C 721.242 612.510, 771.359 636.894, 792.551 610.119 C 811.722 585.898, 804.014 563.655, 775.337 560.444 C 772.677 560.146, 769.375 559.773, 768 559.616 C 766.625 559.458, 763.700 559.620, 761.500 559.976 M 428.500 562.883 C 399.391 570.385, 392.431 621.030, 419.671 627.126 C 444.139 632.601, 471.069 607.503, 466.553 583.432 C 464.530 572.650, 440.647 559.752, 428.500 562.883" stroke="none" fill="#1d1d25" fill-rule="evenodd"/><path d="M 925.500 257.376 C 920.216 259.077, 915.777 261.423, 908.500 266.360 C 905.200 268.598, 898.450 272.058, 893.500 274.048 C 875.194 281.408, 864.644 289.462, 836.827 317.314 C 824.180 329.977, 826.208 329.652, 813.083 321.118 C 664.587 224.563, 457.081 241.473, 333.403 360.209 C 324.153 369.088, 325.651 369.949, 296.500 338.990 C 260.541 300.800, 218.841 280.934, 196.500 291.351 C 189.322 294.698, 181.989 301.829, 164.051 322.910 C 155.351 333.135, 145.513 344.567, 142.190 348.315 C 122.524 370.495, 89.384 420.458, 66.747 462.057 C 61.493 471.713, 54.436 484.088, 51.065 489.557 C 13.946 549.779, 20.936 605.859, 68.398 628.621 C 94.316 641.051, 171.974 641.497, 207.392 629.419 C 216.133 626.439, 223.610 624, 224.008 624 C 224.406 624, 225.294 629.737, 225.981 636.750 C 226.669 643.763, 227.382 650.400, 227.566 651.500 C 227.750 652.600, 228.622 657.724, 229.504 662.886 C 250.712 786.958, 362.361 904.594, 486.250 933.399 C 490.106 934.295, 489.174 929.651, 479.945 902 C 477.391 894.347, 474.804 882.943, 467.470 847 C 464.752 833.678, 462.276 814.604, 461.499 801 C 461.201 795.775, 460.287 781.375, 459.468 769 C 458.650 756.625, 457.544 736.375, 457.010 724 C 456.476 711.625, 455.515 693.625, 454.875 684 C 452.117 642.558, 472.001 603.251, 499.187 596.400 C 502.659 595.525, 512.025 592.721, 520 590.169 C 535.635 585.165, 642.813 583.340, 667 587.666 C 685.352 590.948, 697.197 595.047, 711 602.889 C 724.208 610.393, 726.740 614.164, 732.903 635.510 C 738.493 654.867, 739.885 666.833, 737.075 671.378 C 734.329 675.821, 734.279 689.296, 736.968 700 C 738.005 704.125, 738.881 706.600, 738.915 705.500 C 738.948 704.400, 738.312 701.025, 737.500 698 C 730.770 672.928, 737.311 664.500, 763.500 664.500 C 793.051 664.500, 808.449 680.471, 800.532 702.910 C 799.660 705.379, 798.801 713.054, 798.417 721.786 C 796.852 757.397, 782.102 785.168, 765.485 783.790 C 750.774 782.570, 744.064 772.913, 742.835 751.188 C 742.377 743.110, 741.571 734.025, 741.043 731 C 740.082 725.500, 740.082 725.500, 740.481 731.500 C 741.392 745.209, 739.097 786.723, 736.140 810 C 734.499 822.925, 732.876 837.100, 732.534 841.500 C 730.869 862.933, 725.490 889.016, 715.859 922.356 C 713.400 930.868, 713.220 930.732, 722.671 927.487 C 848.554 884.259, 939.715 784.248, 962.843 664 C 966.845 643.191, 968.014 634.127, 968.007 623.969 C 968 615.438, 968 615.438, 984.446 615.835 C 998.968 616.186, 1002.449 615.934, 1014.196 613.681 C 1022.582 612.074, 1032.675 610.939, 1041.500 610.612 C 1119.012 607.738, 1138.965 550.513, 1097.675 449.500 C 1095.203 443.450, 1092.401 435.800, 1091.450 432.500 C 1086.143 414.087, 1072.118 382.916, 1065.128 374 C 1063.619 372.075, 1059.301 365.775, 1055.532 360 C 1046.705 346.472, 1037.654 334.944, 1030.326 327.895 C 1020.996 318.921, 1001.020 302.094, 994.500 297.718 C 991.200 295.503, 983.325 288.472, 977 282.094 C 963.513 268.493, 963.480 268.470, 948.681 262.120 C 935.558 256.489, 931.095 255.576, 925.500 257.376 M 756.195 560.457 C 725.146 574.483, 724.532 604.434, 754.972 620.102 C 778.183 632.050, 810.975 603.902, 804.004 578.014 C 800.614 565.425, 770.046 554.199, 756.195 560.457 M 429.355 562.079 C 396.350 568.297, 391.006 625.478, 423.133 628.650 C 454.358 631.734, 481.250 592.160, 460.738 573.313 C 451.701 565.009, 438.632 560.331, 429.355 562.079 M 540.500 608.714 C 539.400 608.913, 531.975 611.062, 524 613.491 C 516.025 615.919, 507.025 618.610, 504 619.470 C 497.854 621.217, 493.148 626.537, 485.599 640.273 C 477.541 654.934, 477.116 658.335, 479.017 692.968 C 479.576 703.160, 480.463 722.300, 480.988 735.500 C 482.947 784.796, 486.344 823.356, 490.473 843.172 C 491.771 849.402, 493.996 860.125, 495.418 867 C 498.670 882.726, 500.841 891.527, 502.573 896 C 504.287 900.429, 512.337 927.797, 513.958 934.711 C 515.404 940.873, 514.302 945.428, 510.502 948.998 C 509.160 950.259, 508.295 951.669, 508.581 952.131 C 508.866 952.592, 510.165 959.466, 511.468 967.406 C 513.798 981.610, 516.354 989.521, 519.894 993.488 C 520.881 994.594, 523.358 998.298, 525.397 1001.717 C 537.360 1021.776, 563.611 1029.610, 600.500 1024.128 C 604.350 1023.556, 611.775 1022.615, 617 1022.039 C 622.225 1021.462, 629.875 1020.085, 634 1018.979 C 638.125 1017.873, 645.775 1016.068, 651 1014.967 C 663.553 1012.323, 665 1011.647, 665 1008.423 C 665 1006.981, 665.663 1004.384, 666.474 1002.651 C 670.302 994.464, 685.839 948.869, 686.459 944 C 686.844 940.975, 687.571 937.150, 688.074 935.500 C 699.347 898.537, 707.757 860.149, 709.544 837.500 C 709.891 833.100, 711.512 818.700, 713.145 805.500 C 715.957 782.775, 716.941 766.667, 718.584 716.500 C 719.106 700.559, 718.867 694.763, 717.102 680.500 C 715.945 671.150, 714.727 661.250, 714.395 658.500 C 713.673 652.519, 708.297 632.590, 706.394 628.843 C 703.042 622.242, 678.740 612.780, 658.228 610.089 C 651.058 609.149, 544.961 607.910, 540.500 608.714 M 399.678 665.504 C 381.845 670.406, 378.326 688.847, 386.416 735.009 C 388.294 745.729, 390.574 759, 391.482 764.500 C 394.745 784.271, 398.525 790.882, 407.532 792.572 C 426.552 796.140, 441.906 779.514, 444.075 753 C 445.778 732.172, 448.012 711.421, 448.973 707.500 C 456.843 675.370, 434.143 656.031, 399.678 665.504" stroke="none" fill="#a695c0" fill-rule="evenodd"/></svg>