<svg xmlns="http://www.w3.org/2000/svg" width="1164" height="1164" viewBox="0 0 1164 1164" version="1.1"><path d="M 724.396 45.418 C 709.821 49.980, 690.003 74.543, 683.587 96 C 669.288 143.816, 675.388 153.990, 717.403 152.396 C 736.823 151.660, 738.986 152.028, 751.757 158.239 C 771.434 167.810, 792 158.707, 792 140.428 C 792 128.704, 785.413 93.449, 781.057 81.856 C 770.463 53.665, 746.757 38.420, 724.396 45.418 M 488.275 46.539 C 466.268 52.466, 444.892 77.967, 443.880 99.500 C 441.398 152.334, 449.682 158.171, 510 146.090 C 518.165 144.455, 524.724 143.385, 538.286 141.478 C 565.442 137.658, 564.305 88.206, 536.368 58.031 C 526.132 46.974, 505.215 41.976, 488.275 46.539 M 766.611 295.003 C 738.422 306.012, 728.950 376.333, 752.305 401.228 C 784.968 436.046, 849.137 434.801, 860.459 399.129 C 860.854 397.886, 862.511 395.349, 864.142 393.491 C 884.437 370.377, 843.808 318.775, 790.933 300.512 C 787.321 299.264, 782.150 297.064, 779.441 295.622 C 773.643 292.535, 773.008 292.504, 766.611 295.003 M 268.500 584.681 C 257.194 586.272, 243.290 593.630, 239.553 600 C 233.113 610.979, 243.412 677.516, 256.126 707.071 C 264.557 726.669, 307.726 710.730, 320.094 683.452 C 339.855 639.870, 308.115 579.107, 268.500 584.681 M 877.656 669.539 C 828.420 681.813, 809.628 753.693, 846.645 788.158 C 858.195 798.913, 879.953 802.210, 888.067 794.436 C 903.052 780.079, 922.351 741.567, 925.956 718.824 C 926.538 715.153, 928.361 709.303, 930.007 705.824 C 940.335 683.991, 908.421 661.871, 877.656 669.539 M 501.515 679.604 C 488.323 683.193, 485.783 689.446, 483.891 723 C 481.881 758.633, 484.672 767, 498.570 767 C 515.735 767, 525.851 747.398, 526.697 712.500 C 527.425 682.435, 521.166 674.259, 501.515 679.604 M 670.500 680.412 C 652.247 688.524, 652.704 760.039, 671.069 769.536 C 688.937 778.776, 697.677 762.544, 696.585 722.152 C 695.554 684.067, 688.320 672.491, 670.500 680.412" stroke="none" fill="#9b5925" fill-rule="evenodd"/><path d="M 565.500 585.622 C 426.636 596.750, 340.144 677.803, 380.025 759.434 C 442.794 887.914, 742.001 892.714, 807.297 766.287 C 856.314 671.381, 724.485 572.882, 565.500 585.622 M 504.500 677.965 C 503.400 678.422, 500.649 679.291, 498.387 679.896 C 481.227 684.493, 475.021 757.408, 491.074 765.819 C 511.313 776.422, 527.960 749.578, 527.992 706.288 C 528.008 684.372, 518.036 672.349, 504.500 677.965 M 671.594 678.989 C 653.213 684.815, 650.923 756.815, 668.730 769.017 C 687.488 781.871, 698.846 763.340, 697.548 722 C 696.374 684.603, 689.552 673.297, 671.594 678.989" stroke="none" fill="#e7c8a4" fill-rule="evenodd"/><path d="M 434.500 529.505 C 409.019 538.535, 409.954 584.117, 435.775 591.623 C 464.843 600.073, 489.170 557.039, 466.551 537.179 C 458.037 529.704, 443.656 526.261, 434.500 529.505 M 735.659 532.143 C 711.060 537.672, 706.419 582.849, 729.933 587.892 C 754.309 593.120, 772.414 576.818, 767.630 553.951 C 764.385 538.442, 750.321 528.848, 735.659 532.143" stroke="none" fill="#1e1d23" fill-rule="evenodd"/><path d="M 529 142.717 C 524.875 143.436, 515.425 145.146, 508 146.517 C 477.791 152.096, 466.127 153.037, 458.371 150.521 C 456.338 149.861, 456.167 150.362, 454.563 161.665 C 453.639 168.174, 452.170 178, 451.300 183.500 C 448.625 200.392, 448.454 232.785, 450.902 258.758 C 454.283 294.626, 455.603 290.511, 437.750 299.739 C 396.471 321.075, 358.057 351.421, 328.230 386.258 C 317.171 399.174, 318.545 398.928, 313.963 388.812 C 311.892 384.240, 308.642 377.800, 306.742 374.500 C 304.842 371.200, 301.358 365.125, 299.001 361 C 286.846 339.729, 273.495 324.570, 254.500 310.473 C 252.300 308.840, 245.847 303.335, 240.160 298.238 C 228.230 287.548, 223.751 284.314, 213.735 279.161 C 209.756 277.113, 202.171 272.844, 196.879 269.673 C 178.347 258.568, 149.579 254.024, 136.979 260.211 C 98.979 278.875, 119.625 381.970, 171.313 431.651 C 192.996 452.493, 245.727 480.945, 262.802 481.015 C 269.343 481.042, 269.433 481.549, 265.027 493.428 C 254.495 521.818, 247.681 553.267, 244.591 587.750 C 243.959 594.796, 244.141 594.948, 249.130 591.558 C 292.760 561.910, 344.705 629.175, 320.094 683.452 C 310.493 704.628, 278.406 721.860, 263.108 714.055 C 253.688 709.249, 279.147 765.170, 301.099 797.500 C 431.354 989.337, 721.232 996.105, 870.782 810.801 C 881.031 798.102, 881.031 798.102, 872.265 798.301 C 843.116 798.963, 820.097 759.319, 828.541 723 C 841.177 668.651, 908.881 647.174, 930.115 690.779 C 932.731 696.150, 932.731 696.150, 935.855 684.825 C 953.510 620.821, 951.848 550.466, 931.227 488.929 C 927.382 477.454, 927.382 477.454, 940.582 477.840 C 1003.466 479.677, 1079.474 423.665, 1087.597 369.500 C 1088.422 364, 1089.750 356.960, 1090.548 353.856 C 1094.084 340.109, 1090.528 307.610, 1083.959 293.637 C 1069.054 261.927, 1013.580 267.858, 969 305.927 C 965.975 308.510, 958.325 314.846, 952 320.007 C 922.426 344.138, 909.965 359.143, 891.054 393.402 C 887.027 400.698, 886.589 401.156, 885.328 399.401 C 872.859 382.046, 869.537 379.106, 868.465 384.476 C 867.775 387.932, 866.325 391.005, 864.292 393.320 C 862.578 395.272, 860.854 397.886, 860.459 399.129 C 849.137 434.801, 784.968 436.046, 752.305 401.228 C 728.968 376.352, 738.999 303.271, 766.897 294.913 C 771.385 293.568, 771.351 293.666, 772.999 277.500 C 773.560 272, 774.904 262.550, 775.986 256.500 C 780.900 229.022, 781.918 207.556, 779.477 182.890 C 777.224 160.118, 777.393 160.731, 773.629 161.697 C 766.918 163.419, 760.200 162.346, 751.646 158.186 C 738.997 152.033, 736.796 151.661, 717.403 152.396 C 699.170 153.088, 692.094 152.296, 686.193 148.902 C 684.374 147.856, 682.739 147, 682.559 147 C 682.380 147, 681.918 149.939, 681.534 153.530 C 681.149 157.122, 679.979 163.535, 678.934 167.780 C 677.731 172.666, 676.478 184.126, 675.519 199 C 674.687 211.925, 673.329 229.532, 672.503 238.127 C 671.676 246.723, 671 256.335, 671 259.489 C 671 265.223, 671 265.223, 667.750 264.619 C 632.632 258.093, 573.515 257.543, 548.250 263.507 C 546.100 264.014, 546 263.759, 545.991 257.769 C 545.987 254.321, 545.549 246.550, 545.019 240.500 C 544.488 234.450, 543.366 216.225, 542.524 200 C 540.507 161.143, 538.778 142.425, 537.137 141.694 C 536.786 141.538, 533.125 141.999, 529 142.717 M 435.821 528.423 C 421.218 532.268, 410.640 553.930, 415.388 570.264 C 423.892 599.516, 459.159 600.766, 473.167 572.313 C 484.991 548.295, 462.177 521.483, 435.821 528.423 M 730.701 533.029 C 718.598 539.621, 712.771 553.204, 714.315 571.225 C 715.937 590.144, 741.458 596.518, 758.774 582.329 C 770.520 572.704, 772.423 563.728, 766.387 546.420 C 762.376 534.918, 741.568 527.110, 730.701 533.029 M 565.500 585.622 C 426.636 596.750, 340.144 677.803, 380.025 759.434 C 442.794 887.914, 742.001 892.714, 807.297 766.287 C 856.314 671.381, 724.485 572.882, 565.500 585.622" stroke="none" fill="#dba24c" fill-rule="evenodd"/></svg>