<svg xmlns="http://www.w3.org/2000/svg" width="1164" height="1164" viewBox="0 0 1164 1164" version="1.1"><path d="M 584.500 553.507 C 485.899 571.565, 453.729 760.456, 535.452 841.500 C 608.232 913.674, 706.237 837.363, 706.263 708.500 C 706.281 613.324, 649.882 541.534, 584.500 553.507 M 434.447 558.339 C 407.253 567.287, 394.687 597.925, 411.447 614.415 C 433.306 635.921, 450.299 639.702, 463.664 626.032 C 474.722 614.722, 478.661 587.602, 470.634 578.037 C 469.925 577.191, 468.805 574.608, 468.146 572.295 C 464.930 561.020, 447.827 553.936, 434.447 558.339 M 736.479 561.801 C 712.169 570.207, 707.314 611.804, 729.318 623.143 C 748.652 633.106, 778.501 613.575, 778.443 591 C 778.395 572.474, 754.233 555.662, 736.479 561.801" stroke="none" fill="#545455" fill-rule="evenodd"/><path d="M 213.974 133.940 C 185.120 140.030, 169.046 172.435, 182.254 197.891 C 185.189 203.548, 186.029 202.405, 173.842 209.330 C 169.272 211.927, 169.103 211.946, 164.842 210.364 C 138.125 200.445, 96.549 216.728, 75.284 245.438 C 40.924 291.826, 57.099 351.826, 100.935 340.595 C 104.435 339.699, 107.386 339.085, 107.493 339.232 C 111.726 345.043, 112.727 357.369, 109.516 364.146 C 95.467 393.799, 98.005 443.405, 115.043 472.169 C 130.271 497.878, 161.218 497.450, 175.836 471.328 C 176.407 470.309, 179.032 471.046, 187.415 474.579 C 207.779 483.160, 230.788 485.495, 256.500 481.590 C 267.576 479.907, 266.968 478.366, 261.663 494.666 C 198.274 689.450, 314.537 889.069, 514 927.919 C 539.163 932.820, 546.479 933.362, 591 933.619 C 639.998 933.902, 636.147 934.375, 669 924.043 C 730.045 904.844, 765.279 888.117, 796.500 863.516 C 798.700 861.782, 805.450 857.060, 811.500 853.023 C 822.227 845.865, 825.164 843.617, 846.814 826 C 852.559 821.325, 858.664 816.633, 860.380 815.573 C 877.777 804.826, 881.428 801.047, 884.582 790.520 C 885.686 786.837, 887.828 783.636, 892.628 778.500 C 919.992 749.220, 932.981 720.767, 947.411 658.500 C 955.337 624.295, 958.281 582.646, 954.444 559 C 953.596 553.775, 952.508 544.100, 952.026 537.500 C 950.397 515.197, 946.777 495.478, 942.103 483.441 C 939.680 477.199, 939.450 475.959, 940.816 476.483 C 945.698 478.356, 962.955 480.033, 975.755 479.878 C 990.011 479.706, 990.011 479.706, 995.974 485.394 C 1017.933 506.339, 1061.849 498.590, 1078.276 470.871 C 1088.016 454.435, 1092.162 411.237, 1086.425 385.966 C 1085.880 383.567, 1086.164 383.366, 1091.724 382.218 C 1113.851 377.648, 1126.749 359.485, 1127.742 331.500 C 1128.985 296.451, 1111.870 275.724, 1070.733 262.458 C 1058.904 258.644, 1055.966 256.617, 1051.647 249.293 C 1051.255 248.629, 1052.757 244.461, 1054.985 240.031 C 1069.166 211.824, 1060.110 188.755, 1031.823 181.036 C 990.321 169.710, 960.101 171.638, 928.299 187.643 C 916.093 193.785, 916.093 193.785, 906.268 188.796 C 894.544 182.842, 883.481 181.310, 875 184.466 C 872.525 185.387, 867.447 186.764, 863.715 187.527 C 833.979 193.603, 819.012 228.502, 833.066 258.991 C 836.284 265.975, 836.284 265.975, 833.711 271.737 C 828.619 283.138, 826.755 292.390, 826.253 308.750 C 825.997 317.137, 825.612 324, 825.398 324 C 825.185 324, 822.306 321.821, 819.001 319.158 C 698.181 221.800, 511.433 222.314, 386.575 320.348 C 379.326 326.040, 379.063 326.056, 380.045 320.750 C 380.478 318.413, 381.155 312.675, 381.549 308 C 382.266 299.500, 382.266 299.500, 390.383 290.980 C 425.520 254.100, 417.476 189.932, 376.429 179.664 C 354.615 174.208, 332.250 179.836, 325.431 192.498 C 323.212 196.618, 324.099 196.508, 316 193.667 C 309.500 191.388, 309.500 191.388, 309.824 186.399 C 311.927 153.978, 258.243 124.597, 213.974 133.940 M 584.500 553.507 C 485.899 571.565, 453.729 760.456, 535.452 841.500 C 608.232 913.674, 706.237 837.363, 706.263 708.500 C 706.281 613.324, 649.882 541.534, 584.500 553.507 M 434.447 558.339 C 407.253 567.287, 394.687 597.925, 411.447 614.415 C 433.306 635.921, 450.299 639.702, 463.664 626.032 C 474.722 614.722, 478.661 587.602, 470.634 578.037 C 469.925 577.191, 468.805 574.608, 468.146 572.295 C 464.930 561.020, 447.827 553.936, 434.447 558.339 M 736.479 561.801 C 712.169 570.207, 707.314 611.804, 729.318 623.143 C 748.652 633.106, 778.501 613.575, 778.443 591 C 778.395 572.474, 754.233 555.662, 736.479 561.801" stroke="none" fill="#c9c9c7" fill-rule="evenodd"/></svg>