<svg xmlns="http://www.w3.org/2000/svg" width="1164" height="1164" viewBox="0 0 1164 1164" version="1.1"><path d="M 585.500 577.660 C 505.124 590.964, 459.948 703.695, 498.475 794.818 C 550.468 917.789, 689.967 876.196, 702.027 734.127 C 709.443 646.753, 650.032 566.978, 585.500 577.660 M 578.608 604.138 C 539.239 609.190, 524.778 627.829, 539.923 654 C 559.633 688.059, 565.428 695.549, 575.157 699.538 C 580.447 701.707, 582.069 714.920, 580.554 743.506 C 579.553 762.393, 582.791 770.932, 591.576 772.580 C 606.910 775.457, 613.463 763.041, 613.522 731 C 613.572 703.619, 613.340 704.276, 626.229 694.931 C 656.571 672.932, 669.739 649.457, 661.250 632.500 C 648.424 606.880, 623.605 598.362, 578.608 604.138" stroke="none" fill="#f0e9d4" fill-rule="evenodd"/><path d="M 647.373 128.053 C 603.644 133.756, 569.363 152.086, 534.075 188.633 C 520.177 203.026, 520.177 203.026, 515.339 197.355 C 483.630 160.189, 447.852 152.329, 388.575 169.506 C 361.524 177.345, 301.019 225.419, 310.752 231.339 C 311.163 231.590, 315.130 233.191, 319.566 234.899 C 335.331 240.967, 354.883 256.182, 373.056 276.524 C 382.951 287.600, 390 303.835, 390 315.547 C 390 319.933, 390 319.933, 396.250 315.595 C 506.602 239.006, 658.524 232.070, 775.120 298.298 C 789.740 306.602, 789.740 306.602, 790.340 299.503 C 794.183 254.043, 848.427 213.993, 897.762 220.191 C 917.402 222.659, 921.328 220.328, 912.464 211.464 C 888.525 187.525, 874.255 184.378, 810 188.869 C 788.129 190.398, 768.835 196.690, 756.704 206.250 C 752.068 209.903, 752.094 209.926, 750.885 200.848 C 744.682 154.242, 698.044 121.444, 647.373 128.053 M 992.479 341.250 C 992.228 341.938, 991.130 345.119, 990.040 348.320 C 982.724 369.816, 958.014 390.946, 918 409.925 C 898.565 419.143, 899.378 418.369, 903.005 424.188 C 1018.318 609.205, 908.288 867.279, 688.487 927.334 C 395.089 1007.498, 145.973 712.731, 281.593 445.875 C 288.637 432.014, 284.071 427.347, 268.007 431.990 C 258.648 434.695, 241.192 432.316, 233.144 427.239 C 212.279 414.077, 189.042 377.028, 188.981 356.824 C 188.926 338.975, 185.218 338.911, 173.505 356.558 C 153.390 386.863, 154.079 433.619, 175.075 463.106 C 177.537 466.563, 177.124 467.247, 171.500 469.018 C 166.803 470.497, 155.065 476.428, 146.317 481.744 C 142.917 483.810, 136.167 487.750, 131.317 490.500 C 72.897 523.628, 58.643 583.528, 95.989 638.968 C 106.587 654.701, 116.506 662.918, 148.447 682.421 C 156.483 687.328, 162.707 691.662, 162.279 692.053 C 161.850 692.444, 157.589 695.520, 152.809 698.889 C 102.883 734.076, 97.945 778.549, 134.809 860.990 C 156.200 908.827, 207.008 931.426, 253 913.561 C 254.295 913.058, 254.500 915.137, 254.500 928.739 C 254.500 950.007, 256.061 956.176, 270.853 993.383 C 311.980 1096.831, 406.845 1108.519, 485.840 1019.872 C 491.118 1013.949, 495.585 1009.252, 495.768 1009.434 C 495.950 1009.617, 497.920 1014.431, 500.146 1020.133 C 502.371 1025.835, 505.076 1032.713, 506.155 1035.417 C 511.239 1048.148, 531.873 1071.765, 546.193 1081.242 C 572.012 1098.329, 633.371 1097.989, 670.500 1080.553 C 701.777 1065.866, 741.068 1025.523, 747.129 1001.873 C 748.571 996.247, 749.113 995.986, 751.551 999.750 C 776.288 1037.939, 839.581 1035.493, 901 993.975 C 923.689 978.638, 945.920 937.878, 951.050 902.208 C 952.310 893.449, 951.854 840.580, 950.481 836.253 C 949.799 834.101, 949.955 834.032, 954.179 834.611 C 973.378 837.243, 1013.185 818.201, 1034.159 796.353 C 1077.816 750.875, 1075.127 675.335, 1027.589 611.826 C 1023.605 606.503, 1022.147 608.651, 1040.337 593.051 C 1051.964 583.080, 1060.038 573.241, 1067.050 560.500 C 1068.867 557.200, 1073.370 549.943, 1077.059 544.373 C 1095.044 517.211, 1097.381 470.413, 1082.947 426.500 C 1075.746 404.592, 1040.785 361.906, 1019.466 348.993 C 1008.767 342.512, 993.610 338.163, 992.479 341.250 M 579 604.640 C 538.761 609.234, 526.052 627.451, 542.439 657.045 C 557.208 683.717, 565.745 694.485, 576 699.377 C 581.423 701.964, 582.501 710.325, 581.441 741.576 C 580.617 765.867, 583.368 772, 595.091 772 C 607.365 772, 613.063 759.324, 612.936 732.304 C 612.855 715.030, 613.922 703.565, 615.765 701.910 C 616.169 701.547, 621.913 697.185, 628.529 692.215 C 668.211 662.409, 673.583 633.711, 643.521 612.122 C 633.870 605.192, 604.254 601.758, 579 604.640" stroke="none" fill="#b46d36" fill-rule="evenodd"/><path d="M 432.453 561.265 C 401.946 573.627, 408.053 622.028, 440.116 621.994 C 460.860 621.973, 472.713 602.521, 466.137 579.292 C 462.427 566.186, 444.279 556.474, 432.453 561.265 M 725.461 564.815 C 708.793 572.648, 703.507 599.030, 716.466 609.711 C 732.136 622.628, 752.468 617.227, 761.542 597.737 C 770.663 578.146, 745.654 555.326, 725.461 564.815" stroke="none" fill="#191920" fill-rule="evenodd"/><path d="M 881.421 220.057 C 831.519 226.092, 793.762 259.025, 790.340 299.503 C 789.740 306.602, 789.740 306.602, 775.120 298.298 C 658.524 232.070, 506.602 239.006, 396.250 315.595 C 390 319.933, 390 319.933, 390 315.547 C 390 280.835, 336.327 231.696, 296.817 230.236 C 231.579 227.826, 176.987 282.621, 186.962 340.500 C 187.626 344.350, 188.527 351.775, 188.966 357 C 191.320 385.052, 218.530 423.094, 241.863 430.954 C 248.579 433.216, 261.933 433.746, 268.007 431.990 C 284.071 427.347, 288.637 432.014, 281.593 445.875 C 145.973 712.731, 395.089 1007.498, 688.487 927.334 C 908.288 867.279, 1018.318 609.205, 903.005 424.188 C 899.378 418.369, 898.565 419.143, 918 409.925 C 980.567 380.249, 999.982 351.722, 994.077 298.142 C 988.696 249.305, 959.122 221.170, 912.500 220.532 C 903.150 220.404, 893.925 220.052, 892 219.750 C 890.075 219.448, 885.314 219.586, 881.421 220.057 M 431.054 560.667 C 400.760 571.775, 408.310 623, 440.240 623 C 477.714 623, 478.495 561.893, 441.053 559.406 C 437.547 559.173, 433.861 559.638, 431.054 560.667 M 726.608 563.413 C 709.117 569.923, 702.053 597.684, 714.928 609.316 C 733.256 625.875, 761.752 614.780, 764.694 589.938 C 766.657 573.364, 743.398 557.165, 726.608 563.413 M 585.500 577.660 C 505.124 590.964, 459.948 703.695, 498.475 794.818 C 550.468 917.789, 689.967 876.196, 702.027 734.127 C 709.443 646.753, 650.032 566.978, 585.500 577.660" stroke="none" fill="#e18f39" fill-rule="evenodd"/></svg>