<svg xmlns="http://www.w3.org/2000/svg" width="1164" height="1164" viewBox="0 0 1164 1164" version="1.1"><path d="M 565 498.491 C 524.405 503.419, 516.439 524.407, 542.699 557.245 C 578.962 602.590, 597.673 606.979, 622.207 575.895 C 625.634 571.553, 629.089 568, 629.885 568 C 630.682 568, 631.039 567.706, 630.680 567.346 C 630.320 566.987, 632.424 563.949, 635.355 560.596 C 654.028 539.234, 655.916 523.418, 641.915 505.620 C 635.832 497.885, 598.499 494.425, 565 498.491 M 721.500 882.005 C 719.300 882.440, 713.675 883.321, 709 883.962 C 698.009 885.470, 690.292 887.398, 681 890.959 C 676.875 892.539, 670.841 894.107, 667.591 894.444 C 642.775 897.011, 615.762 936.997, 627.289 954.101 C 632.868 962.379, 644.955 966.694, 653.713 963.534 C 656.346 962.584, 661.425 961.462, 665 961.040 C 668.575 960.619, 675.170 959.470, 679.656 958.487 C 689.110 956.415, 691.196 957.459, 700.073 968.706 C 721.276 995.571, 747.614 994.892, 746.869 967.500 C 746.683 960.676, 747.057 958.565, 749.411 953.136 C 751.222 948.960, 752.363 944.241, 752.728 939.408 C 753.189 933.321, 753.617 931.939, 755.196 931.438 C 770.037 926.727, 778.775 903.548, 769.535 893.402 C 767.079 890.706, 764.552 887.268, 763.919 885.763 C 763.286 884.257, 762.453 883.220, 762.068 883.458 C 761.683 883.696, 759.598 883.260, 757.434 882.489 C 753.089 880.941, 728.551 880.611, 721.500 882.005 M 431.500 893.965 C 427.100 894.396, 421.025 895.255, 418 895.875 C 414.975 896.495, 410.346 897.441, 407.714 897.978 C 378.467 903.939, 384.029 935.250, 417.186 951.296 C 425.873 955.500, 425.873 955.500, 425.936 966.614 C 426.245 1020.441, 464.626 1031.946, 486.441 984.750 C 492.334 972, 492.334 972, 499.724 972 C 503.789 972, 509.069 971.508, 511.458 970.906 C 514.882 970.044, 517.433 970.150, 523.508 971.406 C 532.584 973.283, 556.001 973.568, 561.101 971.864 C 571.954 968.237, 579.588 950.038, 573.750 941.710 C 564.854 929.020, 558.791 923.228, 542.853 912.196 C 523.309 898.667, 521.512 897.851, 509.176 896.915 C 503.304 896.469, 496.700 895.584, 494.500 894.947 C 489.679 893.553, 443.125 892.827, 431.500 893.965" stroke="none" fill="#e98f13" fill-rule="evenodd"/><path d="M 744 404.516 C 724.617 408.477, 706.237 421.401, 697.092 437.500 C 685.418 458.051, 682.014 467.601, 686.846 466.245 C 704.864 461.187, 725.192 475.808, 725.108 493.763 C 725.016 513.620, 712.595 527, 694.257 527 C 687.245 527, 687.075 527.258, 690.137 533.290 C 713.779 579.868, 771.838 593.262, 806.300 560.089 C 828.190 539.018, 840.369 507.534, 840.376 472 C 840.379 455.466, 826.288 434.829, 805.821 421.393 C 799.212 417.054, 756.058 402.561, 751.333 403.094 C 750.875 403.146, 747.575 403.786, 744 404.516 M 411.462 410.965 C 391.223 413.283, 360.631 446.388, 353.025 474.201 C 342.978 510.937, 357.328 550.630, 385.303 563.487 C 433.686 585.722, 476.045 571.804, 492.615 528.227 C 495.774 519.919, 495.775 519.922, 489.947 522.806 C 458.624 538.308, 431.241 496.323, 457.563 473.153 C 465.321 466.325, 486.568 463.908, 495.870 468.797 C 500.240 471.093, 500.240 471.093, 499.563 467.484 C 491.322 423.558, 462.569 405.112, 411.462 410.965" stroke="none" fill="#fffaea" fill-rule="evenodd"/><path d="M 739 369.142 C 702.811 371.263, 678.318 386.195, 655.114 420.283 C 642.456 438.879, 637.059 495.334, 646.250 513.012 C 650.305 520.812, 650.508 521.623, 650.684 530.686 C 650.906 542.096, 653.392 547.236, 663.880 557.970 C 667.389 561.562, 673.882 568.496, 678.308 573.379 C 696.377 593.316, 717.696 604.957, 752.818 614.065 C 782.044 621.644, 805.856 613.235, 833.558 585.551 C 839.640 579.473, 847.466 571.800, 850.948 568.500 C 863.531 556.576, 869.220 546.521, 870.534 533.886 C 870.899 530.374, 872.326 523.900, 873.704 519.500 C 878.788 503.268, 877.872 486.235, 870.100 452.500 C 859.531 406.620, 832.964 381.124, 789.961 375.594 C 783.615 374.778, 776.402 373.244, 773.932 372.185 C 768.615 369.906, 759.990 367.941, 756.201 368.146 C 754.715 368.226, 746.975 368.674, 739 369.142 M 397.227 377.517 C 389.926 379.982, 382.951 382.003, 381.727 382.007 C 376.860 382.022, 362.267 386.247, 354.488 389.893 C 303.847 413.624, 282.407 473.065, 303.410 531.500 C 305.387 537, 308.136 545.886, 309.519 551.247 C 317.469 582.065, 336.609 601.041, 373 614.183 C 389.283 620.064, 433.718 614.346, 449.187 604.379 C 452.072 602.521, 454.910 601, 455.494 601 C 464.543 601, 499.905 572.413, 512.210 555.150 C 546.159 507.522, 528.111 417.660, 478.147 385.555 C 458.099 372.674, 422.141 369.101, 397.227 377.517 M 744 404.516 C 724.617 408.477, 706.237 421.401, 697.092 437.500 C 685.344 458.182, 682.088 467.392, 686.846 466.483 C 688.306 466.204, 687.034 466.889, 684.020 468.005 C 652.297 479.754, 659.433 523.426, 693.500 526.015 C 702.500 526.699, 702.500 526.699, 695.250 526.849 C 687.185 527.017, 687.043 527.195, 690.137 533.290 C 713.779 579.868, 771.838 593.262, 806.300 560.089 C 828.190 539.018, 840.369 507.534, 840.376 472 C 840.379 455.466, 826.288 434.829, 805.821 421.393 C 799.212 417.054, 756.058 402.561, 751.333 403.094 C 750.875 403.146, 747.575 403.786, 744 404.516 M 411.462 410.965 C 391.223 413.283, 360.631 446.388, 353.025 474.201 C 342.978 510.937, 357.328 550.630, 385.303 563.487 C 433.686 585.722, 476.045 571.804, 492.615 528.227 C 495.644 520.261, 495.608 519.601, 492.250 521.553 C 489.500 523.152, 489.500 523.152, 491.991 521.326 C 513.205 505.774, 514.469 479.037, 494.463 469.056 C 492.283 467.969, 490.957 467.062, 491.515 467.040 C 492.073 467.018, 494.266 467.931, 496.389 469.068 C 500.248 471.137, 500.248 471.137, 499.567 467.506 C 491.322 423.556, 462.579 405.110, 411.462 410.965 M 622.207 575.895 C 600.915 602.872, 588.101 603.290, 561.425 577.877 C 550.536 567.504, 543.144 566.402, 525.914 572.585 C 513.976 576.869, 510.940 578.772, 502.668 587.157 C 495.239 594.688, 468.920 610, 463.405 610 C 443.768 610, 415.592 645.623, 424.519 659.163 C 435.318 675.543, 436.179 698.792, 426.508 712.852 C 422.167 719.162, 422.029 718.159, 428.162 724.860 C 450.390 749.150, 445.389 788.972, 418.360 802.907 C 416.237 804.002, 412.402 805.788, 409.838 806.875 C 405.176 808.853, 405.176 808.853, 406.697 814.042 C 410.177 825.915, 406.542 838.084, 396.338 848.723 C 387.738 857.689, 391.856 888.280, 402.101 891.532 C 404.187 892.194, 404.734 895, 402.777 895 C 402.105 895, 402.585 895.722, 403.845 896.604 C 405.196 897.550, 407.233 898.002, 408.817 897.706 C 410.293 897.430, 415.550 896.399, 420.500 895.414 C 432.056 893.116, 486.580 892.664, 494 894.805 C 496.475 895.519, 503.304 896.468, 509.176 896.914 C 521.512 897.851, 523.309 898.667, 542.853 912.196 C 558.726 923.183, 566.746 930.848, 573.412 941.401 C 575.245 944.303, 575.245 944.303, 593.872 943.534 C 625.654 942.223, 624.141 942.617, 626.590 935 C 633.792 912.601, 650.345 896.228, 667.591 894.444 C 670.841 894.107, 676.875 892.539, 681 890.959 C 690.067 887.485, 697.852 885.523, 708.500 884.030 C 712.900 883.413, 718.938 882.479, 721.917 881.954 C 730.238 880.488, 752.787 880.834, 757.462 882.499 C 762.482 884.287, 762.553 884.180, 760.476 877.928 C 759.268 874.290, 758.897 870.866, 759.245 866.542 C 759.741 860.359, 759.741 860.359, 755.393 858.053 C 749.023 854.673, 744.156 849.488, 740.883 842.593 C 739.292 839.242, 736.544 834.568, 734.775 832.207 C 728.692 824.083, 729.449 814.731, 737.614 797.151 C 741.837 788.059, 741.898 787.786, 739.822 787.243 C 713.728 780.420, 706.982 739.687, 728.115 716.564 C 733.084 711.128, 733.084 711.128, 729.682 706.670 C 721.907 696.485, 720.522 671.840, 726.683 653.334 C 729.735 644.167, 729.735 644.167, 727.083 639.334 C 723.335 632.501, 716.644 622.859, 714.012 620.500 C 712.785 619.400, 709.527 615.669, 706.771 612.208 C 704.016 608.747, 696.977 602.032, 691.131 597.286 C 685.284 592.539, 678.925 587.186, 677 585.390 C 672.333 581.037, 655.318 573.473, 643.382 570.445 C 629.074 566.815, 629.448 566.719, 622.207 575.895" stroke="none" fill="#e7c8a4" fill-rule="evenodd"/><path d="M 473.059 469.058 C 455.336 473.699, 448.988 480.736, 449.010 495.718 C 449.054 526.655, 489.613 535.593, 503.281 507.679 C 515.729 482.257, 499.900 462.031, 473.059 469.058 M 684 468.881 C 663.517 477.405, 658.008 505.636, 674.411 518.020 C 696.233 534.496, 723.500 521.432, 723.500 494.500 C 723.500 475.385, 701.953 461.410, 684 468.881" stroke="none" fill="#191920" fill-rule="evenodd"/><path d="M 572.500 247.609 C 511.777 253.722, 467.647 267.518, 414.176 297.107 C 409.853 299.500, 409.853 299.500, 401.176 290.313 C 384.708 272.874, 366.348 263.909, 340.041 260.461 C 333.715 259.632, 326.955 258.534, 325.020 258.022 C 316.740 255.833, 299.046 256.019, 283 258.465 C 281.625 258.675, 277.914 259.128, 274.754 259.471 C 260.783 260.991, 244.318 267.237, 240.080 272.626 C 237.739 275.602, 237.679 275.831, 236.078 288 C 235.463 292.675, 234.666 298.075, 234.306 300 C 232.962 307.204, 233.704 355.133, 235.345 367 C 236.219 373.325, 237.199 380.525, 237.523 383 C 240.815 408.142, 254.644 445.034, 265.666 458.078 C 266.801 459.422, 266.400 461.038, 262.978 468.929 C 257.307 482.004, 248.878 508.016, 244.971 524.500 C 241.749 538.094, 241.460 538.776, 235.003 548 C 212.055 580.782, 200.007 617.754, 193.619 675 C 187.971 725.614, 191.460 760.025, 207.661 813.500 C 238.896 916.593, 256.500 949.617, 288.944 965.976 C 314.397 978.809, 335.002 957.641, 334.999 918.662 C 334.999 908.500, 334.999 908.500, 348.397 908.846 C 366.609 909.315, 373.043 905.778, 380.947 890.949 C 384.736 883.838, 383.287 883.954, 392.809 890 C 400.279 894.742, 404 896.105, 404 894.099 C 404 893.603, 402.403 892.255, 400.451 891.104 C 395.096 887.944, 394.207 884.843, 391.312 859.233 C 390.717 853.965, 390.717 853.965, 396.892 847.534 C 406.797 837.219, 409.967 826.321, 406.646 814.001 C 405.831 810.977, 405.240 808.476, 405.332 808.443 C 443.996 794.804, 454.838 753.701, 427.547 724.224 C 422.097 718.338, 422.097 718.338, 424.895 714.919 C 436.094 701.235, 435.999 677.409, 424.676 659.708 C 419.877 652.206, 419.879 652.196, 427.750 639.013 C 439.580 619.201, 450.163 610.407, 462.598 610.059 C 469.978 609.852, 495.902 594.327, 504.885 584.734 C 507.892 581.523, 512.327 578.045, 514.893 576.886 C 527.276 571.292, 532.659 569.759, 542.111 569.135 C 551.721 568.500, 551.721 568.500, 541.986 556.325 C 507.409 513.081, 536.252 491.058, 618.328 498.035 C 633.482 499.323, 633.839 499.401, 638.323 502.445 C 642 504.940, 642 504.940, 642.009 492.220 C 642.045 440.404, 648.761 421.496, 676.829 394.190 C 699.815 371.827, 746.557 361.183, 774.099 372.039 C 776.970 373.171, 784.535 374.761, 790.909 375.573 C 818.564 379.097, 835.776 388.916, 851.049 409.882 C 863.223 426.595, 864.978 430.430, 869.636 450.500 C 877.984 486.473, 878.967 502.990, 873.742 519.500 C 872.349 523.900, 870.950 530.260, 870.632 533.634 C 869.408 546.645, 864.616 555.314, 851.803 567.701 C 847.366 571.990, 839.858 579.501, 835.118 584.392 C 799.053 621.603, 767.722 625.675, 713.675 600.176 C 695.199 591.459, 662.065 560.889, 653.316 544.488 C 650.133 538.520, 650.133 538.520, 649.014 541.464 C 647.581 545.232, 642.164 552.807, 635.230 560.738 C 631.561 564.935, 630.222 567.119, 631.138 567.411 C 631.887 567.649, 634.975 568.366, 638 569.004 C 665.244 574.751, 686.108 588.561, 712.133 618.077 C 725.259 632.963, 730.484 643.077, 728.222 649.221 C 720.037 671.457, 721.382 698.262, 731.208 708.722 C 733.301 710.950, 733.301 710.950, 729.235 715.361 C 707.471 738.973, 714.949 787, 740.390 787 C 742.455 787, 742.583 786.456, 738.377 795.559 C 728.752 816.393, 728.631 824.918, 737.801 836.302 C 739.486 838.393, 741.144 841.378, 741.486 842.935 C 742.381 847.013, 748.427 853.632, 754.342 857.010 C 759.446 859.926, 759.446 859.926, 759.473 868.213 C 759.545 890.488, 774.679 904.500, 798.665 904.500 C 809.830 904.500, 809.830 904.500, 810.470 910 C 814.251 942.483, 841.982 946.129, 871.500 918.025 C 875.900 913.835, 883.211 907.120, 887.746 903.101 C 901.826 890.626, 918.141 862.908, 943.430 808.500 C 961.379 769.884, 972.933 731.842, 978.965 691.500 C 980.116 683.800, 981.768 672.775, 982.637 667 C 984.692 653.330, 984.079 608.587, 981.677 597 C 974.553 562.621, 963.130 538.521, 944.943 519.500 C 938.250 512.500, 938.250 512.500, 935.163 500.500 C 933.465 493.900, 930.483 483.799, 928.538 478.054 C 926.592 472.308, 925 467.520, 925 467.414 C 925 467.307, 927.362 464.808, 930.250 461.860 C 954.088 437.523, 978.484 380.100, 978.836 347.500 C 979.217 312.289, 964.985 279.375, 945.494 270.386 C 930.835 263.625, 898.502 260.362, 882 263.978 C 850.065 270.976, 825.600 282.151, 799.994 301.437 C 795.487 304.831, 795.487 304.831, 783.994 297.820 C 762.136 284.489, 735.085 272.162, 709.500 263.874 C 690.902 257.849, 676.793 254.553, 652.352 250.524 C 651.170 250.329, 647.570 249.867, 644.352 249.498 C 641.133 249.129, 637.375 248.605, 636 248.335 C 632.796 247.705, 577.797 247.076, 572.500 247.609 M 399.500 376.630 C 394 378.616, 386.125 380.866, 382 381.630 C 316.871 393.698, 276.570 464.687, 300.814 524.636 C 303.965 532.429, 306.964 541.798, 309.569 551.987 C 320.433 594.477, 363.294 622.131, 408.678 615.931 C 423.793 613.867, 445.360 607.773, 448.963 604.549 C 449.809 603.793, 454.562 601.553, 459.527 599.572 C 508.909 579.862, 535.069 529.467, 527.623 468.392 C 519.410 401.030, 456.573 356.026, 399.500 376.630" stroke="none" fill="#62625b" fill-rule="evenodd"/></svg>