<svg xmlns="http://www.w3.org/2000/svg" width="1164" height="1164" viewBox="0 0 1164 1164" version="1.1"><path d="M 576 478.682 C 533.597 483.069, 529.859 487.156, 544.105 513.552 C 566.977 555.931, 583.488 572.474, 602.910 572.473 C 614.220 572.473, 618.154 569.479, 625.277 555.450 C 626.659 552.728, 632.145 544.425, 637.468 537 C 642.791 529.575, 648.716 520.125, 650.634 516 C 652.553 511.875, 654.594 507.640, 655.171 506.588 C 667.276 484.514, 633.774 472.705, 576 478.682 M 742 886.751 C 724.248 889.233, 708.004 892.467, 704.611 894.195 C 685.234 904.060, 678.941 908.587, 673.945 916.254 C 670.281 921.876, 670.026 922.834, 668.548 936.474 C 667.642 944.837, 675.162 961.818, 683.330 969.853 C 696.717 983.022, 708.608 975.093, 710.273 951.887 C 711.104 940.313, 712.002 940.384, 718.102 952.497 C 735.534 987.115, 763.412 979.316, 754.731 942.250 C 753.926 938.813, 753.378 936, 753.512 936 C 753.646 936, 755.371 936.675, 757.346 937.500 C 782.231 947.898, 790.383 913.530, 767.121 896.288 C 757.170 888.913, 748.926 885.783, 742 886.751 M 459.500 904.273 C 451.397 905.363, 451.010 905.455, 447 907.243 C 445.075 908.101, 440.359 910.067, 436.520 911.612 C 427.600 915.201, 423.004 919.401, 419.421 927.238 C 409.058 949.905, 424.487 962.713, 448.346 951.250 C 453.211 948.913, 457.383 947, 457.616 947 C 457.850 947, 457.088 948.868, 455.923 951.151 C 447.834 967.007, 454.235 990.541, 467.209 992.646 C 474.959 993.904, 480.096 989.677, 488.246 975.333 C 489.756 972.675, 491.426 969.825, 491.957 969 C 492.487 968.175, 493.794 965.475, 494.861 963 C 496.800 958.500, 496.800 958.500, 498.614 963 C 508.919 988.564, 530.758 997.578, 539.750 979.980 C 544.227 971.218, 542.697 963.582, 533.587 949.212 C 529.622 942.959, 527.622 938.926, 528.340 938.632 C 528.978 938.371, 528.724 938.122, 527.776 938.079 C 526.827 938.036, 522.817 935.188, 518.865 931.750 C 489.270 906.012, 479.653 901.561, 459.500 904.273" stroke="none" fill="#e98f13" fill-rule="evenodd"/><path d="M 442.500 467.229 C 416.372 476.559, 411.254 517.966, 435.604 523.022 C 458.759 527.828, 479.693 504.733, 472.859 481.922 C 469.362 470.251, 454.365 462.992, 442.500 467.229 M 743 470.173 C 730.202 476.790, 728.144 511.744, 740 521.128 C 743.542 523.931, 754.889 526.997, 761.730 526.999 C 778.083 527.003, 794.375 499.735, 787.055 484.614 C 780.858 471.813, 755.748 463.583, 743 470.173" stroke="none" fill="#191920" fill-rule="evenodd"/><path d="M 653.771 509.250 C 651.485 515.853, 646.041 525.079, 637.034 537.615 C 631.949 544.693, 626.658 552.715, 625.276 555.442 C 618.168 569.468, 614.223 572.473, 602.910 572.473 C 584.174 572.474, 567.294 556.142, 546.409 517.809 C 543.320 512.139, 540.660 507.359, 540.499 507.186 C 539.110 505.701, 509.441 515.140, 491.064 522.913 C 453.192 538.933, 397.609 579.628, 400.430 589.270 C 416.379 643.798, 411.766 737.558, 391.146 777.948 C 367.474 824.318, 369.110 818.333, 376.642 831.007 C 396.047 863.656, 443.917 909.043, 454.626 904.945 C 458.497 903.464, 475.049 903.536, 479.732 905.055 C 490.471 908.536, 498.341 913.897, 518.650 931.565 C 537.396 947.873, 606.004 950.866, 659.478 937.709 C 668.457 935.500, 668.457 935.500, 669.510 928.428 C 671.628 914.205, 678.531 907.473, 704.611 894.195 C 715.113 888.847, 747.516 885.495, 754.967 888.984 C 764.917 893.645, 800.832 857.402, 819.323 824.040 C 823.120 817.189, 822.543 815.031, 810.984 792.821 C 795.055 762.213, 780.327 699.139, 781.254 665.500 C 781.735 648.029, 788.640 606.975, 793.985 589.800 C 800.101 570.148, 726.278 522.523, 668 508.525 C 654.845 505.365, 655.121 505.351, 653.771 509.250" stroke="none" fill="#f9edd0" fill-rule="evenodd"/><path d="M 621.390 127.482 C 611.166 133.612, 589.421 181.673, 586.421 204.772 C 585.511 211.784, 585.170 211.802, 579.764 205.123 C 555.533 175.189, 527.523 210.348, 545.582 248.030 C 547.462 251.953, 549 255.293, 549 255.453 C 549 255.612, 546.638 256.046, 543.750 256.418 C 468.997 266.038, 390.688 308.394, 335.844 368.872 C 326.038 379.686, 326.520 379.606, 316.640 372.033 C 292.886 353.827, 275.623 362.294, 261.398 399.127 C 259.434 404.211, 255.853 412.765, 253.439 418.135 C 251.026 423.505, 246.597 434.109, 243.597 441.699 C 240.597 449.290, 236.135 459.775, 233.681 465 C 221.381 491.192, 216.283 504.915, 207.864 534.500 C 204.577 546.050, 201.282 557.300, 200.541 559.500 C 199.800 561.700, 196.855 573.400, 193.997 585.500 C 191.138 597.600, 185.001 622.800, 180.358 641.500 C 168.572 688.976, 156.993 743.636, 149.959 785 C 149.351 788.575, 148.018 796, 146.997 801.500 C 145.976 807, 144.843 813.750, 144.480 816.500 C 144.116 819.250, 142.060 830.349, 139.910 841.165 C 133.783 871.981, 135.327 877.813, 153.159 891.211 C 172.862 906.016, 228.367 916.872, 256.790 911.480 C 284.003 906.318, 329.355 880.241, 351.321 857.125 C 357.870 850.233, 357.966 850.192, 360.595 853.127 C 378.735 873.382, 438.679 911.431, 446.543 907.681 C 450.244 905.916, 450.244 905.916, 442.690 900.708 C 412.542 879.925, 389.022 854.588, 373.967 826.676 C 369.438 818.279, 368.579 820.867, 388.788 782 C 404.920 750.974, 408.043 738.038, 408.699 699.500 C 409.544 649.889, 406.926 614.911, 400.482 589.731 C 399.170 584.601, 425.148 560.448, 448.639 544.958 C 472.243 529.393, 510.269 513.030, 534.552 507.989 C 537.548 507.367, 540 506.722, 540 506.556 C 540 506.390, 539.059 504.126, 537.908 501.525 C 530.293 484.310, 544.409 479.193, 602.045 478.278 C 647.393 477.558, 658.120 481.741, 656.621 499.561 C 656.110 505.623, 656.110 505.623, 662.254 506.892 C 707.221 516.179, 752.147 539.835, 784.840 571.439 C 796.793 582.994, 796.373 581.961, 793.442 592.590 C 792.091 597.490, 789.646 608.760, 788.010 617.633 C 779.763 662.368, 779.408 669.411, 783.967 698 C 791.622 746.004, 798.358 767.066, 820.655 812.705 C 823.198 817.910, 823.198 817.910, 819.918 823.705 C 807.116 846.322, 784.240 873.024, 765.661 887.035 C 760.209 891.147, 760.157 890.725, 766.738 895.905 C 773.853 901.505, 798.818 886.273, 834.416 854.612 C 842.105 847.774, 839.890 847.078, 853.738 860.684 C 859.140 865.991, 863.373 869.272, 865.784 870.019 C 867.828 870.653, 874.492 873.599, 880.593 876.565 C 891.549 881.892, 895.447 883.408, 918 891.111 C 975.687 910.813, 1010.356 908.114, 1033.490 882.117 C 1046.886 867.063, 1053.806 838.712, 1048.528 820.500 C 1045.398 809.699, 1041.403 784.325, 1039.475 763 C 1037.952 746.152, 1037.039 739.704, 1031.833 709 C 1030.201 699.375, 1028.447 689.025, 1027.935 686 C 1027.423 682.975, 1026.103 677.575, 1025.002 674 C 1023.902 670.425, 1022.075 661.200, 1020.943 653.500 C 1016.189 621.162, 1009.625 596.329, 998.214 567.500 C 996.036 562, 991.192 548.500, 987.448 537.500 C 982.312 522.410, 978.270 512.836, 970.981 498.500 C 965.667 488.050, 960.736 477.700, 960.023 475.500 C 955.814 462.515, 937.064 423.976, 930.289 414.382 C 929.169 412.797, 926.792 408.575, 925.005 405 C 906.900 368.771, 888.518 358.314, 870.596 374.049 C 867.166 377.062, 867.166 377.062, 846.833 356.746 C 788.152 298.116, 716.685 263.248, 637.250 254.492 C 632.376 253.955, 631.003 253.440, 631.012 252.152 C 631.033 249.402, 635.582 233.893, 638.243 227.500 C 648.311 203.313, 655.260 154.886, 650.556 141.698 C 645.658 127.967, 631.828 121.226, 621.390 127.482 M 442.500 467.229 C 416.372 476.559, 411.254 517.966, 435.604 523.022 C 458.759 527.828, 479.693 504.733, 472.859 481.922 C 469.362 470.251, 454.365 462.992, 442.500 467.229 M 743 470.173 C 730.202 476.790, 728.144 511.744, 740 521.128 C 743.542 523.931, 754.889 526.997, 761.730 526.999 C 778.083 527.003, 794.375 499.735, 787.055 484.614 C 780.858 471.813, 755.748 463.583, 743 470.173" stroke="none" fill="#5b5b5b" fill-rule="evenodd"/></svg>