<svg xmlns="http://www.w3.org/2000/svg" width="1164" height="1164" viewBox="0 0 1164 1164" version="1.1"><path d="M 660.500 138.012 C 634.786 140.368, 608.108 157.723, 598.710 178.208 C 595.982 184.154, 596.365 184.212, 590.437 176.957 C 558.854 138.299, 495.604 148.410, 470.504 196.130 C 467.017 202.760, 467.017 202.760, 460.637 196.630 C 440.833 177.604, 419.118 175.461, 379 188.573 C 371.409 191.053, 355.996 199.529, 343.135 208.293 C 333.884 214.597, 308.198 239.525, 296.954 253.109 C 278.531 275.369, 274.055 284.932, 274.021 302.113 C 274 312.726, 274 312.726, 264.250 313.409 C 229.443 315.849, 199.089 325.116, 184.079 337.888 C 153.617 363.805, 145.128 433.326, 168.058 469.088 C 172.038 475.294, 171.950 475.479, 164.346 476.880 C 112.262 486.477, 85.046 535.607, 105.003 584.008 C 115.731 610.027, 126.458 621.013, 152.840 633 C 164.233 638.176, 166.810 639.704, 165.497 640.500 C 117.479 669.617, 99.479 726.160, 122.885 774.353 C 132.869 794.909, 160.615 811.689, 192.547 816.482 C 204.346 818.253, 203.859 817.783, 199.402 823.116 C 171.463 856.544, 168.684 904.637, 193.357 927.718 C 222.597 955.070, 264.377 956.477, 320.033 931.985 C 330.854 927.223, 330.045 926.991, 328.802 934.500 C 324.491 960.553, 347.392 1020.018, 356.767 1007.114 C 358.701 1004.451, 380.522 965.410, 389.401 948.725 C 395.135 937.951, 395.135 937.951, 398.034 943.725 C 409.362 966.292, 434.695 981.562, 459.598 980.834 C 468.380 980.578, 472.990 980.797, 472.971 981.471 C 472.955 982.037, 469.622 993.975, 465.565 1008 C 461.507 1022.025, 458.328 1033.645, 458.500 1033.823 C 461.198 1036.611, 496.639 1009.709, 504.655 998.789 C 509.309 992.449, 508.941 992.111, 513.881 1007.250 C 522.115 1032.485, 537.210 1055.724, 553.835 1068.761 C 570.953 1082.184, 607.698 1078.357, 645.500 1059.215 C 677.346 1043.089, 677.910 1042.666, 676.858 1035.724 C 676.423 1032.851, 675.325 1025.550, 674.419 1019.500 C 673.514 1013.450, 671.220 1002.200, 669.323 994.500 C 660.337 958.032, 658.370 936.274, 663.128 926 C 665.212 921.500, 665.212 921.500, 666.702 926.475 C 676.791 960.168, 733.779 992.621, 764.500 982.168 C 771.639 979.739, 771.273 979.451, 773.806 989.500 C 778.860 1009.548, 781.999 1019.264, 783.781 1020.364 C 787.570 1022.707, 824.989 997.892, 838.353 984.174 C 872.695 948.922, 882.271 932.385, 882.856 907.319 C 883.212 892.068, 883.212 892.068, 886.856 893.923 C 901.738 901.503, 927.323 900.898, 943.849 892.576 C 983.755 872.480, 999.995 845.074, 999.999 797.822 C 1000.001 767.950, 998.803 762.475, 985.930 733.500 C 976.647 712.607, 976.931 714.652, 983.094 713.073 C 1006.102 707.176, 1026.729 691.928, 1032.524 676.533 C 1049.457 631.545, 1033.875 571.917, 996.425 538.400 C 988.784 531.562, 988.784 531.562, 999.741 526.319 C 1026.598 513.469, 1035.697 497.208, 1034.611 464 C 1032.115 387.690, 1012.542 363.803, 953.708 365.263 C 942.822 365.533, 934.051 365.472, 934.216 365.127 C 934.381 364.782, 936.132 361.350, 938.106 357.500 C 953.463 327.556, 943.463 280.546, 916.282 254.905 C 893.122 233.057, 849.935 227.044, 812.438 240.447 C 806.972 242.401, 802.229 244, 801.899 244 C 801.568 244, 801.020 238.938, 800.682 232.750 C 799.009 202.130, 782.677 173.395, 757.804 157.304 C 735.300 142.747, 695.326 134.821, 660.500 138.012 M 348.486 346.981 C 292.980 359.532, 270.801 413.984, 305.860 451.630 C 309.512 455.551, 314.485 461.104, 316.912 463.970 C 321.916 469.878, 325.605 472.381, 335.250 476.407 C 343.208 479.729, 342.937 478.797, 338.148 486.392 C 272.631 590.268, 296.616 733.470, 393.312 815.743 C 569.639 965.770, 846.041 863.336, 852.698 645.496 C 854.226 595.481, 847.345 569.421, 812.957 495 C 806.514 481.056, 806.361 482.280, 815 478.587 C 862.182 458.416, 874.826 428.355, 852.740 388.862 C 827.189 343.172, 741.864 357.078, 740.148 407.211 C 739.945 413.145, 739.589 418, 739.356 418 C 738.599 418, 728.781 412.919, 714.773 405.278 C 702.071 398.350, 692.134 393.908, 660.500 381.023 C 623.786 366.068, 548.918 352.698, 534 358.433 C 521.612 363.196, 505.201 368.498, 490.500 372.488 C 477.537 376.006, 470.004 378.757, 458.778 384.072 C 446.147 390.053, 428.175 398, 427.280 398 C 427.126 398, 427 395.360, 427 392.134 C 427 377.145, 407.656 354.748, 388.029 347.011 C 381.187 344.314, 360.348 344.298, 348.486 346.981" stroke="none" fill="#fffaea" fill-rule="evenodd"/><path d="M 348.486 346.981 C 292.980 359.532, 270.801 413.984, 305.860 451.630 C 309.512 455.551, 314.485 461.104, 316.912 463.970 C 321.916 469.878, 325.605 472.381, 335.250 476.407 C 343.208 479.729, 342.937 478.797, 338.148 486.392 C 272.631 590.268, 296.616 733.470, 393.312 815.743 C 569.639 965.770, 846.041 863.336, 852.698 645.496 C 854.226 595.481, 847.345 569.421, 812.957 495 C 806.514 481.056, 806.361 482.280, 815 478.587 C 862.182 458.416, 874.826 428.355, 852.740 388.862 C 827.189 343.172, 741.864 357.078, 740.148 407.211 C 739.945 413.145, 739.589 418, 739.356 418 C 738.599 418, 728.781 412.919, 714.773 405.278 C 702.071 398.350, 692.134 393.908, 660.500 381.023 C 623.786 366.068, 548.918 352.698, 534 358.433 C 521.612 363.196, 505.201 368.498, 490.500 372.488 C 477.537 376.006, 470.004 378.757, 458.778 384.072 C 446.147 390.053, 428.175 398, 427.280 398 C 427.126 398, 427 395.360, 427 392.134 C 427 377.145, 407.656 354.748, 388.029 347.011 C 381.187 344.314, 360.348 344.298, 348.486 346.981 M 707.500 584.503 C 684.726 596.794, 687.128 630.818, 711.287 638.156 C 733.255 644.828, 750.694 627.932, 746.392 604.144 C 743.840 590.034, 719.773 577.879, 707.500 584.503 M 419.290 588.973 C 400.029 598.721, 395.945 618.931, 410.310 633.409 C 432.996 656.271, 457.475 646.649, 458.802 614.348 C 459.736 591.630, 439.597 578.697, 419.290 588.973 M 616.073 649.154 C 611.778 650.401, 596.257 661.087, 584.731 670.733 C 575.962 678.071, 575.962 678.071, 566.731 669.772 C 540.943 646.588, 515.232 642.142, 509.898 659.945 C 506.953 669.775, 528.220 692.166, 552.249 704.536 C 560.523 708.795, 561 710.482, 561 735.517 C 561 752.963, 562.693 757.285, 571.217 761.608 C 587.343 769.786, 598.371 746.589, 594.588 712.444 C 593.922 706.431, 595.369 704.769, 612.896 691.419 C 629.017 679.138, 629.497 678.646, 631.995 671.794 C 637.600 656.421, 629.708 645.198, 616.073 649.154 M 663.128 926 C 658.466 936.065, 660.438 958.956, 668.854 992.500 C 673.568 1011.287, 676.078 1026.385, 677.497 1044.500 C 679.493 1069.973, 680.220 1075.170, 684.106 1091.769 C 688.150 1109.041, 692.012 1115.365, 700.273 1118.245 C 701.991 1118.844, 703.836 1120.718, 705.049 1123.096 C 711.257 1135.264, 741.822 1133.800, 783.692 1119.328 C 796.457 1114.916, 799.546 1104.151, 795.576 1077.913 C 790.284 1042.942, 786.759 1026.707, 782.665 1018.456 C 780.292 1013.672, 778.063 1006.387, 773.806 989.500 C 771.273 979.451, 771.639 979.739, 764.500 982.168 C 733.779 992.621, 676.791 960.168, 666.702 926.475 C 665.212 921.500, 665.212 921.500, 663.128 926 M 390.468 946.751 C 375.827 974.045, 358.233 1005.447, 356.500 1007.380 C 352.992 1011.292, 348.750 1021.141, 335.555 1056.006 C 330.454 1069.485, 325.149 1082.760, 323.767 1085.506 C 303.562 1125.642, 325.470 1144.999, 391.102 1145 C 407.160 1145, 423.291 1122.607, 443.327 1072.500 C 445.746 1066.450, 450.088 1055.655, 452.977 1048.510 C 455.865 1041.366, 458.344 1034.616, 458.484 1033.510 C 458.625 1032.405, 461.949 1020.364, 465.870 1006.753 C 469.792 993.142, 473 981.654, 473 981.224 C 473 980.794, 466.969 980.619, 459.598 980.834 C 434.708 981.562, 409.362 966.292, 398.047 943.751 C 395.161 938.002, 395.161 938.002, 390.468 946.751" stroke="none" fill="#c4c2c4" fill-rule="evenodd"/><path d="M 707.500 584.503 C 684.726 596.794, 687.128 630.818, 711.287 638.156 C 733.255 644.828, 750.694 627.932, 746.392 604.144 C 743.840 590.034, 719.773 577.879, 707.500 584.503 M 419.290 588.973 C 400.029 598.721, 395.945 618.931, 410.310 633.409 C 432.996 656.271, 457.475 646.649, 458.802 614.348 C 459.736 591.630, 439.597 578.697, 419.290 588.973 M 616.073 649.154 C 611.778 650.401, 596.257 661.087, 584.731 670.733 C 575.962 678.071, 575.962 678.071, 566.731 669.772 C 540.943 646.588, 515.232 642.142, 509.898 659.945 C 506.953 669.775, 528.220 692.166, 552.249 704.536 C 560.523 708.795, 561 710.482, 561 735.517 C 561 752.963, 562.693 757.285, 571.217 761.608 C 587.343 769.786, 598.371 746.589, 594.588 712.444 C 593.922 706.431, 595.369 704.769, 612.896 691.419 C 629.017 679.138, 629.497 678.646, 631.995 671.794 C 637.600 656.421, 629.708 645.198, 616.073 649.154" stroke="none" fill="#202027" fill-rule="evenodd"/></svg>