<svg xmlns="http://www.w3.org/2000/svg" width="1164" height="1164" viewBox="0 0 1164 1164" version="1.1"><path d="M 597.828 253.855 C 587.251 264.574, 582.100 285.899, 580.041 327.500 C 579.443 339.600, 578.298 356.250, 577.497 364.500 C 573.776 402.840, 575.821 414.970, 588.538 430 C 606.497 451.225, 617.761 437.795, 626.701 384.500 C 633.793 342.218, 625.760 261.281, 613.627 252.766 C 611.907 251.560, 610.350 250.218, 610.167 249.786 C 609.025 247.094, 602.317 249.306, 597.828 253.855 M 493.755 272.975 C 492.245 273.442, 489.255 275.214, 487.111 276.912 C 484.967 278.611, 482.775 280, 482.241 280 C 466.899 280, 466.037 345.306, 481.152 362.521 C 496.815 380.360, 516 351.241, 516 309.629 C 516 290.711, 509.104 273.073, 501.673 272.986 C 501.028 272.979, 499.600 272.782, 498.500 272.550 C 497.400 272.317, 495.265 272.509, 493.755 272.975 M 693.806 274.399 C 683.487 277.177, 683.043 278.525, 682.307 309.287 C 681.516 342.345, 683.338 349.069, 694.459 354.120 C 717.272 364.483, 732.314 326.141, 718.425 293.032 C 710.791 274.835, 705.909 271.140, 693.806 274.399 M 255.500 568.668 C 224.563 572.197, 220.679 583.592, 242.113 607.943 C 248.229 614.890, 251.410 616.530, 256.728 615.477 C 258.802 615.065, 264.966 614.810, 270.425 614.909 C 291.779 615.295, 309.009 604.883, 308.994 591.602 C 308.976 575.162, 302.455 570.591, 277.500 569.530 C 268.700 569.156, 260.825 568.732, 260 568.588 C 259.175 568.443, 257.150 568.480, 255.500 568.668 M 912 592.982 C 886.406 594.799, 872.460 618.285, 891.492 627.520 C 899.420 631.366, 936.975 636.098, 947.801 634.614 C 964.626 632.308, 969.881 611.891, 956.620 600.347 C 947.026 591.995, 940.675 590.947, 912 592.982 M 600.212 624.038 C 586.216 625.449, 556.393 633.892, 549.538 638.383 C 540.153 644.533, 541.167 657.649, 552.176 672.500 C 554.622 675.800, 559.806 683.245, 563.696 689.044 C 592.339 731.748, 626.143 743.043, 664.426 722.702 C 705.941 700.644, 719.284 630.203, 681.981 630.022 C 679.124 630.008, 674.711 628.805, 669.981 626.750 C 662.008 623.286, 622.790 621.762, 600.212 624.038 M 246.370 663.901 C 242.999 665.496, 239.931 667.303, 239.552 667.916 C 239.173 668.529, 237.349 669.663, 235.498 670.436 C 222.702 675.783, 229.186 696.796, 243.877 697.589 C 291.308 700.149, 298.786 698.371, 299.771 684.301 C 301.002 666.706, 267.497 653.907, 246.370 663.901 M 904.928 675.415 C 887.427 684.584, 883.102 691.382, 888.144 701.798 C 893.877 713.639, 922.674 719.586, 937.609 712.013 C 940.849 710.370, 944.133 709.020, 944.906 709.013 C 952.087 708.948, 958.474 691.957, 952.700 688.277 C 952.029 687.850, 950.265 685.624, 948.780 683.331 C 940.243 670.153, 921.447 666.761, 904.928 675.415" stroke="none" fill="#a95d00" fill-rule="evenodd"/><path d="M 748.028 638.492 C 744.320 639.388, 738.991 639.638, 731.496 639.269 C 720.314 638.718, 706.381 639.529, 704.236 640.854 C 703.360 641.396, 703.443 642.817, 704.568 646.538 C 711.098 668.134, 688.936 710.454, 664.454 723.142 C 624.784 743.700, 592.879 732.955, 562.766 688.894 C 543.843 661.208, 543.127 660.030, 542.443 655.466 C 542.002 652.529, 542.274 649.447, 543.230 646.542 C 547.719 632.908, 480.373 642.258, 448.290 659.724 C 384.818 694.277, 358.661 806.582, 406.178 840.526 C 409.105 842.617, 413.975 846.681, 417 849.557 C 465.751 895.912, 577.390 892.221, 611.410 843.130 C 614.201 839.103, 614.201 839.103, 619.850 845.215 C 625.796 851.647, 644.721 866.301, 651.506 869.727 C 661.316 874.680, 689.924 879, 712.909 879 C 728.401 879, 730.727 878.717, 755 873.889 C 758.025 873.288, 763.425 871.546, 767 870.018 C 770.575 868.491, 776.650 866.230, 780.500 864.994 C 832.042 848.443, 852.157 814.608, 850.819 746.708 C 850.379 724.408, 850.379 724.408, 847.058 717.454 C 845.231 713.629, 842.530 707.350, 841.056 703.500 C 835.089 687.924, 818.769 665.475, 807.735 657.668 C 784.311 641.093, 764.114 634.606, 748.028 638.492" stroke="none" fill="#fffaea" fill-rule="evenodd"/><path d="M 753.447 562.877 C 732.900 572.901, 727.324 598.258, 742.362 613.295 C 753.122 624.056, 776.520 625.575, 785.968 616.127 C 809.501 592.594, 782.651 548.630, 753.447 562.877 M 438.718 564.092 C 409.774 570.907, 404.012 617.536, 431.005 626.502 C 464.580 637.653, 497.044 596.730, 472.540 574.144 C 463.140 565.479, 449.740 561.496, 438.718 564.092" stroke="none" fill="#191920" fill-rule="evenodd"/><path d="" stroke="none" fill="#fbfbeb" fill-rule="evenodd"/><path d="M 575.500 251.097 C 521.532 255.506, 466.887 271.817, 419.722 297.595 C 404.025 306.174, 406.700 306.255, 395.853 296.865 C 378.360 281.721, 354.803 269.104, 337.261 265.484 C 332.993 264.603, 324.775 262.758, 319 261.384 C 283.476 252.930, 243.848 255.358, 229.270 266.881 C 209.799 282.272, 206.773 291.948, 208.920 331.958 C 211.164 373.794, 211.804 377.288, 229.591 444.874 C 234.461 463.379, 239.945 474.648, 247.815 482.324 C 251.735 486.148, 251.735 486.148, 247.806 497.302 C 237.867 525.521, 226.008 586.504, 232.504 575.993 C 234.508 572.750, 247.668 568.975, 257.474 568.830 C 298.260 568.225, 308.974 572.961, 308.994 591.602 C 309.009 604.883, 291.779 615.295, 270.425 614.909 C 264.966 614.810, 258.802 615.065, 256.728 615.477 C 249.843 616.841, 240.518 608.976, 232.795 595.290 C 231.153 592.381, 229.592 590, 229.327 590 C 228.316 590, 229.968 633.051, 231.418 644.500 C 234.572 669.403, 235.606 672.597, 239.128 668.342 C 253.300 651.217, 301.204 663.823, 299.771 684.301 C 298.882 697.005, 292.292 699.413, 261.654 698.228 C 239.318 697.365, 241.200 695.701, 246.517 711.608 C 346.390 1010.380, 794.266 1027.271, 933.070 737.500 C 946.617 709.220, 946.967 707.361, 937.899 711.892 C 910.167 725.750, 871.260 700.974, 892.635 683.068 C 912.265 666.624, 938.129 666.745, 948.748 683.331 C 950.216 685.624, 951.548 687.687, 951.708 687.917 C 952.380 688.876, 953.130 686.775, 955.988 675.928 C 969.656 624.060, 970.755 568.364, 959.118 517.245 C 956.329 504.989, 956.329 504.989, 965.259 493.245 C 977.677 476.913, 994.531 442.434, 999.351 423.500 C 1005.493 399.371, 1006.207 354.501, 1000.861 328.593 C 999.614 322.553, 991.285 306.353, 986.160 300 C 970.880 281.059, 957.871 275.691, 927 275.587 C 874.043 275.410, 836.029 283.564, 813.527 299.929 C 805.089 306.066, 807.121 306.135, 795.329 299.316 C 743.941 269.600, 672.918 250, 616.623 250 C 609.536 250, 609.536 250, 613.125 252.439 C 619.134 256.522, 622.069 266.292, 627.113 299 C 629.665 315.544, 629.410 368.348, 626.701 384.500 C 617.761 437.795, 606.497 451.225, 588.538 430 C 575.821 414.970, 573.776 402.840, 577.497 364.500 C 578.298 356.250, 579.443 339.600, 580.041 327.500 C 582.114 285.614, 587.812 262.452, 598.240 253.527 C 602.849 249.581, 599.038 249.174, 575.500 251.097 M 493.755 272.975 C 492.245 273.442, 489.255 275.214, 487.111 276.912 C 484.967 278.611, 482.775 280, 482.241 280 C 466.899 280, 466.037 345.306, 481.152 362.521 C 496.815 380.360, 516 351.241, 516 309.629 C 516 290.711, 509.104 273.073, 501.673 272.986 C 501.028 272.979, 499.600 272.782, 498.500 272.550 C 497.400 272.317, 495.265 272.509, 493.755 272.975 M 693.806 274.399 C 683.487 277.177, 683.043 278.525, 682.307 309.287 C 681.516 342.345, 683.338 349.069, 694.459 354.120 C 717.272 364.483, 732.314 326.141, 718.425 293.032 C 710.791 274.835, 705.909 271.140, 693.806 274.399 M 760 558.895 C 729.540 568.768, 723.140 606.097, 749.668 619.157 C 774.325 631.296, 797.857 616.718, 795.760 590.603 C 794.361 573.169, 773.373 554.560, 760 558.895 M 432.229 565.521 C 407.236 578.221, 405.806 617.952, 430.017 627.006 C 462.712 639.233, 497.139 599.914, 474.973 575.661 C 464.097 563.761, 444.734 559.167, 432.229 565.521 M 912 592.982 C 886.406 594.799, 872.460 618.285, 891.492 627.520 C 899.420 631.366, 936.975 636.098, 947.801 634.614 C 964.626 632.308, 969.881 611.891, 956.620 600.347 C 947.026 591.995, 940.675 590.947, 912 592.982 M 600.212 624.038 C 576.614 626.418, 549.006 636.291, 545.062 643.761 C 543.977 645.818, 543.069 647.133, 543.044 646.684 C 543.020 646.236, 543.449 645.030, 543.997 644.006 C 550.196 632.423, 476.082 644.595, 448.290 659.724 C 384.818 694.277, 358.661 806.582, 406.178 840.526 C 409.105 842.617, 413.975 846.681, 417 849.557 C 465.751 895.912, 577.390 892.221, 611.410 843.130 C 614.201 839.103, 614.201 839.103, 619.850 845.215 C 625.796 851.647, 644.721 866.301, 651.506 869.727 C 661.316 874.680, 689.924 879, 712.909 879 C 728.401 879, 730.727 878.717, 755 873.889 C 758.025 873.288, 763.425 871.546, 767 870.018 C 770.575 868.491, 776.650 866.230, 780.500 864.994 C 832.042 848.443, 852.157 814.608, 850.819 746.708 C 850.379 724.408, 850.379 724.408, 847.058 717.454 C 845.231 713.629, 842.530 707.350, 841.056 703.500 C 835.089 687.924, 818.769 665.475, 807.735 657.668 C 785.259 641.764, 764.317 634.679, 750 638.135 C 747.525 638.733, 736.725 639.307, 726 639.412 C 704.930 639.617, 702.618 640.023, 703.507 643.368 C 703.859 644.693, 703.445 644.364, 702.415 642.500 C 698.310 635.074, 690.054 630.027, 681.981 630.010 C 679.102 630.004, 674.748 628.821, 669.981 626.750 C 662.008 623.286, 622.790 621.762, 600.212 624.038" stroke="none" fill="#e48612" fill-rule="evenodd"/></svg>