<svg xmlns="http://www.w3.org/2000/svg" width="1164" height="1164" viewBox="0 0 1164 1164" version="1.1"><path d="M 642 219.622 C 613.059 221.599, 594.722 225.067, 583.719 230.642 C 575.464 234.825, 540.837 234.601, 516.500 230.207 C 472.092 222.189, 459.519 224.548, 455.988 241.556 C 451.106 265.074, 470.359 277.836, 511 278.023 C 519.084 278.060, 532.531 279.399, 536.057 280.518 C 538.355 281.247, 539.518 298.548, 539.092 325.665 C 538.675 352.217, 539.277 355.265, 546.157 361.451 C 559.348 373.311, 577.071 374.498, 582.557 363.889 C 584.068 360.968, 584.219 359.445, 583.838 351 C 583.751 349.075, 584.473 341.425, 585.442 334 C 586.820 323.449, 587.076 316.656, 586.614 302.904 C 586.023 285.309, 586.023 285.309, 601.761 280.573 C 645.963 267.274, 654.478 263.592, 664.786 253.324 C 684.399 233.787, 673.373 217.478, 642 219.622 M 426.147 577.075 C 392.281 583.733, 396.344 631.858, 430.782 631.978 C 459.050 632.077, 465.406 582.971, 437.889 577.070 C 432.328 575.877, 432.240 575.877, 426.147 577.075" stroke="none" fill="#fbfbeb" fill-rule="evenodd"/><path d="M 584.396 358.750 C 579.623 374.172, 562.255 375.659, 546.710 361.976 C 531.467 348.558, 446.974 380.021, 402 415.863 C 180.924 592.048, 368.150 940.843, 646.307 870.997 C 652.801 869.366, 664.726 867.095, 672.807 865.950 C 682.774 864.538, 691.199 862.628, 699 860.013 C 705.325 857.892, 715.675 854.720, 722 852.963 C 743.157 847.087, 793.432 825.430, 810.500 814.840 C 813.250 813.134, 819.941 809.273, 825.368 806.261 C 853.896 790.428, 879.410 770.841, 897.895 750.582 C 905.463 742.287, 913.645 733.474, 916.078 730.999 C 933.514 713.252, 948.934 694.308, 960.500 676.423 C 966.359 667.364, 967.818 664.113, 974.527 645.171 C 974.855 644.246, 976.289 644.949, 979.249 647.486 C 1002.524 667.435, 1063.298 665.130, 1096.658 643.033 C 1130.135 620.859, 1143.428 596.027, 1137.661 566.438 C 1136.810 562.072, 1135.832 555.575, 1135.488 552 C 1134.062 537.207, 1123.652 511.522, 1115.205 501.956 C 1095.708 479.876, 1044.931 487.886, 1007.191 518.994 C 1002.548 522.821, 1002.382 522.792, 1001.618 518.016 C 999.699 506.014, 983.217 472.230, 975.070 463.599 C 951.460 438.588, 925.558 438.131, 893.883 462.168 C 864.414 484.531, 861.809 527.872, 887.884 561.978 C 893.427 569.227, 893.456 570, 888.191 570.001 C 882.923 570.003, 851.340 575.597, 846.094 577.458 C 843.671 578.318, 841.612 578.904, 841.520 578.761 C 841.427 578.617, 840.337 573.550, 839.097 567.500 C 821.505 481.646, 754.517 405.086, 669.945 374.178 C 637.050 362.157, 586.181 352.983, 584.396 358.750 M 426.147 577.075 C 392.281 583.733, 396.344 631.858, 430.782 631.978 C 459.050 632.077, 465.406 582.971, 437.889 577.070 C 432.328 575.877, 432.240 575.877, 426.147 577.075" stroke="none" fill="#4c6484" fill-rule="evenodd"/></svg>